<?xml version="1.0" standalone="no"?>
<!DOCTYPE svg PUBLIC "-//W3C//DTD SVG 1.1//EN" "http://www.w3.org/Graphics/SVG/1.1/DTD/svg11.dtd" >
<svg xmlns="http://www.w3.org/2000/svg" xmlns:xlink="http://www.w3.org/1999/xlink" version="1.1">
<metadata></metadata>
<defs>
<font id="pubg-headline-boldregular" horiz-adv-x="506" >
<font-face units-per-em="1000" ascent="880" descent="-120" />
<missing-glyph horiz-adv-x="230" />
<glyph horiz-adv-x="0" />
<glyph horiz-adv-x="333" />
<glyph unicode=" "  horiz-adv-x="230" />
<glyph unicode="&#x09;" horiz-adv-x="230" />
<glyph unicode="&#xa0;" horiz-adv-x="230" />
<glyph unicode="!" horiz-adv-x="260" d="M191 219h-114l-16 492h147zM134 -8q-34 0 -55 21t-21 54t21 54.5t55 21.5q33 0 54 -21.5t21 -54.5t-21 -54t-54 -21z" />
<glyph unicode="&#x22;" horiz-adv-x="320" d="M110 481h-80v269h99v-67zM270 481h-80v269h99v-67z" />
<glyph unicode="#" horiz-adv-x="528" d="M332 0h-85l29 200h-66l-28 -200h-86l29 200h-89v85h102l20 138h-91v85h103l30 203h85l-30 -203h66l30 203h85l-30 -203h88v-85h-100l-20 -138h88v-85h-101zM289 285l20 138h-66l-20 -138h66z" />
<glyph unicode="$" d="M294 -105h-73v97q-84 12 -130 72t-46 160h138q0 -120 74 -120q30 0 47 22t17 62t-16.5 63.5t-54.5 43.5q-75 34 -111 64.5t-53.5 69.5t-17.5 93q0 82 45 134.5t118 62.5v105h74v-107q73 -14 114 -74t41 -152h-138q0 58 -17 87t-44 29q-26 0 -40.5 -22.5t-14.5 -62.5 q0 -35 15 -58t58 -47q78 -38 112.5 -68.5t51 -69t16.5 -91.5q0 -82 -43.5 -134t-121.5 -62v-97z" />
<glyph unicode="%" horiz-adv-x="639" d="M181 391q-60 0 -97 40t-37 109v34q0 65 36 106t97 41t97.5 -40t36.5 -109v-35q0 -66 -36 -106t-97 -40zM181 473q20 0 31.5 18t11.5 47v36q0 29 -12 47t-32 18q-19 0 -31 -18t-12 -48v-36q0 -30 12.5 -47t31.5 -17zM462 -10q-62 0 -98 40.5t-36 107.5v36q0 66 36.5 106.5 t96.5 40.5t97 -40t37 -109v-36q0 -65 -36 -105.5t-97 -40.5zM462 72q40 0 42 58v44q0 29 -12 47t-31 18q-43 0 -43 -75v-28q0 -27 13 -45.5t31 -18.5zM206 53l-65 37l291 556l66 -37z" />
<glyph unicode="&#x26;" horiz-adv-x="579" d="M233 -10q-89 0 -143.5 55.5t-54.5 145.5q0 51 23 91.5t85 92.5q-58 90 -58 158q0 84 46.5 136t123.5 52q70 0 115.5 -48t45.5 -118q0 -93 -78 -155l-39 -32l91 -127q17 50 17 108h117q0 -137 -54 -221l92 -128h-157l-26 37q-63 -47 -146 -47zM241 104q38 0 72 26 l-112 159l-3 -3q-24 -37 -24 -86q0 -41 19 -68.5t48 -27.5zM241 451l23 17q21 16 29.5 33t8.5 45q0 25 -14 42.5t-33 17.5q-22 0 -34.5 -19.5t-12.5 -50.5q0 -35 33 -85z" />
<glyph unicode="'" horiz-adv-x="161" d="M120 480h-90v270h104v-72z" />
<glyph unicode="(" horiz-adv-x="323" d="M270 -222q-58 30 -108 108q-103 157 -103 403q0 232 102 390q51 79 109 110l26 -77q-55 -51 -87.5 -158.5t-33.5 -247.5q0 -336 121 -453z" />
<glyph unicode=")" horiz-adv-x="323" d="M53 -222l-26 75q56 53 88 162.5t33 248.5q0 168 -32 280t-89 169l26 76q37 -19 76.5 -63.5t71 -110t51 -147.5t19.5 -191q0 -113 -29 -215t-80.5 -178.5t-108.5 -105.5z" />
<glyph unicode="*" horiz-adv-x="454" d="M316 279l-89 142l-88 -137l-78 53l106 133l-154 43l29 89l152 -61l-9 170h95l-9 -174l148 60l29 -89l-156 -44l102 -130z" />
<glyph unicode="+" horiz-adv-x="475" d="M303 71h-131v199h-141v128h141v191h131v-191h138v-128h-138v-199z" />
<glyph unicode="," horiz-adv-x="245" d="M91 -179l-73 38l18 35q31 58 32 116v110h120v-98q0 -52 -26 -107.5t-71 -93.5z" />
<glyph unicode="-" horiz-adv-x="363" d="M299 247h-239v115h239v-115z" />
<glyph unicode="." horiz-adv-x="291" d="M142 -5q-35 0 -57.5 21t-22.5 54q0 34 22 55t58 21q34 0 57 -21t23 -55t-23 -54.5t-57 -20.5z" />
<glyph unicode="/" horiz-adv-x="331" d="M101 -61h-101l213 772h101z" />
<glyph unicode="0" horiz-adv-x="505" d="M253 -10q-98 0 -151.5 76t-55.5 218v134q0 147 53.5 225t153.5 78q99 0 152 -77.5t54 -220.5v-129q0 -148 -53 -226t-153 -78zM253 105q66 0 68 160v173q0 168 -69 168q-65 0 -68 -154v-177q0 -170 69 -170z" />
<glyph unicode="1" d="M351 0h-139v543l-135 -52v115l259 106h15v-712z" />
<glyph unicode="2" d="M465 0h-419v98l193 244q71 101 71 163q0 47 -16.5 74t-46.5 27q-34 0 -54 -31.5t-20 -87.5h-138q0 65 27 119.5t76 84.5t111 30q95 0 147.5 -52.5t52.5 -149.5q0 -60 -29 -122t-105 -152l-91 -130h241v-115z" />
<glyph unicode="3" d="M238 -10q-92 0 -148.5 56.5t-56.5 148.5h138q0 -38 20 -64t51 -26q35 0 56 26.5t21 70.5q0 105 -82 105h-68v111h67q38 0 56 27t18 71q0 43 -18.5 66.5t-48.5 23.5q-29 0 -47.5 -22.5t-18.5 -56.5h-138q0 56 25.5 100t72 69t102.5 25q98 0 153.5 -54.5t55.5 -148.5 q0 -48 -25 -89.5t-66 -63.5q100 -42 100 -166q0 -95 -60.5 -152t-158.5 -57z" />
<glyph unicode="4" d="M411 0h-139v154h-235l-6 89l241 468h139v-442h60v-115h-60v-154zM272 269v237l-107 -237h107z" />
<glyph unicode="5" d="M254 -10q-56 0 -104 26.5t-75.5 74t-28.5 107.5h137q4 -44 22.5 -68.5t47.5 -24.5q71 0 71 131q0 124 -84 124q-39 0 -61 -27l-9 -12l-109 29l35 361h344v-118h-231l-13 -153q40 27 83 27q88 0 135.5 -62.5t47.5 -176.5q0 -107 -56.5 -172.5t-151.5 -65.5z" />
<glyph unicode="6" d="M262 -10q-96 0 -154.5 78t-58.5 209v51q0 118 37 206.5t106.5 136t161.5 47.5h22v-117q-85 0 -131 -46.5t-56 -129.5q45 51 112 51q77 0 123 -66t46 -176q0 -69 -26.5 -125.5t-74 -87.5t-107.5 -31zM259 105q33 0 53.5 36t20.5 92q0 57 -21 93t-55 36q-51 0 -70 -58v-50 q0 -75 20 -112t52 -37z" />
<glyph unicode="7" horiz-adv-x="505" d="M239 0h-146l225 596h-285v115h430v-80z" />
<glyph unicode="8" d="M254 -10q-95 0 -150.5 55t-55.5 150q0 59 25.5 103t69.5 68q-83 51 -83 156q0 93 52.5 146t139.5 53q89 0 141 -53.5t52 -145.5q0 -105 -83 -156q95 -54 95 -171q0 -95 -54.5 -150t-148.5 -55zM253 105q65 0 65 101q0 47 -17.5 74t-47.5 27q-31 0 -49 -27t-18 -74 q0 -48 18 -74.5t49 -26.5zM254 421q53 0 53 94q0 91 -55 91q-53 0 -53 -91q0 -94 55 -94z" />
<glyph unicode="9" d="M148 -7h-14v119h10q154 0 170 163q-43 -45 -96 -45q-81 0 -127.5 65t-46.5 174q0 71 26.5 129t73.5 90.5t105 32.5q60 0 107 -36t73 -102.5t26 -151.5v-50q0 -182 -80 -284t-227 -104zM253 338q40 0 63 55v64q0 69 -19 109t-49 40t-48 -39.5t-18 -95.5q0 -62 19 -97.5 t52 -35.5z" />
<glyph unicode=":" horiz-adv-x="274" d="M143 -5q-35 0 -57.5 21t-22.5 54q0 34 22 55t58 21q34 0 57 -21t23 -55t-23 -54.5t-57 -20.5zM143 394q-35 0 -57.5 21t-22.5 55q0 33 22 54.5t58 21.5q34 0 57 -21.5t23 -54.5q0 -34 -23 -55t-57 -21z" />
<glyph unicode=";" horiz-adv-x="255" d="M135 394q-35 0 -57.5 21t-22.5 55q0 33 22 54.5t58 21.5q34 0 57 -21.5t23 -54.5q0 -34 -23 -55t-57 -21zM103 -179l-74 38l19 35q31 58 32 116v110h120v-98q-1 -52 -27 -107.5t-70 -93.5z" />
<glyph unicode="&#x3c;" horiz-adv-x="447" d="M385 66l-355 178v116l355 179v-138l-221 -100l221 -97v-138z" />
<glyph unicode="=" horiz-adv-x="503" d="M437 363h-373v116h373v-116zM437 152h-373v116h373v-116z" />
<glyph unicode="&#x3e;" horiz-adv-x="454" d="M59 66v137l226 100l-226 98v137l360 -178v-116z" />
<glyph unicode="?" horiz-adv-x="449" d="M270 219h-122q0 68 13.5 108.5t48.5 76.5q37 41 49 67t12 52q0 81 -53 81q-23 0 -38.5 -22t-16.5 -61h-139q1 95 53 147.5t141 52.5q91 0 141.5 -50.5t50.5 -141.5q0 -75 -62 -148q-20 -23 -40.5 -46t-28.5 -49t-9 -67zM211 -6q-34 0 -54.5 21.5t-20.5 53.5q0 34 21 55 t54 21q34 0 55 -21.5t21 -54.5q0 -32 -20.5 -53.5t-55.5 -21.5z" />
<glyph unicode="@" horiz-adv-x="766" d="M375 -221q-110 0 -186.5 52t-113.5 153q-34 90 -34 215q0 152 52 269q47 107 127.5 165t182.5 58t177 -52t113 -150q33 -88 33 -202q0 -98 -27 -170q-48 -127 -158 -127q-70 0 -100 65q-41 -64 -102 -64q-62 0 -95 61q-27 49 -27 122q0 96 36 179q27 62 68.5 96t90.5 34 q62 0 105 -33l26 -20l-23 -301q0 -60 38 -60q35 0 59 54q26 60 26 165q0 148 -60 235.5t-182 87.5q-116 0 -188 -104q-80 -114 -80 -315q0 -150 60 -238.5t183 -88.5q75 0 137 33l16 -76q-25 -19 -68 -31t-86 -12zM373 79q16 0 30.5 20t23.5 55l18 240q-13 3 -24 3 q-43 0 -66.5 -44.5t-30.5 -142.5l-1 -28q0 -103 50 -103z" />
<glyph unicode="A" horiz-adv-x="597" d="M588 0h-153l-39 146h-195l-38 -146h-152l222 711h131zM365 265l-67 254l-66 -254h133z" />
<glyph unicode="B" horiz-adv-x="561" d="M292 0h-235v711h220q111 0 169 -49.5t58 -145.5q0 -54 -24 -93t-65 -57q47 -14 73 -55t26 -102q0 -104 -57 -156.5t-165 -52.5zM292 119q79 0 79 92q0 96 -69 98h-101v-190h91zM275 414q85 0 85 87q0 48 -19.5 69t-63.5 21h-76v-177h74z" />
<glyph unicode="C" horiz-adv-x="570" d="M293 -10q-121 0 -185 79.5t-64 226.5v120q0 146 66.5 225.5t184.5 79.5q228 0 245 -252h-144q-2 75 -23 104t-78 29q-58 0 -82 -40.5t-25 -132.5v-135q0 -106 23.5 -145.5t81.5 -39.5q57 0 78.5 28t24.5 100h143q-5 -122 -68 -184.5t-178 -62.5z" />
<glyph unicode="D" horiz-adv-x="565" d="M241 0h-184v711h188q125 0 199 -79t75 -217v-115q0 -140 -74 -220t-204 -80zM244 119q71 0 100.5 38t30.5 131v123q0 100 -27.5 139t-94.5 41h-52v-472h43z" />
<glyph unicode="E" horiz-adv-x="490" d="M465 0h-408v711h407v-120h-263v-168h223v-115h-223v-189h264v-119z" />
<glyph unicode="F" horiz-adv-x="476" d="M201 0h-144v711h394v-120h-250v-182h223v-119h-223v-290z" />
<glyph unicode="G" horiz-adv-x="585" d="M307 -10q-123 0 -191 76t-70 221v128q0 147 64.5 226.5t187.5 79.5q116 0 174.5 -57.5t68.5 -179.5h-140q-6 68 -28.5 93t-70.5 25q-58 0 -84.5 -42.5t-27.5 -135.5v-129q0 -97 29.5 -141.5t95.5 -44.5q46 0 81 26v131h-100v108h245v-293q-85 -91 -234 -91z" />
<glyph unicode="H" horiz-adv-x="614" d="M556 0h-143v304h-212v-304h-144v711h144v-288h212v288h143v-711z" />
<glyph unicode="I" horiz-adv-x="374" d="M268 711v-96h-61v-520h61v-96h-264v96h59v520h-59v96h264z" />
<glyph unicode="J" horiz-adv-x="491" d="M229 -10q-98 0 -152.5 58t-54.5 162h145q0 -101 62 -101t62 117v485h144v-492q0 -104 -58 -166.5t-148 -62.5z" />
<glyph unicode="K" horiz-adv-x="554" d="M558 0h-171l-130 274l-56 -71v-203h-144v711h144v-310q45 77 177 310h176l-203 -313z" />
<glyph unicode="L" horiz-adv-x="479" d="M453 0h-396v711h144v-592h252v-119z" />
<glyph unicode="M" horiz-adv-x="758" d="M700 0h-144v192l13 297l-142 -489h-97l-142 489l13 -297v-192h-144v711h188l134 -514l134 514h187v-711z" />
<glyph unicode="N" horiz-adv-x="612" d="M554 0h-143l-210 466v-466h-144v711h144l210 -467v467h143v-711z" />
<glyph unicode="O" horiz-adv-x="604" d="M302 -10q-119 0 -187.5 78.5t-69.5 219.5v122q0 146 68 228.5t188 82.5q119 0 187.5 -81t69.5 -227v-121q0 -144 -68 -223t-188 -79zM302 110q56 0 83.5 43t28.5 134v124q0 190 -113 190q-111 0 -113 -183v-126q0 -94 28 -138t86 -44z" />
<glyph unicode="P" horiz-adv-x="569" d="M201 0h-144v711h242q106 0 168.5 -65.5t62.5 -169.5q0 -105 -62 -165.5t-172 -60.5h-95v-250zM299 370q86 0 86 105q0 53 -23 84.5t-61 31.5h-100v-221h98z" />
<glyph unicode="Q" horiz-adv-x="603" d="M470 -127l-131 120l-38 -3q-120 0 -188.5 82t-68.5 226v112q0 146 68 228.5t188 82.5q118 0 186.5 -79t70.5 -223v-119q0 -176 -95 -256l98 -88zM301 110q112 0 112 187v114q0 190 -113 190q-112 0 -112 -183v-118q0 -190 113 -190z" />
<glyph unicode="R" horiz-adv-x="554" d="M534 0h-155l-107 260h-71v-260h-143v711h229q108 0 166.5 -56t58.5 -159q0 -142 -103 -198l125 -291v-7zM283 379q43 0 64.5 29t21.5 76q0 107 -84 107h-84v-212h82z" />
<glyph unicode="S" horiz-adv-x="540" d="M282 -10q-69 0 -125.5 28.5t-88.5 81t-32 124.5h144q0 -61 24 -89t78 -28q75 0 75 80q0 43 -22 65t-81 46q-107 41 -153.5 95.5t-46.5 128.5q0 90 63.5 144.5t161.5 54.5q66 0 117 -27.5t78.5 -78t27.5 -114.5h-143q0 102 -82 102q-38 0 -59 -22t-21 -60q0 -29 23.5 -53 t83.5 -49q104 -38 151 -92.5t47 -138.5q0 -93 -59 -145.5t-161 -52.5z" />
<glyph unicode="T" horiz-adv-x="543" d="M342 0h-144v591h-173v120h493v-120h-176v-591z" />
<glyph unicode="U" horiz-adv-x="572" d="M286 -10q-114 0 -174.5 59.5t-60.5 172.5v489h145v-489q0 -61 19.5 -87t70.5 -26t70 26t20 84v492h144v-492q-1 -111 -61.5 -170t-172.5 -59z" />
<glyph unicode="V" horiz-adv-x="578" d="M363 0h-149l-204 711h159l120 -516l119 516h160z" />
<glyph unicode="W" horiz-adv-x="750" d="M602 0h-144l-83 419l-82 -419h-145l-127 711h144l66 -446l84 446h121l83 -447l67 447h143z" />
<glyph unicode="X" horiz-adv-x="560" d="M544 0h-167l-97 249l-97 -249h-167l171 358l-167 353h164l96 -244l95 244h165l-167 -353z" />
<glyph unicode="Y" horiz-adv-x="543" d="M344 0h-145v258l-191 453h156l107 -319l107 319h157l-191 -453v-258z" />
<glyph unicode="Z" horiz-adv-x="530" d="M499 0h-461v86l290 505h-293v120h459v-85l-288 -507h293v-119z" />
<glyph unicode="[" horiz-adv-x="264" d="M244 -166h-190v994h190v-110h-52v-775h52v-109z" />
<glyph unicode="\" horiz-adv-x="381" d="M395 -61h-141l-249 772h141z" />
<glyph unicode="^" horiz-adv-x="391" d="M369 356h-108l-65 222l-64 -222h-108l123 355h99z" />
<glyph unicode="_" horiz-adv-x="400" d="M389 -111h-379v111h379v-111z" />
<glyph unicode="`" horiz-adv-x="331" d="M277 599h-117l-135 151h155z" />
<glyph unicode="a" horiz-adv-x="470" d="M189 -10q-66 0 -110 44t-44 114q0 83 53 128.5t153 46.5h42v42q0 65 -48 65q-52 0 -52 -60h-138q0 73 55 120.5t139 47.5q87 0 134.5 -45t47.5 -129v-249q1 -68 19 -107v-8h-139q-6 12 -11 41q-38 -51 -101 -51zM220 99q44 0 63 31v110h-33q-36 0 -56 -22.5t-20 -60.5 q0 -58 46 -58z" />
<glyph unicode="b" horiz-adv-x="495" d="M292 -10q-68 0 -110 62l-4 -52h-128v750h138v-265q40 53 104 53q168 0 170 -250v-41q0 -128 -41 -192.5t-129 -64.5zM253 105q39 0 54.5 26t16.5 100v51q0 83 -16 111.5t-56 28.5q-44 0 -64 -39v-241q19 -37 65 -37z" />
<glyph unicode="c" horiz-adv-x="460" d="M244 -10q-102 0 -155.5 63.5t-54.5 187.5v42q0 124 53 189.5t156 65.5q88 0 138 -54t51 -153h-130q0 92 -61 92q-36 0 -52 -25.5t-17 -99.5q0 -118 7 -143q12 -50 62 -50q60 0 61 78h130q-1 -86 -53 -139.5t-135 -53.5z" />
<glyph unicode="d" horiz-adv-x="495" d="M203 -10q-83 0 -126.5 63.5t-44.5 186.5v40q0 258 172 258q61 0 101 -53v265h139v-750h-125l-6 54q-43 -64 -110 -64zM243 105q41 0 62 37v241q-20 39 -61 39q-38 0 -56 -30.5t-18 -109.5v-36q0 -79 17 -110t56 -31z" />
<glyph unicode="e" horiz-adv-x="479" d="M264 -10q-107 0 -166.5 63.5t-59.5 181.5v42q0 125 54.5 193t157.5 68q199 0 201 -252v-68h-275q3 -59 26 -86t70 -27q70 0 116 47l54 -83q-25 -35 -73.5 -57t-104.5 -22zM315 314q0 59 -15 84t-51 25q-37 0 -53 -25.5t-19 -83.5h138z" />
<glyph unicode="f" horiz-adv-x="328" d="M221 0h-139v424h-64v104h64v48q1 87 46.5 135.5t125.5 48.5q25 0 63 -10l-1 -110q-14 5 -34 5q-61 0 -61 -74v-43h82v-104h-82v-424z" />
<glyph unicode="g" horiz-adv-x="503" d="M233 -208q-43 0 -91 17.5t-71 44.5l46 95q20 -20 51 -33t59 -13q46 0 66.5 22t20.5 72v45q-39 -52 -103 -52q-84 0 -130 66t-47 185v39q0 130 46.5 194t131.5 64q72 0 111 -57l5 47h125v-528q0 -101 -57 -154.5t-163 -53.5zM251 105q43 0 63 31v253q-21 33 -62 33 t-60.5 -33.5t-19.5 -108.5v-34q0 -74 19 -107.5t60 -33.5z" />
<glyph unicode="h" horiz-adv-x="492" d="M443 0h-138v334q0 47 -14.5 67.5t-46.5 20.5q-38 0 -59 -34v-388h-138v750h138v-268q45 56 110 56q148 0 148 -202v-336z" />
<glyph unicode="i" horiz-adv-x="252" d="M195 0h-138v528h138v-528zM126 591q-35 0 -55.5 21t-20.5 53t20.5 52.5t55.5 20.5q34 0 54.5 -20.5t20.5 -52.5t-20.5 -53t-54.5 -21z" />
<glyph unicode="j" horiz-adv-x="245" d="M37 -213q-33 0 -63 8v113q23 -5 36 -5q46 0 47 65v560h139v-556q0 -91 -41.5 -138t-117.5 -47zM123 591q-35 0 -55 21t-20 53t20.5 52.5t54.5 20.5t54.5 -20.5t20.5 -52.5t-20 -53t-55 -21z" />
<glyph unicode="k" horiz-adv-x="478" d="M480 0h-158l-96 204l-38 -42v-162h-138v750h138v-405q18 25 113 183h165l-153 -217z" />
<glyph unicode="l" horiz-adv-x="252" d="M195 0h-138v750h138v-750z" />
<glyph unicode="m" horiz-adv-x="742" d="M690 0h-138v337q0 46 -13 65.5t-43 19.5q-38 0 -58 -47q1 -17 1 -375h-138v336q0 46 -12 66t-43 20q-36 0 -57 -38v-384h-138v528h129l4 -49q46 59 123 59q79 0 111 -71q46 71 130 71q139 0 142 -192v-346z" />
<glyph unicode="n" horiz-adv-x="492" d="M443 0h-138v337q0 45 -13.5 65t-47.5 20q-37 0 -58 -38v-384h-139v528h130l4 -52q47 62 122 62q136 0 140 -191v-347z" />
<glyph unicode="o" horiz-adv-x="498" d="M249 -10q-102 0 -158.5 68t-56.5 190v33q0 120 56.5 188.5t157.5 68.5t157.5 -68.5t56.5 -189.5v-33q0 -121 -56 -189t-157 -68zM249 105q69 0 75 118v58q0 142 -76 142q-75 0 -75 -142v-34q0 -142 76 -142z" />
<glyph unicode="p" horiz-adv-x="495" d="M188 -203h-138v731h128l5 -48q40 58 108 58q169 0 171 -250v-40q0 -125 -43 -191.5t-127 -66.5q-64 0 -104 52v-245zM251 105q41 0 57 34.5t16 108.5v34q0 77 -16.5 108.5t-57.5 31.5q-42 0 -62 -35v-248q19 -34 63 -34z" />
<glyph unicode="q" horiz-adv-x="497" d="M444 -203h-139v244q-38 -51 -101 -51q-84 0 -127.5 65t-44.5 186v40q0 257 172 257q69 0 110 -62l9 52h121v-731zM244 105q42 0 61 33v251q-19 34 -61 34q-39 0 -56 -31.5t-18 -105.5v-39q0 -77 17 -109.5t57 -32.5z" />
<glyph unicode="r" horiz-adv-x="331" d="M188 0h-138v528h130l4 -57q33 67 90 67q24 0 39 -6l-2 -137l-46 4q-57 0 -77 -50v-349z" />
<glyph unicode="s" horiz-adv-x="454" d="M226 -10q-59 0 -103 23t-69.5 63.5t-25.5 87.5h132q1 -37 16.5 -55t52.5 -18q55 0 55 51q0 17 -17 32t-75 40q-85 35 -117 72t-32 92q0 70 50 115t133 45q87 0 139 -45t52 -120h-138q0 64 -54 64q-22 0 -36 -13.5t-14 -38.5q0 -17 15.5 -30.5t73.5 -38.5 q85 -31 119.5 -69.5t34.5 -99.5q0 -71 -53 -114t-139 -43z" />
<glyph unicode="t" horiz-adv-x="307" d="M208 -10q-134 0 -135 154v280h-61v104h61v130h138v-130h71v-104h-71v-262q0 -31 8.5 -43t32.5 -12q20 0 33 4l-1 -108q-35 -13 -76 -13z" />
<glyph unicode="u" horiz-adv-x="492" d="M195 -10q-73 0 -110.5 50t-37.5 146v342h138v-345q1 -78 51 -78q48 0 69 41v382h139v-528h-130l-4 48q-43 -58 -115 -58z" />
<glyph unicode="v" horiz-adv-x="450" d="M290 0h-132l-146 528h145l67 -333l67 333h144z" />
<glyph unicode="w" horiz-adv-x="633" d="M505 0h-114l-75 306l-75 -306h-115l-109 528h132l47 -297l71 297h98l70 -296l47 296h133z" />
<glyph unicode="x" horiz-adv-x="452" d="M439 0h-147l-64 166l-65 -166h-147l125 270l-120 258h147l59 -156l62 156h146l-121 -258z" />
<glyph unicode="y" horiz-adv-x="446" d="M117 -213q-25 0 -57 9v108l16 -1q32 0 48.5 12.5t24.5 43.5l11 36l-152 533h148l64 -298l70 298h148l-174 -607q-39 -134 -147 -134z" />
<glyph unicode="z" horiz-adv-x="453" d="M412 0h-373v86l204 327h-199v115h365v-83l-206 -330h209v-115z" />
<glyph unicode="|" horiz-adv-x="253" d="M170 -132h-86v843h86v-843z" />
<glyph unicode="&#xad;" horiz-adv-x="363" d="M299 247h-239v115h239v-115z" />
<glyph unicode="&#x2000;" horiz-adv-x="414" />
<glyph unicode="&#x2001;" horiz-adv-x="828" />
<glyph unicode="&#x2002;" horiz-adv-x="414" />
<glyph unicode="&#x2003;" horiz-adv-x="828" />
<glyph unicode="&#x2004;" horiz-adv-x="276" />
<glyph unicode="&#x2005;" horiz-adv-x="207" />
<glyph unicode="&#x2006;" horiz-adv-x="138" />
<glyph unicode="&#x2007;" horiz-adv-x="138" />
<glyph unicode="&#x2008;" horiz-adv-x="103" />
<glyph unicode="&#x2009;" horiz-adv-x="165" />
<glyph unicode="&#x200a;" horiz-adv-x="46" />
<glyph unicode="&#x2010;" horiz-adv-x="363" d="M299 247h-239v115h239v-115z" />
<glyph unicode="&#x2011;" horiz-adv-x="363" d="M299 247h-239v115h239v-115z" />
<glyph unicode="&#x2012;" horiz-adv-x="363" d="M299 247h-239v115h239v-115z" />
<glyph unicode="&#x2013;" horiz-adv-x="624" d="M560 247h-500v115h500v-115z" />
<glyph unicode="&#x2014;" horiz-adv-x="1124" d="M1060 247h-1000v115h1000v-115z" />
<glyph unicode="&#x202f;" horiz-adv-x="165" />
<glyph unicode="&#x205f;" horiz-adv-x="207" />
<glyph unicode="&#x25fc;" horiz-adv-x="530" d="M0 530h530v-530h-530v530z" />
</font>
</defs>
</svg>
