<?xml version="1.0" standalone="no"?>
<!DOCTYPE svg PUBLIC "-//W3C//DTD SVG 1.1//EN" "http://www.w3.org/Graphics/SVG/1.1/DTD/svg11.dtd" >
<svg xmlns="http://www.w3.org/2000/svg" xmlns:xlink="http://www.w3.org/1999/xlink" version="1.1">
<metadata></metadata>
<defs>
<font id="refrigerator_deluxeregular" horiz-adv-x="435" >
<font-face units-per-em="1000" ascent="824" descent="-176" />
<missing-glyph horiz-adv-x="200" />
<glyph unicode="&#xfb01;" horiz-adv-x="432" d="M377 0h-68v406h-157v-406h-68v406h-70v64h70v135q0 42 26 68.5t70 26.5h62v-64h-68q-22 0 -22 -22v-144h225v-470zM298 586q0 19 13.5 32.5t32.5 13.5t32.5 -13.5t13.5 -32.5t-13.5 -32.5t-32.5 -13.5t-32.5 13.5t-13.5 32.5z" />
<glyph unicode="&#xfb02;" horiz-adv-x="432" d="M377 0h-68v614q0 22 -22 22h-113q-22 0 -22 -22v-144h90v-64h-90v-406h-68v406h-70v64h70v137q0 42 26 68.5t69 26.5h54q59 0 76 -47h2v45h66v-700z" />
<glyph horiz-adv-x="0" />
<glyph horiz-adv-x="333" />
<glyph horiz-adv-x="0" />
<glyph horiz-adv-x="0" />
<glyph unicode="&#xd;" horiz-adv-x="200" />
<glyph unicode=" "  horiz-adv-x="200" />
<glyph unicode="&#x09;" horiz-adv-x="200" />
<glyph unicode="&#xa0;" horiz-adv-x="200" />
<glyph unicode="!" horiz-adv-x="222" d="M134 175h-45l-25 525h95zM54 47q0 24 16.5 40.5t40.5 16.5t40.5 -16.5t16.5 -40.5t-16.5 -40.5t-40.5 -16.5t-40.5 16.5t-16.5 40.5z" />
<glyph unicode="&#x22;" horiz-adv-x="361" d="M161 700l-32 -208h-36l-33 208h101zM300 700l-32 -208h-36l-33 208h101z" />
<glyph unicode="#" horiz-adv-x="513" d="M466 448h-88l-64 -196h87l-15 -45h-87l-69 -207h-48l69 207h-85l-69 -207h-48l69 207h-88l15 45h88l64 196h-87l15 45h87l69 207h48l-69 -207h85l69 207h48l-69 -207h88zM266 252l64 196h-85l-64 -196h85z" />
<glyph unicode="$" d="M250 -10h-65v100h-25q-46 0 -75.5 29.5t-29.5 75.5v56h75v-65q0 -25 25 -25h125q25 0 25 25v60q0 19 -14 27l-172 89q-30 15 -47 41.5t-17 54.5v47q0 47 29.5 76t75.5 29h25v100h65v-100h25q47 0 76 -29t29 -76v-53h-75v62q0 25 -25 25h-125q-25 0 -25 -25v-57 q0 -19 14 -27l174 -90q62 -32 62 -91v-54q0 -46 -29 -75.5t-76 -29.5h-25v-100z" />
<glyph unicode="%" horiz-adv-x="664" d="M187 320h-79q-31 0 -49.5 18.5t-18.5 49.5v244q0 32 18.5 50t49.5 18h79q32 0 50 -18t18 -50v-244q0 -31 -18 -49.5t-50 -18.5zM200 381v258q0 10 -10 10h-85q-10 0 -10 -10v-258q0 -10 10 -10h85q10 0 10 10zM472 700l-232 -700h-49l232 700h49zM556 0h-79 q-31 0 -49.5 18.5t-18.5 49.5v244q0 32 18.5 50t49.5 18h79q32 0 50 -18t18 -50v-244q0 -31 -18 -49.5t-50 -18.5zM569 61v258q0 10 -10 10h-85q-10 0 -10 -10v-258q0 -10 10 -10h85q10 0 10 10z" />
<glyph unicode="&#x26;" horiz-adv-x="606" d="M604 45l-52 -52l-146 144l-39 -78q-15 -31 -38 -46t-62 -15h-107q-46 0 -75.5 29.5t-29.5 75.5v149q0 51 36 87l55 56l-37 37q-34 34 -34 97v68q0 47 29.5 76t75.5 29h115q45 0 75 -29t30 -71v-89h-75v91q0 25 -25 25h-125q-25 0 -25 -25v-84q0 -26 14 -40l224 -221 l79 157h80l-106 -210zM301 87l52 103l-156 155l-53 -54q-14 -14 -14 -35v-160q0 -25 25 -25h115q24 0 31 16z" />
<glyph unicode="'" horiz-adv-x="221" d="M161 700l-32 -208h-36l-33 208h101z" />
<glyph unicode="(" horiz-adv-x="220" d="M53 325q0 271 106 475h51q-109 -216 -109 -475q0 -264 109 -476h-51q-106 204 -106 476z" />
<glyph unicode=")" horiz-adv-x="220" d="M61 -151h-51q109 212 109 476q0 259 -109 475h51q106 -204 106 -475q0 -272 -106 -476z" />
<glyph unicode="*" horiz-adv-x="342" d="M189 525l12 -115h-58l12 115l-94 -68l-29 51l106 47l-106 47l29 51l94 -69l-12 116h58l-12 -116l94 69l29 -51l-106 -47l106 -47l-29 -51z" />
<glyph unicode="+" horiz-adv-x="460" d="M430 213h-180v-178h-45v178h-175v43h175v179h45v-179h180v-43z" />
<glyph unicode="," horiz-adv-x="182" d="M148 24l-64 -138h-41l36 107q-16 2 -28.5 17t-12.5 37q0 24 16.5 40.5t40.5 16.5t40.5 -16.5t16.5 -40.5q0 -14 -4 -23z" />
<glyph unicode="-" horiz-adv-x="271" d="M241 201h-211v68h211v-68z" />
<glyph unicode="." horiz-adv-x="190" d="M38 47q0 24 16.5 40.5t40.5 16.5t40.5 -16.5t16.5 -40.5t-16.5 -40.5t-40.5 -16.5t-40.5 16.5t-16.5 40.5z" />
<glyph unicode="/" horiz-adv-x="307" d="M293 800l-231 -951h-48l232 951h47z" />
<glyph unicode="0" d="M275 -2h-115q-46 0 -75.5 29.5t-29.5 75.5v494q0 47 29.5 76t75.5 29h115q47 0 76 -29t29 -76v-494q0 -46 -29 -75.5t-76 -29.5zM155 71h125q25 0 25 25v508q0 25 -25 25h-125q-25 0 -25 -25v-508q0 -25 25 -25z" />
<glyph unicode="1" horiz-adv-x="333" d="M316 0h-275v71h100v558h-100v71h175v-629h100v-71z" />
<glyph unicode="2" d="M130 71h250v-71h-325v126q0 56 24 85l214 274q12 15 12 32v87q0 25 -25 25h-125q-25 0 -25 -25v-104h-75v97q0 47 29.5 76t75.5 29h115q47 0 76 -29t29 -76v-63q0 -56 -24 -85l-214 -274q-12 -15 -12 -32v-72z" />
<glyph unicode="3" d="M275 -2h-115q-46 0 -75.5 29.5t-29.5 75.5v84h75v-91q0 -25 25 -25h125q25 0 25 25v213q0 11 -7 18.5t-18 7.5h-140v71h140q25 0 25 25v173q0 25 -25 25h-125q-25 0 -25 -25v-91h-75v84q0 47 29.5 76t75.5 29h115q47 0 76 -29t29 -76v-146q0 -63 -50 -81v-2 q50 -18 50 -81v-184q0 -46 -29 -75.5t-76 -29.5z" />
<glyph unicode="4" horiz-adv-x="432" d="M391 165h-50v-165h-75v165h-225v60l225 475h75v-464h50v-71zM266 236v323l-3 -9l-143 -314h146z" />
<glyph unicode="5" d="M275 -2h-115q-46 0 -75.5 29.5t-29.5 75.5v85h75v-92q0 -25 25 -25h125q25 0 25 25v278q0 25 -25 25h-125q-25 0 -25 -25v-42h-75v368h315v-71h-240v-159l-2 -50h2q20 50 83 50h62q47 0 76 -29t29 -76v-262q0 -46 -29 -75.5t-76 -29.5z" />
<glyph unicode="6" d="M275 -2h-115q-46 0 -75.5 29.5t-29.5 75.5v494q0 47 29.5 76t75.5 29h115q47 0 76 -29t29 -76v-72h-75v79q0 25 -25 25h-125q-25 0 -25 -25v-198l-2 -50h2q19 52 83 52h62q47 0 76 -29t29 -76v-200q0 -47 -29 -76t-76 -29zM280 335h-125q-25 0 -25 -25v-214q0 -25 25 -25 h125q25 0 25 25v214q0 25 -25 25z" />
<glyph unicode="7" horiz-adv-x="393" d="M352 625l-144 -625h-81l151 629h-176v-117h-75v188h325v-75z" />
<glyph unicode="8" d="M105 369v2q-50 18 -50 81v143q0 47 29.5 76t75.5 29h115q47 0 76 -29t29 -76v-143q0 -63 -50 -81v-2q50 -18 50 -81v-183q0 -46 -29 -75.5t-76 -29.5h-115q-46 0 -75.5 29.5t-29.5 75.5v183q0 63 50 81zM280 629h-125q-25 0 -25 -25v-173q0 -25 25 -25h125q25 0 25 25 v173q0 25 -25 25zM280 335h-125q-25 0 -25 -25v-214q0 -25 25 -25h125q25 0 25 25v214q0 25 -25 25z" />
<glyph unicode="9" d="M275 -2h-115q-46 0 -75.5 29.5t-29.5 75.5v72h75v-79q0 -25 25 -25h125q25 0 25 25v198l2 50h-2q-19 -52 -83 -52h-62q-47 0 -76 29t-29 76v200q0 47 29 76t76 29h115q47 0 76 -29t29 -76v-494q0 -46 -29 -75.5t-76 -29.5zM305 390v214q0 25 -25 25h-125q-25 0 -25 -25 v-214q0 -25 25 -25h125q25 0 25 25z" />
<glyph unicode=":" horiz-adv-x="190" d="M38 47q0 24 16.5 40.5t40.5 16.5t40.5 -16.5t16.5 -40.5t-16.5 -40.5t-40.5 -16.5t-40.5 16.5t-16.5 40.5zM38 437q0 24 16.5 40.5t40.5 16.5t40.5 -16.5t16.5 -40.5t-16.5 -40.5t-40.5 -16.5t-40.5 16.5t-16.5 40.5z" />
<glyph unicode=";" horiz-adv-x="190" d="M148 24l-64 -138h-41l36 107q-16 2 -28.5 17t-12.5 37q0 24 16.5 40.5t40.5 16.5t40.5 -16.5t16.5 -40.5q0 -14 -4 -23zM38 437q0 24 16.5 40.5t40.5 16.5t40.5 -16.5t16.5 -40.5t-16.5 -40.5t-40.5 -16.5t-40.5 16.5t-16.5 40.5z" />
<glyph unicode="&#x3c;" horiz-adv-x="460" d="M430 440v-48l-362 -158l362 -157v-48l-400 173v65z" />
<glyph unicode="=" horiz-adv-x="460" d="M430 303h-400v43h400v-43zM430 123h-400v43h400v-43z" />
<glyph unicode="&#x3e;" horiz-adv-x="460" d="M30 440l400 -173v-65l-400 -173v48l362 157l-362 158v48z" />
<glyph unicode="?" horiz-adv-x="385" d="M314 437l-115 -117q-8 -8 -8 -19t8 -19l58 -58l-51 -50l-56 54q-31 31 -31 68q0 45 32 75l117 116q12 12 12 32v85q0 25 -25 25h-125q-25 0 -25 -25v-92h-75v88q0 42 30 71t75 29h115q46 0 75.5 -29t29.5 -75v-69q0 -49 -41 -90zM136 47q0 24 16.5 40.5t40.5 16.5 t40.5 -16.5t16.5 -40.5t-16.5 -40.5t-40.5 -16.5t-40.5 16.5t-16.5 40.5z" />
<glyph unicode="@" horiz-adv-x="574" d="M55 120v232q-2 100 67.5 172t164.5 70q94 2 164 -70.5t68 -171.5v-287q0 -67 -66 -67h-20q-59 0 -76 47h-2q-17 -47 -76 -47h-38q-40 0 -67.5 27.5t-27.5 67.5v284q0 41 27.5 68t67.5 27h38q63 0 77 -47h2v45h66v-417q0 -22 22 -22h11q31 0 31 31v290q0 89 -59 151 t-142 62t-142 -62t-59 -151v-232q0 -90 58.5 -151.5t142.5 -61.5q57 0 103 28l13 -25q-55 -32 -116 -32q-95 -2 -164.5 70t-67.5 172zM356 86v298q0 22 -22 22h-98q-22 0 -22 -22v-298q0 -22 22 -22h98q22 0 22 22z" />
<glyph unicode="A" horiz-adv-x="426" d="M333 0l-24 115h-192l-24 -115h-76l150 700h92l150 -700h-76zM131 186h164l-80 387l-2 19l-2 -19z" />
<glyph unicode="B" d="M275 0h-220v700h220q47 0 76 -29t29 -76v-143q0 -63 -50 -81v-2q50 -18 50 -81v-183q0 -47 -29 -76t-76 -29zM305 430v174q0 25 -25 25h-150v-224h150q25 0 25 25zM305 96v214q0 25 -25 25h-150v-264h150q25 0 25 25z" />
<glyph unicode="C" d="M275 -2h-115q-46 0 -75.5 29.5t-29.5 75.5v494q0 47 29.5 76t75.5 29h115q47 0 76 -29t29 -76v-85h-75v92q0 25 -25 25h-125q-25 0 -25 -25v-508q0 -25 25 -25h125q25 0 25 25v92h75v-85q0 -46 -29 -75.5t-76 -29.5z" />
<glyph unicode="D" d="M275 0h-220v700h220q47 0 76 -29t29 -76v-490q0 -46 -29 -75.5t-76 -29.5zM305 96v508q0 25 -25 25h-150v-558h150q25 0 25 25z" />
<glyph unicode="E" horiz-adv-x="360" d="M330 0h-275v700h275v-71h-200v-223h150v-71h-150v-264h200v-71z" />
<glyph unicode="F" horiz-adv-x="360" d="M330 629h-200v-223h150v-72h-150v-334h-75v700h275v-71z" />
<glyph unicode="G" d="M275 -2h-115q-46 0 -75.5 29.5t-29.5 75.5v494q0 47 29.5 76t75.5 29h115q47 0 76 -29t29 -76v-97h-75v104q0 25 -25 25h-125q-25 0 -25 -25v-508q0 -25 25 -25h125q25 0 25 25v189h-88v71h163v-253q0 -46 -29 -75.5t-76 -29.5z" />
<glyph unicode="H" d="M380 0h-75v335h-175v-335h-75v700h75v-294h175v294h75v-700z" />
<glyph unicode="I" horiz-adv-x="185" d="M130 0h-75v700h75v-700z" />
<glyph unicode="J" horiz-adv-x="386" d="M226 -2h-90q-46 0 -75.5 29.5t-29.5 75.5v97h75v-104q0 -25 25 -25h100q25 0 25 25v604h75v-597q0 -46 -29 -75.5t-76 -29.5z" />
<glyph unicode="K" horiz-adv-x="437" d="M431 0h-86l-139 301l-76 -143v-158h-75v700h75v-409l207 409h83l-169 -321z" />
<glyph unicode="L" horiz-adv-x="360" d="M330 0h-275v700h75v-629h200v-71z" />
<glyph unicode="M" horiz-adv-x="553" d="M498 0h-75v537l-3 -16l-129 -471h-32l-126 471l-3 16v-537h-75v700h101l119 -442l122 442h101v-700z" />
<glyph unicode="N" d="M380 0h-63l-184 510l-3 12v-522h-75v700h83l164 -463l3 -13v476h75v-700z" />
<glyph unicode="O" d="M275 -2h-115q-46 0 -75.5 29.5t-29.5 75.5v494q0 47 29.5 76t75.5 29h115q47 0 76 -29t29 -76v-494q0 -46 -29 -75.5t-76 -29.5zM280 629h-125q-25 0 -25 -25v-508q0 -25 25 -25h125q25 0 25 25v508q0 25 -25 25z" />
<glyph unicode="P" horiz-adv-x="420" d="M275 270h-145v-270h-75v700h220q47 0 76 -29t29 -76v-220q0 -47 -29 -76t-76 -29zM280 629h-150v-288h150q25 0 25 25v238q0 25 -25 25z" />
<glyph unicode="Q" d="M275 -2h-20v-52q0 -25 25 -25h25v-71h-15q-50 0 -80 29t-30 76v43h-20q-46 0 -75.5 29.5t-29.5 75.5v494q0 47 29.5 76t75.5 29h115q47 0 76 -29t29 -76v-494q0 -46 -29 -75.5t-76 -29.5zM155 71h125q25 0 25 25v508q0 25 -25 25h-125q-25 0 -25 -25v-508q0 -25 25 -25z " />
<glyph unicode="R" d="M389 0h-80l-74 295h-105v-295h-75v700h220q47 0 76 -29t29 -76v-195q0 -37 -19.5 -64t-52.5 -37zM130 629v-263h150q25 0 25 25v213q0 25 -25 25h-150z" />
<glyph unicode="S" d="M293 236l-201 200q-37 34 -37 95v66q0 45 30 75t75 30h115q45 0 75 -30t30 -75v-97h-75v104q0 25 -25 25h-125q-25 0 -25 -25v-84q0 -20 12 -32l201 -200q37 -34 37 -96v-89q0 -45 -30 -75t-75 -30h-115q-45 0 -75 30t-30 75v97h75v-104q0 -25 25 -25h125q25 0 25 25v107 q0 21 -12 33z" />
<glyph unicode="T" horiz-adv-x="385" d="M355 629h-125v-629h-75v629h-125v71h325v-71z" />
<glyph unicode="U" d="M275 -2h-115q-45 0 -75 30t-30 75v597h75v-604q0 -25 25 -25h125q25 0 25 25v604h75v-597q0 -45 -30 -75t-75 -30z" />
<glyph unicode="V" horiz-adv-x="426" d="M259 0h-92l-150 700h76l118 -573l2 -19l2 19l118 573h76z" />
<glyph unicode="W" horiz-adv-x="659" d="M642 700l-120 -700h-96l-95 553l-2 17l-2 -17l-94 -553h-96l-120 700h75l95 -576l2 -18l2 18l95 576h88l94 -576l2 -18l2 18l97 576h73z" />
<glyph unicode="X" horiz-adv-x="432" d="M425 0h-85l-122 291l-2 8l-2 -8l-121 -291h-86l167 366l-151 334h82l109 -259l2 -8l2 8l110 259h81l-150 -334z" />
<glyph unicode="Y" horiz-adv-x="398" d="M386 700l-151 -430v-270h-74v270l-149 430h79l106 -339l2 -10l2 10l107 339h78z" />
<glyph unicode="Z" horiz-adv-x="393" d="M363 0h-333v75l242 550h-234v75h317v-75l-243 -550h251v-75z" />
<glyph unicode="[" horiz-adv-x="237" d="M210 -151h-155v951h155v-49h-107v-853h107v-49z" />
<glyph unicode="\" horiz-adv-x="307" d="M14 800h47l232 -951h-48z" />
<glyph unicode="]" horiz-adv-x="284" d="M27 -151v49h107v853h-107v49h155v-951h-155z" />
<glyph unicode="^" horiz-adv-x="290" d="M266 551l-36 -36l-85 86l-85 -86l-36 36l121 120z" />
<glyph unicode="_" horiz-adv-x="450" d="M450 -131h-450v30h450v-30z" />
<glyph unicode="`" horiz-adv-x="250" d="M38 648h91l83 -125h-59z" />
<glyph unicode="a" horiz-adv-x="378" d="M323 0h-66v38h-2q-12 -40 -64 -40h-44q-47 0 -74.5 26.5t-27.5 73.5v84q0 100 100 100h46q52 0 64 -40h2l-2 38v99q0 16 -5.5 21.5t-21.5 5.5h-149v64h144q48 0 74 -26t26 -74v-370zM228 216h-88q-16 0 -21.5 -6t-5.5 -21v-98q0 -16 5.5 -21.5t21.5 -5.5h88 q16 0 21.5 5.5t5.5 21.5v98q0 15 -5.5 21t-21.5 6z" />
<glyph unicode="b" horiz-adv-x="388" d="M121 0h-66v700h68v-230l-2 -45h2q17 47 77 47h38q43 0 69 -26.5t26 -68.5v-284q0 -42 -26 -68.5t-69 -26.5h-38q-59 0 -77 47h-2v-45zM265 86v298q0 22 -22 22h-98q-22 0 -22 -22v-298q0 -22 22 -22h98q22 0 22 22z" />
<glyph unicode="c" horiz-adv-x="388" d="M238 -2h-88q-40 0 -67.5 27.5t-27.5 67.5v284q0 41 27.5 68t67.5 27h88q42 0 68.5 -27t26.5 -68v-75h-68v82q0 22 -22 22h-98q-22 0 -22 -22v-298q0 -22 22 -22h98q22 0 22 22v83h68v-76q0 -41 -26.5 -68t-68.5 -27z" />
<glyph unicode="d" horiz-adv-x="388" d="M333 0h-66v45h-2q-18 -47 -77 -47h-38q-43 0 -69 26.5t-26 68.5v284q0 42 26 68.5t69 26.5h38q60 0 77 -47h2l-2 45v230h68v-700zM265 86v298q0 22 -22 22h-98q-22 0 -22 -22v-298q0 -22 22 -22h98q22 0 22 22z" />
<glyph unicode="e" horiz-adv-x="388" d="M333 195h-210v-109q0 -22 22 -22h155v-64h-150q-42 0 -68.5 26.5t-26.5 68.5v282q0 42 26.5 68.5t68.5 26.5h88q43 0 69 -26.5t26 -68.5v-182zM265 259v125q0 22 -22 22h-98q-22 0 -22 -22v-125h142z" />
<glyph unicode="f" horiz-adv-x="269" d="M242 406h-90v-406h-68v406h-70v64h70v135q0 42 26 68.5t69 26.5h63v-64h-68q-22 0 -22 -22v-144h90v-64z" />
<glyph unicode="g" horiz-adv-x="388" d="M238 -150h-127v64h132q22 0 22 22v65l2 44h-2q-17 -47 -77 -47h-38q-42 0 -68.5 26.5t-26.5 68.5v284q0 42 26.5 68.5t68.5 26.5h38q63 0 77 -47h2v45h66v-525q0 -41 -26.5 -68t-68.5 -27zM243 406h-98q-22 0 -22 -22v-298q0 -22 22 -22h98q22 0 22 22v298q0 22 -22 22z " />
<glyph unicode="h" horiz-adv-x="388" d="M333 0h-68v384q0 22 -22 22h-98q-22 0 -22 -22v-384h-68v700h68v-230l-2 -45h2q17 47 77 47h38q42 0 68.5 -26.5t26.5 -68.5v-377z" />
<glyph unicode="i" horiz-adv-x="178" d="M44 586q0 19 13.5 32.5t32.5 13.5t32.5 -13.5t13.5 -32.5t-13.5 -32.5t-32.5 -13.5t-32.5 13.5t-13.5 32.5zM123 0h-68v470h68v-470z" />
<glyph unicode="j" horiz-adv-x="178" d="M44 586q0 19 13.5 32.5t32.5 13.5t32.5 -13.5t13.5 -32.5t-13.5 -32.5t-32.5 -13.5t-32.5 13.5t-13.5 32.5zM28 -150h-28v64h33q22 0 22 22v534h68v-525q0 -41 -26.5 -68t-68.5 -27z" />
<glyph unicode="k" horiz-adv-x="348" d="M343 0h-78l-79 211l-63 -112v-99h-68v700h68v-490l4 11l138 249h74l-105 -185z" />
<glyph unicode="l" horiz-adv-x="178" d="M123 0h-68v700h68v-700z" />
<glyph unicode="m" horiz-adv-x="568" d="M513 0h-68v384q0 22 -22 22h-83q-22 0 -22 -22v-384h-68v384q0 22 -22 22h-83q-22 0 -22 -22v-384h-68v470h66v-45h2q17 47 77 47h31q62 0 76 -50h2q14 50 76 50h33q44 0 69.5 -25.5t25.5 -69.5v-377z" />
<glyph unicode="n" horiz-adv-x="388" d="M333 0h-68v384q0 22 -22 22h-98q-22 0 -22 -22v-384h-68v470h66v-45h2q17 47 77 47h38q44 0 69.5 -25.5t25.5 -69.5v-377z" />
<glyph unicode="o" horiz-adv-x="388" d="M238 -2h-88q-42 0 -68.5 26.5t-26.5 68.5v284q0 43 26.5 69t68.5 26h88q44 0 69.5 -25.5t25.5 -69.5v-284q0 -42 -26 -68.5t-69 -26.5zM243 406h-98q-22 0 -22 -22v-298q0 -22 22 -22h98q22 0 22 22v298q0 22 -22 22z" />
<glyph unicode="p" horiz-adv-x="388" d="M123 -150h-68v620h66v-45h2q18 47 77 47h38q43 0 69 -26.5t26 -68.5v-284q0 -42 -26 -68.5t-69 -26.5h-38q-60 0 -77 47h-2l2 -45v-150zM145 64h98q22 0 22 22v298q0 22 -22 22h-98q-22 0 -22 -22v-298q0 -22 22 -22z" />
<glyph unicode="q" horiz-adv-x="388" d="M333 -150h-68v150l2 45h-2q-17 -47 -77 -47h-38q-43 0 -69 26.5t-26 68.5v284q0 42 26 68.5t69 26.5h38q59 0 77 -47h2v45h66v-620zM265 86v298q0 22 -22 22h-98q-22 0 -22 -22v-298q0 -22 22 -22h98q22 0 22 22z" />
<glyph unicode="r" horiz-adv-x="256" d="M243 406h-98q-22 0 -22 -22v-384h-68v470h66v-45h2q17 47 77 47h43v-66z" />
<glyph unicode="s" horiz-adv-x="388" d="M238 -2h-88q-42 0 -68.5 26.5t-26.5 68.5v55h68v-62q0 -22 22 -22h98q22 0 22 22v64q0 17 -14 24l-136 66q-60 28 -60 85v52q0 42 26.5 68.5t68.5 26.5h88q43 0 69 -26.5t26 -68.5v-55h-68v62q0 22 -22 22h-98q-22 0 -22 -22v-59q0 -17 14 -25l136 -66q60 -28 60 -85v-56 q0 -42 -26 -68.5t-69 -26.5z" />
<glyph unicode="t" horiz-adv-x="269" d="M242 0h-63q-42 0 -68.5 26.5t-26.5 68.5v311h-70v64h70v140h68v-140h90v-64h-90v-320q0 -22 22 -22h68v-64z" />
<glyph unicode="u" horiz-adv-x="388" d="M55 470h68v-384q0 -22 22 -22h98q22 0 22 22v384h68v-470h-66v45h-2q-17 -47 -72 -47h-43q-42 0 -68.5 26.5t-26.5 68.5v377z" />
<glyph unicode="v" horiz-adv-x="364" d="M347 470l-118 -470h-94l-118 470h71l92 -384l2 -13l2 13l92 384h71z" />
<glyph unicode="w" horiz-adv-x="540" d="M523 470l-98 -470h-80l-73 344l-2 14l-2 -14l-73 -344h-80l-98 470h71l71 -361l2 -15l2 15l72 361h70l72 -361l2 -15l2 15l71 361h71z" />
<glyph unicode="x" horiz-adv-x="364" d="M347 0h-79l-84 182l-2 7l-2 -7l-85 -182h-78l122 232l-122 238h78l85 -185l2 -7l2 7l84 185h79l-122 -238z" />
<glyph unicode="y" horiz-adv-x="363" d="M346 470l-174 -620h-74l47 150l-128 470h70l92 -366l2 -13l2 13l92 366h71z" />
<glyph unicode="z" horiz-adv-x="332" d="M305 0h-278v68l193 338h-185v64h263v-68l-191 -338h198v-64z" />
<glyph unicode="{" horiz-adv-x="251" d="M235 -102v-49h-92q-26 0 -44.5 19t-18.5 45v375q0 13 -13 13h-51v48h51q13 0 13 13v374q0 26 18.5 45t44.5 19h92v-49h-95q-12 0 -12 -12v-362q0 -42 -37 -51v-2q37 -9 37 -52v-362q0 -12 12 -12h95z" />
<glyph unicode="|" horiz-adv-x="140" d="M85 -150h-30v1000h30v-1000z" />
<glyph unicode="}" horiz-adv-x="251" d="M16 -102h95q12 0 12 12v362q0 43 37 52v2q-37 9 -37 51v362q0 12 -12 12h-95v49h92q26 0 44.5 -19t18.5 -45v-374q0 -13 13 -13h51v-48h-51q-13 0 -13 -13v-375q0 -26 -18.5 -45t-44.5 -19h-92v49z" />
<glyph unicode="~" horiz-adv-x="324" d="M24 570l59 60q13 15 34 15t36 -15l51 -51q4 -4 8 0l54 54l34 -35l-57 -58q-13 -15 -34 -15t-36 15l-51 51q-4 4 -8 0l-55 -55z" />
<glyph unicode="&#xa1;" horiz-adv-x="222" d="M168 503q0 -24 -16.5 -40.5t-40.5 -16.5t-40.5 16.5t-16.5 40.5t16.5 40.5t40.5 16.5t40.5 -16.5t16.5 -40.5zM88 375h45l25 -525h-95z" />
<glyph unicode="&#xa2;" d="M155 161h125q25 0 25 25v86h75v-77q0 -46 -29 -75.5t-76 -29.5h-25v-100h-65v100h-25q-46 0 -75.5 29.5t-29.5 75.5v310q0 47 29.5 76t75.5 29h25v100h65v-100h25q47 0 76 -29t29 -76v-74h-75v83q0 25 -25 25h-125q-25 0 -25 -25v-328q0 -25 25 -25z" />
<glyph unicode="&#xa3;" horiz-adv-x="454" d="M303 0h-272v71h12q19 0 30 11t11 30v203h-53v71h53v211q0 47 29.5 76t76.5 29h63q47 0 76 -29t29 -76v-72h-74v79q0 25 -25 25h-75q-25 0 -25 -25v-218h124v-71h-124v-154q0 -32 -14 -55.5t-33 -32.5v-2h197q25 0 25 25v79h74v-70q0 -47 -29 -76t-76 -29z" />
<glyph unicode="&#xa4;" horiz-adv-x="511" d="M388 265l83 -83l-48 -48l-83 83q-38 -24 -84 -24q-47 0 -84 25l-82 -82l-48 48l82 82q-25 37 -25 84q0 46 24 84l-83 83l48 48l83 -83q37 25 85 25q47 0 84 -25l85 85l48 -48l-85 -85q25 -37 25 -84q0 -48 -25 -85zM349 350q0 38 -27.5 65.5t-65.5 27.5t-65.5 -27.5 t-27.5 -65.5t27.5 -65.5t65.5 -27.5t65.5 27.5t27.5 65.5z" />
<glyph unicode="&#xa5;" horiz-adv-x="398" d="M386 700l-118 -335h107v-65h-129l-11 -30v-30h140v-65h-140v-175h-74v175h-138v65h138v30l-10 30h-128v65h105l-116 335h79l106 -339l2 -10l2 10l107 339h78z" />
<glyph unicode="&#xa6;" horiz-adv-x="140" d="M85 400h-30v450h30v-450zM85 -150h-30v450h30v-450z" />
<glyph unicode="&#xa7;" horiz-adv-x="388" d="M215 -2h-42q-43 0 -69 26t-26 69v56h68v-63q0 -22 22 -22h52q22 0 22 22v90q0 15 -13 21l-99 47q-39 18 -57 40t-18 56v38q0 66 57 87v2q-34 25 -34 87v53q0 43 26 69t69 26h42q43 0 69 -26t26 -69v-55h-68v62q0 22 -22 22h-52q-22 0 -22 -22v-79q0 -15 13 -21l99 -47 q39 -18 57 -40t18 -56v-40q0 -66 -57 -87v-2q34 -25 34 -87v-62q0 -43 -26 -69t-69 -26zM250 402l-92 43q-6 3 -11 3q-10 0 -17 -8t-7 -20v-88q0 -17 15 -23l92 -43q6 -3 11 -3q10 0 17 8t7 20v88q0 17 -15 23z" />
<glyph unicode="&#xa8;" horiz-adv-x="310" d="M38 586q0 19 13.5 32.5t32.5 13.5t32.5 -13.5t13.5 -32.5t-13.5 -32.5t-32.5 -13.5t-32.5 13.5t-13.5 32.5zM180 586q0 19 13.5 32.5t32.5 13.5t32.5 -13.5t13.5 -32.5t-13.5 -32.5t-32.5 -13.5t-32.5 13.5t-13.5 32.5z" />
<glyph unicode="&#xa9;" horiz-adv-x="797" d="M40 350q-2 152 102 256.5t256 102.5q152 2 256.5 -102.5t102.5 -256.5q2 -152 -102.5 -256.5t-256.5 -102.5q-152 -2 -256 102.5t-102 256.5zM727 350q2 139 -94 235t-235 94q-139 2 -235 -94t-94 -235q-2 -139 94 -235t235 -94q139 -2 235 94t94 235zM484 146h-170 q-27 0 -45.5 19t-18.5 45v280q0 26 18.5 45t45.5 19h170q27 0 45.5 -19t18.5 -45v-56h-48v62q0 11 -12 11h-178q-12 0 -12 -11v-292q0 -11 12 -11h178q12 0 12 11v62h48v-56q0 -26 -18.5 -45t-45.5 -19z" />
<glyph unicode="&#xaa;" horiz-adv-x="362" d="M307 280h-62v38h-2q-4 -17 -21.5 -28.5t-40.5 -11.5h-33q-40 0 -67.5 26.5t-27.5 66.5v72q0 44 25.5 68.5t67.5 24.5h35q23 0 40.5 -11.5t21.5 -28.5h2l-2 38v79q0 11 -7.5 18.5t-18.5 7.5h-117v61h114q41 0 67 -26t26 -67v-327zM243 368v78q0 11 -7.5 18.5t-18.5 7.5 h-74q-11 0 -18.5 -7.5t-7.5 -18.5v-78q0 -11 7.5 -18.5t18.5 -7.5h74q11 0 18.5 7.5t7.5 18.5zM307 132h-252v64h252v-64z" />
<glyph unicode="&#xab;" horiz-adv-x="372" d="M206 81h-50l-145 154l145 154h50l-105 -154zM361 81h-50l-145 154l145 154h50l-105 -154z" />
<glyph unicode="&#xac;" horiz-adv-x="460" d="M419 111h-45v192h-344v43h389v-235z" />
<glyph unicode="&#xad;" horiz-adv-x="271" d="M241 201h-211v68h211v-68z" />
<glyph unicode="&#xae;" horiz-adv-x="438" d="M398 529q0 -77 -51 -128t-128 -51t-128 51t-51 128t51 128.5t128 51.5t128 -51.5t51 -128.5zM374 529q0 67 -44 111t-111 44t-111 -44t-44 -111q0 -65 44 -109.5t111 -44.5t111 44.5t44 109.5zM262 501h-8l46 -71h-37l-44 71h-43v-71h-32v199h119q14 0 23 -9t9 -23v-60 q0 -15 -9.5 -25.5t-23.5 -10.5zM176 599v-68h82q5 0 5 5v58q0 5 -5 5h-82z" />
<glyph unicode="&#xaf;" horiz-adv-x="284" d="M246 559h-208v50h208v-50z" />
<glyph unicode="&#xb0;" horiz-adv-x="248" d="M28 616q0 41 28.5 69t68.5 28q39 0 67 -28.5t28 -68.5q0 -39 -28 -67t-67 -28q-40 0 -68.5 28t-28.5 67zM65 616q0 -25 17.5 -42.5t42.5 -17.5t42.5 17.5t17.5 42.5t-17.5 42.5t-42.5 17.5t-42.5 -17t-17.5 -43z" />
<glyph unicode="&#xb1;" horiz-adv-x="460" d="M30 42h175v182h-175v43h175v179h45v-179h180v-43h-180v-182h180v-43h-400v43z" />
<glyph unicode="&#xb2;" horiz-adv-x="295" d="M95 373h155v-53h-210v55q0 39 27 66l128 133q5 7 5 20v43q0 10 -10 10h-85q-10 0 -10 -10v-56h-55v52q0 32 18.5 50t49.5 18h79q32 0 50 -18t18 -50v-35q0 -36 -24 -60l-131 -136q-5 -7 -5 -20v-9z" />
<glyph unicode="&#xb3;" horiz-adv-x="295" d="M187 319h-79q-31 0 -49.5 18.5t-18.5 49.5v38h55v-42q0 -10 10 -10h85q10 0 10 10v103q0 10 -10 10h-80v53h80q10 0 10 10v78q0 10 -10 10h-85q-10 0 -10 -10v-42h-55v38q0 32 18.5 50t49.5 18h79q32 0 50 -18t18 -50v-62q0 -38 -35 -49v-2q35 -11 35 -48v-85 q0 -31 -18 -49.5t-50 -18.5z" />
<glyph unicode="&#xb4;" horiz-adv-x="250" d="M212 647l-115 -125h-59l83 125h91z" />
<glyph unicode="&#xb5;" horiz-adv-x="388" d="M123 -150h-68v620h68v-384q0 -22 22 -22h98q22 0 22 22v384h68v-470h-66v45h-2q-17 -48 -70 -48h-2q-53 0 -70 48h-2l2 -45v-150z" />
<glyph unicode="&#xb6;" horiz-adv-x="394" d="M339 -151h-43v808h-58v-808h-43v512q-70 0 -120 50t-50 120q0 69 50 119t120 50h144v-851z" />
<glyph unicode="&#xb7;" horiz-adv-x="190" d="M38 235q0 24 16.5 40.5t40.5 16.5t40.5 -16.5t16.5 -40.5t-16.5 -40.5t-40.5 -16.5t-40.5 16.5t-16.5 40.5z" />
<glyph unicode="&#xb8;" horiz-adv-x="212" d="M135 -150h-97v50h86v30h-61v110h50v-65h38q10 0 16.5 -6.5t6.5 -16.5v-62q0 -17 -11.5 -28.5t-27.5 -11.5z" />
<glyph unicode="&#xb9;" horiz-adv-x="239" d="M212 320h-185v53h65v274h-65v53h120v-327h65v-53z" />
<glyph unicode="&#xba;" horiz-adv-x="363" d="M215 278h-67q-40 0 -66.5 26.5t-26.5 66.5v238q0 41 26.5 67t66.5 26h67q41 0 67 -26t26 -67v-238q0 -40 -26 -66.5t-67 -26.5zM243 367v246q0 25 -25 25h-73q-25 0 -25 -25v-246q0 -25 25 -25h73q25 0 25 25zM55 196h252v-64h-252v64z" />
<glyph unicode="&#xbb;" horiz-adv-x="372" d="M11 81l105 154l-105 154h50l145 -154l-145 -154h-50zM166 81l105 154l-105 154h50l145 -154l-145 -154h-50z" />
<glyph unicode="&#xbc;" horiz-adv-x="557" d="M212 320h-185v53h65v274h-65v53h120v-327h65v-53zM416 700l-232 -700h-49l232 700h49zM530 72h-30v-72h-55v72h-145v51l142 257h58v-255h30v-53zM445 125v162l-89 -162h89z" />
<glyph unicode="&#xbd;" horiz-adv-x="608" d="M212 320h-185v53h65v274h-65v53h120v-327h65v-53zM416 700l-232 -700h-49l232 700h49zM408 53h155v-53h-210v55q0 39 27 66l128 133q5 7 5 20v43q0 10 -10 10h-85q-10 0 -10 -10v-56h-55v52q0 32 18.5 50t49.5 18h79q32 0 50 -18t18 -50v-35q0 -36 -24 -60l-131 -136 q-5 -7 -5 -20v-9z" />
<glyph unicode="&#xbe;" horiz-adv-x="613" d="M187 319h-79q-31 0 -49.5 18.5t-18.5 49.5v38h55v-42q0 -10 10 -10h85q10 0 10 10v103q0 10 -10 10h-80v53h80q10 0 10 10v78q0 10 -10 10h-85q-10 0 -10 -10v-42h-55v38q0 32 18.5 50t49.5 18h79q32 0 50 -18t18 -50v-62q0 -38 -35 -49v-2q35 -11 35 -48v-85 q0 -31 -18 -49.5t-50 -18.5zM472 700l-232 -700h-49l232 700h49zM586 72h-30v-72h-55v72h-145v51l142 257h58v-255h30v-53zM501 125v162l-89 -162h89z" />
<glyph unicode="&#xbf;" horiz-adv-x="385" d="M249 503q0 -24 -16.5 -40.5t-40.5 -16.5t-40.5 16.5t-16.5 40.5t16.5 40.5t40.5 16.5t40.5 -16.5t16.5 -40.5zM71 113l115 117q8 8 8 19t-8 19l-58 58l51 50l56 -54q31 -31 31 -68q0 -45 -32 -75l-117 -116q-12 -12 -12 -32v-85q0 -25 25 -25h125q25 0 25 25v92h75v-88 q0 -42 -30 -71t-75 -29h-115q-46 0 -75.5 29t-29.5 75v69q0 49 41 90z" />
<glyph unicode="&#xc0;" horiz-adv-x="426" d="M333 0l-24 115h-192l-24 -115h-76l150 700h92l150 -700h-76zM131 186h164l-80 387l-2 19l-2 -19zM90 878h91l83 -125h-59z" />
<glyph unicode="&#xc1;" horiz-adv-x="426" d="M333 0l-24 115h-192l-24 -115h-76l150 700h92l150 -700h-76zM131 186h164l-80 387l-2 19l-2 -19zM334 877l-115 -125h-59l83 125h91z" />
<glyph unicode="&#xc2;" horiz-adv-x="426" d="M333 0l-24 115h-192l-24 -115h-76l150 700h92l150 -700h-76zM131 186h164l-80 387l-2 19l-2 -19zM327 753h-49l-68 81l-68 -81h-49l73 125h88z" />
<glyph unicode="&#xc3;" horiz-adv-x="426" d="M333 0l-24 115h-192l-24 -115h-76l150 700h92l150 -700h-76zM131 186h164l-80 387l-2 19l-2 -19zM74 801l56 57q18 18 43 18q24 0 42 -18l33 -32q8 -8 16 -8q5 0 16 8l38 39l34 -35l-56 -57q-18 -18 -43 -18q-24 0 -42 18l-33 32q-8 8 -16 8t-16 -8l-38 -39z" />
<glyph unicode="&#xc4;" horiz-adv-x="426" d="M333 0l-24 115h-192l-24 -115h-76l150 700h92l150 -700h-76zM131 186h164l-80 387l-2 19l-2 -19zM95 816q0 19 13.5 32.5t32.5 13.5t32.5 -13.5t13.5 -32.5t-13.5 -32.5t-32.5 -13.5t-32.5 13.5t-13.5 32.5zM237 816q0 19 13.5 32.5t32.5 13.5t32.5 -13.5t13.5 -32.5 t-13.5 -32.5t-32.5 -13.5t-32.5 13.5t-13.5 32.5z" />
<glyph unicode="&#xc5;" horiz-adv-x="426" d="M333 0l-24 115h-192l-24 -115h-76l150 700h92l150 -700h-76zM131 186h164l-80 387l-2 19l-2 -19zM135 816q0 33 22 55t56 22q33 0 55 -22t22 -55q0 -34 -22 -56t-55 -22q-34 0 -56 22t-22 56zM254 816q0 18 -11.5 29.5t-29.5 11.5t-29.5 -11.5t-11.5 -29.5t11.5 -29.5 t29.5 -11.5t29.5 11.5t11.5 29.5z" />
<glyph unicode="&#xc6;" horiz-adv-x="645" d="M614 629h-200v-223h150v-71h-150v-264h200v-71h-275v115h-198l-49 -115h-83l307 700h298v-71zM171 186h168v397l-2 -8z" />
<glyph unicode="&#xc7;" d="M380 512h-75v92q0 25 -25 25h-125q-25 0 -25 -25v-508q0 -25 25 -25h125q25 0 25 25v92h75v-85q0 -46 -29 -75.5t-76 -29.5h-51v-23h38q10 0 16.5 -6.5t6.5 -16.5v-62q0 -17 -11.5 -28.5t-27.5 -11.5h-97v50h86v30h-61v68h-14q-46 0 -75.5 29.5t-29.5 75.5v494 q0 47 29.5 76t75.5 29h115q47 0 76 -29t29 -76v-85z" />
<glyph unicode="&#xc8;" horiz-adv-x="360" d="M330 0h-275v700h275v-71h-200v-223h150v-71h-150v-264h200v-71zM70 878h91l83 -125h-59z" />
<glyph unicode="&#xc9;" horiz-adv-x="360" d="M330 0h-275v700h275v-71h-200v-223h150v-71h-150v-264h200v-71zM314 877l-115 -125h-59l83 125h91z" />
<glyph unicode="&#xca;" horiz-adv-x="360" d="M330 0h-275v700h275v-71h-200v-223h150v-71h-150v-264h200v-71zM307 753h-49l-68 81l-68 -81h-49l73 125h88z" />
<glyph unicode="&#xcb;" horiz-adv-x="360" d="M330 0h-275v700h275v-71h-200v-223h150v-71h-150v-264h200v-71zM75 816q0 19 13.5 32.5t32.5 13.5t32.5 -13.5t13.5 -32.5t-13.5 -32.5t-32.5 -13.5t-32.5 13.5t-13.5 32.5zM217 816q0 19 13.5 32.5t32.5 13.5t32.5 -13.5t13.5 -32.5t-13.5 -32.5t-32.5 -13.5t-32.5 13.5 t-13.5 32.5z" />
<glyph unicode="&#xcc;" horiz-adv-x="185" d="M130 0h-75v700h75v-700zM-30 878h91l83 -125h-59z" />
<glyph unicode="&#xcd;" horiz-adv-x="185" d="M130 0h-75v700h75v-700zM214 877l-115 -125h-59l83 125h91z" />
<glyph unicode="&#xce;" horiz-adv-x="185" d="M130 0h-75v700h75v-700zM207 753h-49l-68 81l-68 -81h-49l73 125h88z" />
<glyph unicode="&#xcf;" horiz-adv-x="185" d="M130 0h-75v700h75v-700zM-25 816q0 19 13.5 32.5t32.5 13.5t32.5 -13.5t13.5 -32.5t-13.5 -32.5t-32.5 -13.5t-32.5 13.5t-13.5 32.5zM117 816q0 19 13.5 32.5t32.5 13.5t32.5 -13.5t13.5 -32.5t-13.5 -32.5t-32.5 -13.5t-32.5 13.5t-13.5 32.5z" />
<glyph unicode="&#xd0;" d="M380 595v-490q0 -46 -29 -75.5t-76 -29.5h-220v345h-66v50h66v305h220q47 0 76 -29t29 -76zM305 96v508q0 25 -25 25h-150v-234h67v-50h-67v-274h150q25 0 25 25z" />
<glyph unicode="&#xd1;" d="M380 0h-63l-184 510l-3 12v-522h-75v700h83l164 -463l3 -13v476h75v-700zM79 801l56 57q18 18 43 18q24 0 42 -18l33 -32q8 -8 16 -8q5 0 16 8l38 39l34 -35l-56 -57q-18 -18 -43 -18q-24 0 -42 18l-33 32q-8 8 -16 8t-16 -8l-38 -39z" />
<glyph unicode="&#xd2;" d="M275 -2h-115q-46 0 -75.5 29.5t-29.5 75.5v494q0 47 29.5 76t75.5 29h115q47 0 76 -29t29 -76v-494q0 -46 -29 -75.5t-76 -29.5zM280 629h-125q-25 0 -25 -25v-508q0 -25 25 -25h125q25 0 25 25v508q0 25 -25 25zM95 878h91l83 -125h-59z" />
<glyph unicode="&#xd3;" d="M275 -2h-115q-46 0 -75.5 29.5t-29.5 75.5v494q0 47 29.5 76t75.5 29h115q47 0 76 -29t29 -76v-494q0 -46 -29 -75.5t-76 -29.5zM280 629h-125q-25 0 -25 -25v-508q0 -25 25 -25h125q25 0 25 25v508q0 25 -25 25zM339 877l-115 -125h-59l83 125h91z" />
<glyph unicode="&#xd4;" d="M275 -2h-115q-46 0 -75.5 29.5t-29.5 75.5v494q0 47 29.5 76t75.5 29h115q47 0 76 -29t29 -76v-494q0 -46 -29 -75.5t-76 -29.5zM280 629h-125q-25 0 -25 -25v-508q0 -25 25 -25h125q25 0 25 25v508q0 25 -25 25zM332 753h-49l-68 81l-68 -81h-49l73 125h88z" />
<glyph unicode="&#xd5;" d="M275 -2h-115q-46 0 -75.5 29.5t-29.5 75.5v494q0 47 29.5 76t75.5 29h115q47 0 76 -29t29 -76v-494q0 -46 -29 -75.5t-76 -29.5zM280 629h-125q-25 0 -25 -25v-508q0 -25 25 -25h125q25 0 25 25v508q0 25 -25 25zM79 801l56 57q18 18 43 18q24 0 42 -18l33 -32 q8 -8 16 -8q5 0 16 8l38 39l34 -35l-56 -57q-18 -18 -43 -18q-24 0 -42 18l-33 32q-8 8 -16 8t-16 -8l-38 -39z" />
<glyph unicode="&#xd6;" d="M275 -2h-115q-46 0 -75.5 29.5t-29.5 75.5v494q0 47 29.5 76t75.5 29h115q47 0 76 -29t29 -76v-494q0 -46 -29 -75.5t-76 -29.5zM280 629h-125q-25 0 -25 -25v-508q0 -25 25 -25h125q25 0 25 25v508q0 25 -25 25zM100 816q0 19 13.5 32.5t32.5 13.5t32.5 -13.5 t13.5 -32.5t-13.5 -32.5t-32.5 -13.5t-32.5 13.5t-13.5 32.5zM242 816q0 19 13.5 32.5t32.5 13.5t32.5 -13.5t13.5 -32.5t-13.5 -32.5t-32.5 -13.5t-32.5 13.5t-13.5 32.5z" />
<glyph unicode="&#xd7;" horiz-adv-x="461" d="M410 381l-148 -148l145 -145l-32 -32l-145 145l-144 -144l-33 32l144 144l-145 145l33 33l145 -145l147 147z" />
<glyph unicode="&#xd8;" d="M408 773l-46 -114q18 -25 18 -62v-494q0 -46 -29 -75.5t-76 -29.5h-115q-29 0 -55 14l-34 -86h-44l46 115q-18 25 -18 62v494q0 47 29.5 76t75.5 29h115q32 0 55 -14l34 85h44zM130 604v-419l172 432q-8 12 -22 12h-125q-25 0 -25 -25zM305 96v418l-172 -431 q6 -12 22 -12h125q25 0 25 25z" />
<glyph unicode="&#xd9;" d="M275 -2h-115q-45 0 -75 30t-30 75v597h75v-604q0 -25 25 -25h125q25 0 25 25v604h75v-597q0 -45 -30 -75t-75 -30zM95 878h91l83 -125h-59z" />
<glyph unicode="&#xda;" d="M275 -2h-115q-45 0 -75 30t-30 75v597h75v-604q0 -25 25 -25h125q25 0 25 25v604h75v-597q0 -45 -30 -75t-75 -30zM339 877l-115 -125h-59l83 125h91z" />
<glyph unicode="&#xdb;" d="M275 -2h-115q-45 0 -75 30t-30 75v597h75v-604q0 -25 25 -25h125q25 0 25 25v604h75v-597q0 -45 -30 -75t-75 -30zM332 753h-49l-68 81l-68 -81h-49l73 125h88z" />
<glyph unicode="&#xdc;" d="M275 -2h-115q-45 0 -75 30t-30 75v597h75v-604q0 -25 25 -25h125q25 0 25 25v604h75v-597q0 -45 -30 -75t-75 -30zM100 816q0 19 13.5 32.5t32.5 13.5t32.5 -13.5t13.5 -32.5t-13.5 -32.5t-32.5 -13.5t-32.5 13.5t-13.5 32.5zM242 816q0 19 13.5 32.5t32.5 13.5 t32.5 -13.5t13.5 -32.5t-13.5 -32.5t-32.5 -13.5t-32.5 13.5t-13.5 32.5z" />
<glyph unicode="&#xdd;" horiz-adv-x="398" d="M386 700l-151 -430v-270h-74v270l-149 430h79l106 -339l2 -10l2 10l107 339h78zM321 877l-115 -125h-59l83 125h91z" />
<glyph unicode="&#xde;" horiz-adv-x="420" d="M275 130h-145v-130h-75v700h75v-138h145q47 0 76 -29t29 -76v-222q0 -47 -29 -76t-76 -29zM280 491h-150v-290h150q25 0 25 25v240q0 25 -25 25z" />
<glyph unicode="&#xdf;" horiz-adv-x="388" d="M238 0h-44v64h49q22 0 22 22v298q0 23 -22 23h-49v63h49q22 0 22 22v122q0 22 -22 22h-98q-22 0 -22 -22v-614h-68v612q0 37 27.5 63.5t67.5 26.5h88q42 0 68.5 -27t26.5 -68v-93q0 -62 -48 -76v-2q48 -14 48 -76v-265q0 -42 -26.5 -68.5t-68.5 -26.5z" />
<glyph unicode="&#xe0;" horiz-adv-x="378" d="M323 0h-66v38h-2q-12 -40 -64 -40h-44q-47 0 -74.5 26.5t-27.5 73.5v84q0 100 100 100h46q52 0 64 -40h2l-2 38v99q0 16 -5.5 21.5t-21.5 5.5h-149v64h144q48 0 74 -26t26 -74v-370zM228 216h-88q-16 0 -21.5 -6t-5.5 -21v-98q0 -16 5.5 -21.5t21.5 -5.5h88 q16 0 21.5 5.5t5.5 21.5v98q0 15 -5.5 21t-21.5 6zM62 648h91l83 -125h-59z" />
<glyph unicode="&#xe1;" horiz-adv-x="378" d="M323 0h-66v38h-2q-12 -40 -64 -40h-44q-47 0 -74.5 26.5t-27.5 73.5v84q0 100 100 100h46q52 0 64 -40h2l-2 38v99q0 16 -5.5 21.5t-21.5 5.5h-149v64h144q48 0 74 -26t26 -74v-370zM228 216h-88q-16 0 -21.5 -6t-5.5 -21v-98q0 -16 5.5 -21.5t21.5 -5.5h88 q16 0 21.5 5.5t5.5 21.5v98q0 15 -5.5 21t-21.5 6zM306 647l-115 -125h-59l83 125h91z" />
<glyph unicode="&#xe2;" horiz-adv-x="378" d="M323 0h-66v38h-2q-12 -40 -64 -40h-44q-47 0 -74.5 26.5t-27.5 73.5v84q0 100 100 100h46q52 0 64 -40h2l-2 38v99q0 16 -5.5 21.5t-21.5 5.5h-149v64h144q48 0 74 -26t26 -74v-370zM228 216h-88q-16 0 -21.5 -6t-5.5 -21v-98q0 -16 5.5 -21.5t21.5 -5.5h88 q16 0 21.5 5.5t5.5 21.5v98q0 15 -5.5 21t-21.5 6zM299 523h-49l-68 81l-68 -81h-49l73 125h88z" />
<glyph unicode="&#xe3;" horiz-adv-x="378" d="M323 0h-66v38h-2q-12 -40 -64 -40h-44q-47 0 -74.5 26.5t-27.5 73.5v84q0 100 100 100h46q52 0 64 -40h2l-2 38v99q0 16 -5.5 21.5t-21.5 5.5h-149v64h144q48 0 74 -26t26 -74v-370zM228 216h-88q-16 0 -21.5 -6t-5.5 -21v-98q0 -16 5.5 -21.5t21.5 -5.5h88 q16 0 21.5 5.5t5.5 21.5v98q0 15 -5.5 21t-21.5 6zM46 571l56 57q18 18 43 18q24 0 42 -18l33 -32q8 -8 16 -8q5 0 16 8l38 39l34 -35l-56 -57q-18 -18 -43 -18q-24 0 -42 18l-33 32q-8 8 -16 8t-16 -8l-38 -39z" />
<glyph unicode="&#xe4;" horiz-adv-x="378" d="M323 0h-66v38h-2q-12 -40 -64 -40h-44q-47 0 -74.5 26.5t-27.5 73.5v84q0 100 100 100h46q52 0 64 -40h2l-2 38v99q0 16 -5.5 21.5t-21.5 5.5h-149v64h144q48 0 74 -26t26 -74v-370zM228 216h-88q-16 0 -21.5 -6t-5.5 -21v-98q0 -16 5.5 -21.5t21.5 -5.5h88 q16 0 21.5 5.5t5.5 21.5v98q0 15 -5.5 21t-21.5 6zM67 586q0 19 13.5 32.5t32.5 13.5t32.5 -13.5t13.5 -32.5t-13.5 -32.5t-32.5 -13.5t-32.5 13.5t-13.5 32.5zM209 586q0 19 13.5 32.5t32.5 13.5t32.5 -13.5t13.5 -32.5t-13.5 -32.5t-32.5 -13.5t-32.5 13.5t-13.5 32.5z " />
<glyph unicode="&#xe5;" horiz-adv-x="378" d="M323 0h-66v38h-2q-12 -40 -64 -40h-44q-47 0 -74.5 26.5t-27.5 73.5v84q0 100 100 100h46q52 0 64 -40h2l-2 38v99q0 16 -5.5 21.5t-21.5 5.5h-149v64h144q48 0 74 -26t26 -74v-370zM228 216h-88q-16 0 -21.5 -6t-5.5 -21v-98q0 -16 5.5 -21.5t21.5 -5.5h88 q16 0 21.5 5.5t5.5 21.5v98q0 15 -5.5 21t-21.5 6zM107 586q0 33 22 55t56 22q33 0 55 -22t22 -55q0 -34 -22 -56t-55 -22q-34 0 -56 22t-22 56zM226 586q0 18 -11.5 29.5t-29.5 11.5t-29.5 -11.5t-11.5 -29.5t11.5 -29.5t29.5 -11.5t29.5 11.5t11.5 29.5z" />
<glyph unicode="&#xe6;" horiz-adv-x="598" d="M510 0h-134q-62 0 -76 48h-2q-14 -50 -76 -50h-70q-42 0 -69.5 26.5t-27.5 68.5v94q0 45 25.5 70t69.5 25h51q52 0 64 -40h2l-2 38v104q0 22 -22 22h-154v64h133q62 0 76 -48h2q14 50 76 50h72q42 0 68.5 -26.5t26.5 -68.5v-182h-210v-109q0 -22 22 -22h155v-64zM475 259 v125q0 22 -22 22h-98q-22 0 -22 -22v-125h142zM243 216h-98q-22 0 -22 -22v-108q0 -22 22 -22h98q22 0 22 22v108q0 22 -22 22z" />
<glyph unicode="&#xe7;" horiz-adv-x="388" d="M333 302h-68v82q0 22 -22 22h-98q-22 0 -22 -22v-298q0 -22 22 -22h98q22 0 22 22v83h68v-76q0 -41 -26.5 -68t-68.5 -27h-37v-23h38q10 0 16.5 -6.5t6.5 -16.5v-62q0 -17 -11.5 -28.5t-27.5 -11.5h-97v50h86v30h-61v68h-1q-40 0 -67.5 27.5t-27.5 67.5v284q0 41 27.5 68 t67.5 27h88q42 0 68.5 -27t26.5 -68v-75z" />
<glyph unicode="&#xe8;" horiz-adv-x="388" d="M333 195h-210v-109q0 -22 22 -22h155v-64h-150q-42 0 -68.5 26.5t-26.5 68.5v282q0 42 26.5 68.5t68.5 26.5h88q43 0 69 -26.5t26 -68.5v-182zM265 259v125q0 22 -22 22h-98q-22 0 -22 -22v-125h142zM72 648h91l83 -125h-59z" />
<glyph unicode="&#xe9;" horiz-adv-x="388" d="M333 195h-210v-109q0 -22 22 -22h155v-64h-150q-42 0 -68.5 26.5t-26.5 68.5v282q0 42 26.5 68.5t68.5 26.5h88q43 0 69 -26.5t26 -68.5v-182zM265 259v125q0 22 -22 22h-98q-22 0 -22 -22v-125h142zM316 647l-115 -125h-59l83 125h91z" />
<glyph unicode="&#xea;" horiz-adv-x="388" d="M333 195h-210v-109q0 -22 22 -22h155v-64h-150q-42 0 -68.5 26.5t-26.5 68.5v282q0 42 26.5 68.5t68.5 26.5h88q43 0 69 -26.5t26 -68.5v-182zM265 259v125q0 22 -22 22h-98q-22 0 -22 -22v-125h142zM309 523h-49l-68 81l-68 -81h-49l73 125h88z" />
<glyph unicode="&#xeb;" horiz-adv-x="388" d="M333 195h-210v-109q0 -22 22 -22h155v-64h-150q-42 0 -68.5 26.5t-26.5 68.5v282q0 42 26.5 68.5t68.5 26.5h88q43 0 69 -26.5t26 -68.5v-182zM265 259v125q0 22 -22 22h-98q-22 0 -22 -22v-125h142zM77 586q0 19 13.5 32.5t32.5 13.5t32.5 -13.5t13.5 -32.5t-13.5 -32.5 t-32.5 -13.5t-32.5 13.5t-13.5 32.5zM219 586q0 19 13.5 32.5t32.5 13.5t32.5 -13.5t13.5 -32.5t-13.5 -32.5t-32.5 -13.5t-32.5 13.5t-13.5 32.5z" />
<glyph unicode="&#xec;" horiz-adv-x="178" d="M123 0h-68v470h68v-470zM-33 648h91l83 -125h-59z" />
<glyph unicode="&#xed;" horiz-adv-x="178" d="M123 0h-68v470h68v-470zM211 647l-115 -125h-59l83 125h91z" />
<glyph unicode="&#xee;" horiz-adv-x="178" d="M123 0h-68v470h68v-470zM204 523h-49l-68 81l-68 -81h-49l73 125h88z" />
<glyph unicode="&#xef;" horiz-adv-x="178" d="M123 0h-68v470h68v-470zM-28 586q0 19 13.5 32.5t32.5 13.5t32.5 -13.5t13.5 -32.5t-13.5 -32.5t-32.5 -13.5t-32.5 13.5t-13.5 32.5zM114 586q0 19 13.5 32.5t32.5 13.5t32.5 -13.5t13.5 -32.5t-13.5 -32.5t-32.5 -13.5t-32.5 13.5t-13.5 32.5z" />
<glyph unicode="&#xf0;" horiz-adv-x="378" d="M324 616l-57 -27l56 -119q16 -33 16 -95v-282q0 -42 -26 -68.5t-69 -26.5h-88q-42 0 -68.5 26.5t-26.5 68.5v284q0 42 26.5 68.5t68.5 26.5h42q41 0 61 -23h2l-12 21l-43 91l-73 -34l-27 59l73 34l-38 80h74l24 -52l58 27zM151 64h98q22 0 22 22v298q0 22 -22 22h-98 q-22 0 -22 -22v-298q0 -22 22 -22z" />
<glyph unicode="&#xf1;" horiz-adv-x="388" d="M333 0h-68v384q0 22 -22 22h-98q-22 0 -22 -22v-384h-68v470h66v-45h2q17 47 77 47h38q44 0 69.5 -25.5t25.5 -69.5v-377zM56 571l56 57q18 18 43 18q24 0 42 -18l33 -32q8 -8 16 -8q5 0 16 8l38 39l34 -35l-56 -57q-18 -18 -43 -18q-24 0 -42 18l-33 32q-8 8 -16 8 t-16 -8l-38 -39z" />
<glyph unicode="&#xf2;" horiz-adv-x="388" d="M238 -2h-88q-42 0 -68.5 26.5t-26.5 68.5v284q0 43 26.5 69t68.5 26h88q44 0 69.5 -25.5t25.5 -69.5v-284q0 -42 -26 -68.5t-69 -26.5zM243 406h-98q-22 0 -22 -22v-298q0 -22 22 -22h98q22 0 22 22v298q0 22 -22 22zM72 648h91l83 -125h-59z" />
<glyph unicode="&#xf3;" horiz-adv-x="388" d="M238 -2h-88q-42 0 -68.5 26.5t-26.5 68.5v284q0 43 26.5 69t68.5 26h88q44 0 69.5 -25.5t25.5 -69.5v-284q0 -42 -26 -68.5t-69 -26.5zM243 406h-98q-22 0 -22 -22v-298q0 -22 22 -22h98q22 0 22 22v298q0 22 -22 22zM316 647l-115 -125h-59l83 125h91z" />
<glyph unicode="&#xf4;" horiz-adv-x="388" d="M238 -2h-88q-42 0 -68.5 26.5t-26.5 68.5v284q0 43 26.5 69t68.5 26h88q44 0 69.5 -25.5t25.5 -69.5v-284q0 -42 -26 -68.5t-69 -26.5zM243 406h-98q-22 0 -22 -22v-298q0 -22 22 -22h98q22 0 22 22v298q0 22 -22 22zM309 523h-49l-68 81l-68 -81h-49l73 125h88z" />
<glyph unicode="&#xf5;" horiz-adv-x="388" d="M238 -2h-88q-42 0 -68.5 26.5t-26.5 68.5v284q0 43 26.5 69t68.5 26h88q44 0 69.5 -25.5t25.5 -69.5v-284q0 -42 -26 -68.5t-69 -26.5zM243 406h-98q-22 0 -22 -22v-298q0 -22 22 -22h98q22 0 22 22v298q0 22 -22 22zM56 571l56 57q18 18 43 18q24 0 42 -18l33 -32 q8 -8 16 -8q5 0 16 8l38 39l34 -35l-56 -57q-18 -18 -43 -18q-24 0 -42 18l-33 32q-8 8 -16 8t-16 -8l-38 -39z" />
<glyph unicode="&#xf6;" horiz-adv-x="388" d="M238 -2h-88q-42 0 -68.5 26.5t-26.5 68.5v284q0 43 26.5 69t68.5 26h88q44 0 69.5 -25.5t25.5 -69.5v-284q0 -42 -26 -68.5t-69 -26.5zM243 406h-98q-22 0 -22 -22v-298q0 -22 22 -22h98q22 0 22 22v298q0 22 -22 22zM77 586q0 19 13.5 32.5t32.5 13.5t32.5 -13.5 t13.5 -32.5t-13.5 -32.5t-32.5 -13.5t-32.5 13.5t-13.5 32.5zM219 586q0 19 13.5 32.5t32.5 13.5t32.5 -13.5t13.5 -32.5t-13.5 -32.5t-32.5 -13.5t-32.5 13.5t-13.5 32.5z" />
<glyph unicode="&#xf7;" horiz-adv-x="460" d="M187 369q0 17 12 28.5t28 11.5q17 0 28.5 -11.5t11.5 -28.5q0 -16 -11.5 -28t-28.5 -12q-16 0 -28 12t-12 28zM430 213h-400v45h400v-45zM187 102q0 17 11.5 28.5t28.5 11.5t28.5 -11.5t11.5 -28.5t-11.5 -28.5t-28.5 -11.5t-28.5 11.5t-11.5 28.5z" />
<glyph unicode="&#xf8;" horiz-adv-x="388" d="M379 523l-56 -99q10 -21 10 -47v-284q0 -42 -26 -68.5t-69 -26.5h-88q-36 0 -59 19l-40 -70h-43l57 100q-10 21 -10 46v284q0 43 26.5 69t68.5 26h88q36 0 59 -17l39 68h43zM123 384v-235l140 246q-5 11 -20 11h-98q-22 0 -22 -22zM265 86v237l-140 -247q3 -12 20 -12h98 q22 0 22 22z" />
<glyph unicode="&#xf9;" horiz-adv-x="388" d="M55 470h68v-384q0 -22 22 -22h98q22 0 22 22v384h68v-470h-66v45h-2q-17 -47 -72 -47h-43q-42 0 -68.5 26.5t-26.5 68.5v377zM72 648h91l83 -125h-59z" />
<glyph unicode="&#xfa;" horiz-adv-x="388" d="M55 470h68v-384q0 -22 22 -22h98q22 0 22 22v384h68v-470h-66v45h-2q-17 -47 -72 -47h-43q-42 0 -68.5 26.5t-26.5 68.5v377zM316 647l-115 -125h-59l83 125h91z" />
<glyph unicode="&#xfb;" horiz-adv-x="388" d="M55 470h68v-384q0 -22 22 -22h98q22 0 22 22v384h68v-470h-66v45h-2q-17 -47 -72 -47h-43q-42 0 -68.5 26.5t-26.5 68.5v377zM309 523h-49l-68 81l-68 -81h-49l73 125h88z" />
<glyph unicode="&#xfc;" horiz-adv-x="388" d="M55 470h68v-384q0 -22 22 -22h98q22 0 22 22v384h68v-470h-66v45h-2q-17 -47 -72 -47h-43q-42 0 -68.5 26.5t-26.5 68.5v377zM77 586q0 19 13.5 32.5t32.5 13.5t32.5 -13.5t13.5 -32.5t-13.5 -32.5t-32.5 -13.5t-32.5 13.5t-13.5 32.5zM219 586q0 19 13.5 32.5t32.5 13.5 t32.5 -13.5t13.5 -32.5t-13.5 -32.5t-32.5 -13.5t-32.5 13.5t-13.5 32.5z" />
<glyph unicode="&#xfd;" horiz-adv-x="363" d="M346 470l-174 -620h-74l47 150l-128 470h70l92 -366l2 -13l2 13l92 366h71zM303 647l-115 -125h-59l83 125h91z" />
<glyph unicode="&#xfe;" horiz-adv-x="378" d="M244 -2h-38q-59 0 -77 47h-2l2 -45v-150h-68v850h68v-230l-2 -45h2q17 47 77 47h38q42 0 68.5 -26.5t26.5 -68.5v-284q0 -42 -26.5 -68.5t-68.5 -26.5zM249 406h-98q-22 0 -22 -22v-298q0 -22 22 -22h98q22 0 22 22v298q0 22 -22 22z" />
<glyph unicode="&#xff;" horiz-adv-x="363" d="M346 470l-174 -620h-74l47 150l-128 470h70l92 -366l2 -13l2 13l92 366h71zM64 586q0 19 13.5 32.5t32.5 13.5t32.5 -13.5t13.5 -32.5t-13.5 -32.5t-32.5 -13.5t-32.5 13.5t-13.5 32.5zM206 586q0 19 13.5 32.5t32.5 13.5t32.5 -13.5t13.5 -32.5t-13.5 -32.5t-32.5 -13.5 t-32.5 13.5t-13.5 32.5z" />
<glyph unicode="&#x152;" horiz-adv-x="609" d="M579 0h-235v54h-2q-9 -56 -66 -56h-116q-47 0 -76 29t-29 76v494q0 47 29 76t76 29h116q57 0 66 -56h2v54h235v-71h-200v-223h150v-71h-150v-264h200v-71zM279 629h-125q-25 0 -25 -25v-508q0 -25 25 -25h125q25 0 25 25v508q0 25 -25 25z" />
<glyph unicode="&#x153;" horiz-adv-x="598" d="M510 0h-133q-63 0 -76 48h-2q-14 -50 -76 -50h-73q-43 0 -69 26t-26 69v284q0 43 26 69t69 26h73q62 0 76 -50h2q14 50 76 50h71q43 0 69 -26t26 -69v-180h-210v-111q0 -22 22 -22h155v-64zM265 86v298q0 22 -22 22h-98q-22 0 -22 -22v-298q0 -22 22 -22h98q22 0 22 22z M475 261v123q0 22 -22 22h-98q-22 0 -22 -22v-123h142z" />
<glyph unicode="&#x178;" horiz-adv-x="398" d="M386 700l-151 -430v-270h-74v270l-149 430h79l106 -339l2 -10l2 10l107 339h78zM82 816q0 19 13.5 32.5t32.5 13.5t32.5 -13.5t13.5 -32.5t-13.5 -32.5t-32.5 -13.5t-32.5 13.5t-13.5 32.5zM224 816q0 19 13.5 32.5t32.5 13.5t32.5 -13.5t13.5 -32.5t-13.5 -32.5 t-32.5 -13.5t-32.5 13.5t-13.5 32.5z" />
<glyph unicode="&#x2c6;" horiz-adv-x="310" d="M272 523h-49l-68 81l-68 -81h-49l73 125h88z" />
<glyph unicode="&#x2dc;" horiz-adv-x="354" d="M38 571l56 57q18 18 43 18q24 0 42 -18l33 -32q8 -8 16 -8q5 0 16 8l38 39l34 -35l-56 -57q-18 -18 -43 -18q-24 0 -42 18l-33 32q-8 8 -16 8t-16 -8l-38 -39z" />
<glyph unicode="&#x2000;" horiz-adv-x="446" />
<glyph unicode="&#x2001;" horiz-adv-x="893" />
<glyph unicode="&#x2002;" horiz-adv-x="446" />
<glyph unicode="&#x2003;" horiz-adv-x="893" />
<glyph unicode="&#x2004;" horiz-adv-x="297" />
<glyph unicode="&#x2005;" horiz-adv-x="223" />
<glyph unicode="&#x2006;" horiz-adv-x="148" />
<glyph unicode="&#x2007;" horiz-adv-x="148" />
<glyph unicode="&#x2008;" horiz-adv-x="111" />
<glyph unicode="&#x2009;" horiz-adv-x="178" />
<glyph unicode="&#x200a;" horiz-adv-x="49" />
<glyph unicode="&#x2010;" horiz-adv-x="271" d="M241 201h-211v68h211v-68z" />
<glyph unicode="&#x2011;" horiz-adv-x="271" d="M241 201h-211v68h211v-68z" />
<glyph unicode="&#x2012;" horiz-adv-x="271" d="M241 201h-211v68h211v-68z" />
<glyph unicode="&#x2013;" horiz-adv-x="438" d="M408 201h-378v68h378v-68z" />
<glyph unicode="&#x2014;" horiz-adv-x="642" d="M612 201h-582v68h582v-68z" />
<glyph unicode="&#x2018;" horiz-adv-x="182" d="M34 562l64 138h41l-36 -107q16 -2 28.5 -17t12.5 -37q0 -24 -16.5 -40.5t-40.5 -16.5t-40.5 16.5t-16.5 40.5q0 14 4 23z" />
<glyph unicode="&#x2019;" horiz-adv-x="182" d="M148 630l-64 -138h-41l36 107q-16 2 -28.5 17t-12.5 37q0 24 16.5 40.5t40.5 16.5t40.5 -16.5t16.5 -40.5q0 -14 -4 -23z" />
<glyph unicode="&#x201a;" horiz-adv-x="182" d="M148 24l-64 -138h-41l36 107q-16 2 -28.5 17t-12.5 37q0 24 16.5 40.5t40.5 16.5t40.5 -16.5t16.5 -40.5q0 -14 -4 -23z" />
<glyph unicode="&#x201c;" horiz-adv-x="318" d="M34 562l64 138h41l-36 -107q16 -2 28.5 -17t12.5 -37q0 -24 -16.5 -40.5t-40.5 -16.5t-40.5 16.5t-16.5 40.5q0 14 4 23zM170 562l64 138h41l-36 -107q16 -2 28.5 -17t12.5 -37q0 -24 -16.5 -40.5t-40.5 -16.5t-40.5 16.5t-16.5 40.5q0 14 4 23z" />
<glyph unicode="&#x201d;" horiz-adv-x="318" d="M148 630l-64 -138h-41l36 107q-16 2 -28.5 17t-12.5 37q0 24 16.5 40.5t40.5 16.5t40.5 -16.5t16.5 -40.5q0 -14 -4 -23zM284 630l-64 -138h-41l36 107q-16 2 -28.5 17t-12.5 37q0 24 16.5 40.5t40.5 16.5t40.5 -16.5t16.5 -40.5q0 -14 -4 -23z" />
<glyph unicode="&#x201e;" horiz-adv-x="318" d="M148 24l-64 -138h-41l36 107q-16 2 -28.5 17t-12.5 37q0 24 16.5 40.5t40.5 16.5t40.5 -16.5t16.5 -40.5q0 -14 -4 -23zM284 24l-64 -138h-41l36 107q-16 2 -28.5 17t-12.5 37q0 24 16.5 40.5t40.5 16.5t40.5 -16.5t16.5 -40.5q0 -14 -4 -23z" />
<glyph unicode="&#x2022;" horiz-adv-x="380" d="M46 235q0 59 42.5 102t101.5 43t101.5 -43t42.5 -102t-42.5 -102t-101.5 -43t-101.5 43t-42.5 102z" />
<glyph unicode="&#x2026;" horiz-adv-x="570" d="M38 47q0 24 16.5 40.5t40.5 16.5t40.5 -16.5t16.5 -40.5t-16.5 -40.5t-40.5 -16.5t-40.5 16.5t-16.5 40.5zM228 47q0 24 16.5 40.5t40.5 16.5t40.5 -16.5t16.5 -40.5t-16.5 -40.5t-40.5 -16.5t-40.5 16.5t-16.5 40.5zM418 47q0 24 16.5 40.5t40.5 16.5t40.5 -16.5 t16.5 -40.5t-16.5 -40.5t-40.5 -16.5t-40.5 16.5t-16.5 40.5z" />
<glyph unicode="&#x202f;" horiz-adv-x="178" />
<glyph unicode="&#x2039;" horiz-adv-x="217" d="M206 81h-50l-145 154l145 154h50l-105 -154z" />
<glyph unicode="&#x203a;" horiz-adv-x="217" d="M11 81l105 154l-105 154h50l145 -154l-145 -154h-50z" />
<glyph unicode="&#x205f;" horiz-adv-x="223" />
<glyph unicode="&#x20ac;" horiz-adv-x="461" d="M301 -2h-115q-46 0 -75.5 29.5t-29.5 75.5v151h-50v65h50v60h-50v65h50v153q0 47 29.5 76t75.5 29h115q47 0 76 -29t29 -76v-85h-75v92q0 25 -25 25h-125q-25 0 -25 -25v-160h137v-65h-137v-60h137v-65h-137v-158q0 -25 25 -25h125q25 0 25 25v92h75v-85q0 -46 -29 -75.5 t-76 -29.5z" />
<glyph unicode="&#x2122;" horiz-adv-x="437" d="M157 672h-50v-252h-30v252h-50v28h130v-28zM385 420h-30v211l-53 -178h-12l-53 178v-211h-30v280h41l48 -165l48 165h41v-280z" />
<glyph unicode="&#x25fc;" horiz-adv-x="470" d="M0 470h470v-470h-470v470z" />
<glyph unicode="&#xfb03;" horiz-adv-x="657" d="M602 0h-68v406h-157v-406h-68v406h-157v-406h-68v406h-70v64h70v135q0 41 26.5 68t68.5 27h63v-64h-68q-22 0 -22 -22v-144h157v135q0 41 26.5 68t68.5 27h63v-64h-68q-22 0 -22 -22v-144h225v-470zM523 586q0 19 13.5 32.5t32.5 13.5t32.5 -13.5t13.5 -32.5t-13.5 -32.5 t-32.5 -13.5t-32.5 13.5t-13.5 32.5z" />
<glyph unicode="&#xfb04;" horiz-adv-x="657" d="M602 0h-68v614q0 22 -22 22h-113q-22 0 -22 -22v-144h90v-64h-90v-406h-68v406h-157v-406h-68v406h-70v64h70v135q0 42 26 68.5t69 26.5h63v-64h-68q-22 0 -22 -22v-144h157v141q0 42 25.5 66.5t69.5 24.5h54q59 0 76 -47h2v45h66v-700z" />
</font>
</defs>
</svg>
