<?xml version="1.0" standalone="no"?>
<!DOCTYPE svg PUBLIC "-//W3C//DTD SVG 1.1//EN" "http://www.w3.org/Graphics/SVG/1.1/DTD/svg11.dtd" >
<svg xmlns="http://www.w3.org/2000/svg" xmlns:xlink="http://www.w3.org/1999/xlink" version="1.1">
<metadata></metadata>
<defs>
<font id="pubg-headline-boldregular" horiz-adv-x="493" >
<font-face units-per-em="1000" ascent="880" descent="-120" />
<missing-glyph horiz-adv-x="229" />
<glyph horiz-adv-x="0" />
<glyph horiz-adv-x="333" />
<glyph unicode=" "  horiz-adv-x="229" />
<glyph unicode="&#x09;" horiz-adv-x="229" />
<glyph unicode="&#xa0;" horiz-adv-x="229" />
<glyph unicode="!" horiz-adv-x="246" d="M162 201h-78l-6 510h91zM125 -5q-49 0 -49 50q0 23 12.5 37.5t36.5 14.5q26 0 38 -15t12 -37q0 -19 -11.5 -34.5t-38.5 -15.5z" />
<glyph unicode="&#x22;" horiz-adv-x="320" d="M121 509h-55l1 241h68v-66zM252 509h-54l1 241h68v-66z" />
<glyph unicode="#" horiz-adv-x="547" d="M358 0h-66l33 200h-100l-34 -200h-65l33 200h-95v67h106l29 173h-104v68h115l34 203h66l-34 -203h100l34 203h66l-34 -203h79v-68h-90l-29 -173h89v-67h-100zM336 267l29 173h-100l-29 -173h100z" />
<glyph unicode="$" horiz-adv-x="494" d="M281 -102h-68v94q-79 13 -119 69.5t-40 147.5h86q0 -69 28 -105t77 -36q102 0 109 115q0 87 -109 131q-85 31 -126 81.5t-41 131.5q0 83 39.5 132t104.5 60v107h69v-108q68 -12 105.5 -68.5t37.5 -157.5h-85q0 67 -24.5 108.5t-69.5 41.5q-43 0 -67 -30t-24 -84 q0 -49 25 -78t86 -55q86 -31 125.5 -81t39.5 -130q0 -79 -40 -130t-119 -62v-94z" />
<glyph unicode="%" horiz-adv-x="632" d="M177 391q-55 0 -90 41t-35 108v34q0 64 35 105.5t89 41.5q57 0 91 -42t34 -107v-35q0 -67 -35.5 -106.5t-88.5 -39.5zM177 449q27 0 44 23.5t17 66.5v35q0 83 -62 88q-57 0 -61 -89v-36q0 -40 17 -64t45 -24zM464 -10q-55 0 -90 42t-35 107v35q0 63 34.5 105t89.5 42 t90 -40.5t35 -109.5v-35q0 -65 -35 -105.5t-89 -40.5zM464 48q56 0 61 90v36q0 41 -17 64.5t-45 23.5q-26 0 -43.5 -23.5t-17.5 -65.5v-37q0 -39 17 -63.5t45 -24.5zM195 54l-48 32l292 556l48 -33z" />
<glyph unicode="&#x26;" horiz-adv-x="543" d="M246 -10q-88 0 -142 55t-54 146q0 51 26 95.5t91 96.5q-39 55 -54.5 93t-15.5 72q0 84 43.5 128.5t110.5 44.5q65 0 106 -42.5t41 -108.5q0 -65 -29.5 -102.5t-95.5 -90.5l125 -180q23 59 23 131h77q0 -123 -50 -203l87 -125h-103l-36 52q-69 -62 -150 -62zM246 64 q57 0 105 54l-141 205q-74 -57 -74 -132q0 -58 30 -92.5t80 -34.5zM230 438q12 10 23 19q35 26 50.5 47.5t15.5 65.5q0 33 -18.5 54.5t-50.5 21.5q-33 0 -50 -28t-17 -67q0 -26 13.5 -55.5t33.5 -57.5z" />
<glyph unicode="'" horiz-adv-x="175" d="M113 516h-63l1 234h73v-54z" />
<glyph unicode="(" horiz-adv-x="314" d="M270 -229q-45 30 -91 99q-116 175 -116 419q0 116 30 220t77 180.5t100 112.5l17 -59q-58 -57 -95.5 -168t-41.5 -253l-1 -39q0 -154 38.5 -273.5t99.5 -183.5z" />
<glyph unicode=")" horiz-adv-x="318" d="M43 -229l-17 55q64 61 101 184t37 280q0 148 -38 270t-100 187l17 55q54 -36 104 -118q103 -170 103 -400q0 -117 -29 -220.5t-75.5 -179.5t-102.5 -113z" />
<glyph unicode="*" horiz-adv-x="431" d="M303 297l-91 141l-88 -137l-61 44l98 135l-147 44l22 74l148 -55l-5 168h75l-5 -170l145 53l23 -74l-150 -44l96 -133z" />
<glyph unicode="+" horiz-adv-x="497" d="M291 71h-87v225h-162v85h162v208h87v-208h161v-85h-161v-225z" />
<glyph unicode="," horiz-adv-x="196" d="M65 -142l-51 36q47 63 48 131v82h88v-71q0 -49 -24 -98t-61 -80z" />
<glyph unicode="-" horiz-adv-x="248" d="M225 265h-202v74h202v-74z" />
<glyph unicode="." horiz-adv-x="264" d="M126 -5q-54 0 -56 52q0 51 56 55q56 0 57 -55q0 -22 -14.5 -37t-42.5 -15z" />
<glyph unicode="/" horiz-adv-x="370" d="M88 -61h-73l250 772h72z" />
<glyph unicode="0" horiz-adv-x="494" d="M247 -10q-187 0 -191 300v122q0 150 45 229.5t145 79.5q188 0 191 -293v-125q0 -162 -47.5 -237.5t-142.5 -75.5zM247 64q55 0 79 54.5t25 161.5v147q0 116 -26 167.5t-79 51.5t-78 -52t-26 -158v-147q0 -109 25 -167t80 -58z" />
<glyph unicode="1" d="M314 0h-86v602l-150 -67v82l223 97h13v-714z" />
<glyph unicode="2" horiz-adv-x="494" d="M455 0h-398v65l203 268q44 60 62.5 100.5t18.5 86.5q0 57 -26 91.5t-69 34.5q-111 0 -114 -145h-86q0 104 56 162t144 58q82 0 132 -50.5t50 -140.5q0 -105 -110 -249l-158 -207h295v-74z" />
<glyph unicode="3" horiz-adv-x="494" d="M236 -10q-85 0 -136.5 53.5t-51.5 144.5h86q0 -55 26.5 -89.5t75.5 -34.5q48 0 77 32.5t29 99.5q0 131 -123 130h-52v73h56q105 0 110 122q0 126 -96 125q-94 0 -99 -122h-86q0 87 52.5 142t132.5 55q83 0 132.5 -51.5t49.5 -149.5q0 -50 -24.5 -92t-67.5 -63 q101 -36 101 -167q0 -99 -55 -153.5t-137 -54.5z" />
<glyph unicode="4" d="M384 0h-86v165h-269v53l264 493h91v-472h79v-74h-79v-165zM298 239v338l-173 -338h173z" />
<glyph unicode="5" horiz-adv-x="494" d="M259 -10q-77 0 -128 50t-60 147h81q16 -123 107 -123q50 0 78.5 44t28.5 118q0 68 -30 112.5t-83 44.5q-36 0 -51.5 -9t-31.5 -27l-9 -9l-69 18l31 355h309v-84h-236l-17 -193q44 30 95 30q86 0 132 -66.5t46 -170.5q0 -109 -51 -173t-142 -64z" />
<glyph unicode="6" d="M256 -10q-86 0 -139 77t-53 204q0 161 27.5 255.5t98.5 141.5q62 42 153 43h15v-76q-92 0 -144.5 -53.5t-61.5 -174.5q48 59 121 59q84 0 127.5 -67t43.5 -167q0 -111 -50 -176.5t-138 -65.5zM256 65q48 0 75.5 44t27.5 119q0 72 -27 117.5t-73 45.5q-70 0 -108 -95 q0 -61 5 -100.5t25 -76.5q32 -54 75 -54z" />
<glyph unicode="7" d="M205 0h-91l244 637h-316v74h407v-51z" />
<glyph unicode="8" horiz-adv-x="494" d="M247 -10q-85 0 -137.5 54t-52.5 148q0 57 25.5 103.5t73.5 70.5q-39 23 -62.5 63.5t-23.5 95.5q0 93 49 144.5t128 51.5q77 0 126.5 -52t49.5 -144q0 -105 -88 -159q102 -55 102 -174q0 -96 -53.5 -149t-136.5 -53zM247 64q52 0 77.5 35.5t25.5 94.5t-28 97t-76 38 q-49 0 -76 -37.5t-27 -97.5q0 -126 104 -130zM247 403q41 0 65.5 32.5t24.5 88.5q0 55 -25 88.5t-65 33.5q-42 0 -66.5 -33t-24.5 -89q0 -58 26 -89.5t65 -31.5z" />
<glyph unicode="9" d="M135 0v76q99 0 151 52t55 176q-52 -66 -121 -66q-79 0 -124 66.5t-45 170.5q0 113 51 179.5t135 66.5q94 0 142.5 -80t48.5 -214q0 -149 -26.5 -243.5t-90.5 -139t-176 -44.5zM235 313q65 0 107 94q0 64 -5 104.5t-25 78.5q-31 56 -75 56q-46 0 -74 -46.5t-28 -120.5 q0 -70 25.5 -118t74.5 -48z" />
<glyph unicode=":" horiz-adv-x="233" d="M123 -5q-54 0 -56 52q0 51 56 55q56 0 57 -55q0 -22 -14.5 -37t-42.5 -15zM124 426q-29 0 -42.5 15.5t-13.5 37.5q0 21 12.5 37.5t43.5 16.5q29 0 42.5 -15.5t13.5 -38.5t-14.5 -38t-41.5 -15z" />
<glyph unicode=";" horiz-adv-x="202" d="M112 426q-29 0 -42.5 15.5t-13.5 37.5q0 21 12.5 37.5t43.5 16.5q29 0 42.5 -15.5t13.5 -38.5t-13.5 -38t-42.5 -15zM72 -142l-51 36q47 63 48 131v82h88v-71q0 -49 -24 -98t-61 -80z" />
<glyph unicode="&#x3c;" horiz-adv-x="446" d="M373 95l-334 185v72l334 184v-96l-249 -126l249 -123v-96z" />
<glyph unicode="=" horiz-adv-x="479" d="M415 397h-343v79h343v-79zM415 195h-343v78h343v-78z" />
<glyph unicode="&#x3e;" horiz-adv-x="460" d="M66 96v93l265 129l-265 126v93l352 -185v-71z" />
<glyph unicode="?" horiz-adv-x="422" d="M239 200h-86q0 73 19 111t66 95q10 13 21 27q34 48 34 99q0 50 -20 80t-62 30q-35 0 -60.5 -25.5t-25.5 -72.5h-86q3 85 51.5 131t120.5 46q80 0 124.5 -50t44.5 -136q0 -62 -27.5 -107.5t-78.5 -104.5q-3 -4 -7 -9q-28 -39 -28 -114zM200 -5q-25 0 -37 14t-12 36 q0 23 12 37.5t37 14.5q24 0 37 -15t13 -37t-12.5 -36t-37.5 -14z" />
<glyph unicode="@" horiz-adv-x="769" d="M375 -221q-102 0 -176 54q-74 56 -110 158q-33 93 -33 211l1 31q4 135 50 242q45 108 123 166t175 58q101 0 174 -55q74 -55 109 -157q32 -92 32 -212v-30q-4 -114 -49 -185q-44 -70 -122 -70q-76 0 -99 78q-22 -39 -49 -58q-28 -20 -55 -20q-60 0 -90 57q-24 45 -24 117 l2 40q7 79 31 143q26 64 65 100t81 36q35 0 62 -11t60 -41l-22 -270l-1 -25q0 -88 49 -88q44 0 71 53q28 53 31 144l1 37q0 164 -60 253q-65 99 -199 99q-81 0 -143 -48q-62 -49 -97 -140q-36 -91 -39 -213l-1 -36q0 -159 61 -253q67 -104 193 -104q38 0 75 11t61 27l16 -56 q-26 -18 -68 -31q-42 -12 -86 -12zM368 60q21 0 41 23q21 24 33 68l20 258q-20 11 -43 11q-45 0 -75 -58q-30 -59 -36 -158l-2 -34q0 -45 12 -73q17 -37 50 -37z" />
<glyph unicode="A" horiz-adv-x="576" d="M556 0h-92l-56 186h-240l-55 -186h-92l229 711h77zM385 263l-97 323l-97 -323h194z" />
<glyph unicode="B" horiz-adv-x="545" d="M286 0h-209v711h202q101 0 148.5 -48.5t47.5 -141.5q0 -50 -25 -87.5t-68 -58.5q106 -38 106 -170q0 -93 -50.5 -149t-151.5 -56zM288 77q52 0 81 33t29 94q0 129 -108 129h-124v-256h122zM281 408q45 0 74 29.5t29 84.5q0 114 -105 112h-113v-226h115z" />
<glyph unicode="C" horiz-adv-x="566" d="M293 -10q-108 0 -170 83t-62 219v129q0 137 63 218.5t178 81.5q99 0 157 -60t63 -179h-90q-5 86 -36 124t-94 38q-76 0 -113.5 -59t-37.5 -165v-130q0 -104 35 -164t107 -60q74 0 104 38t35 122h90q-5 -113 -63.5 -174.5t-165.5 -61.5z" />
<glyph unicode="D" horiz-adv-x="571" d="M236 0h-159v711h169q130 0 196 -81t66 -216v-119q0 -135 -67 -215t-205 -80zM238 77q183 0 182 214v126q0 116 -45 166.5t-129 50.5h-80v-557h72z" />
<glyph unicode="E" horiz-adv-x="497" d="M459 0h-382v711h377v-77h-288v-229h251v-76h-251v-252h293v-77z" />
<glyph unicode="F" horiz-adv-x="481" d="M166 0h-89v711h370v-77h-281v-243h240v-77h-240v-314z" />
<glyph unicode="G" horiz-adv-x="590" d="M309 -10q-113 0 -179 75t-69 218v139q0 155 61.5 227t176.5 72q101 0 159 -56.5t63 -162.5h-89q-4 67 -37 104.5t-95 37.5q-74 0 -111.5 -49.5t-38.5 -160.5v-145q0 -110 42.5 -166.5t116.5 -56.5q50 0 74.5 12.5t48.5 35.5v164h-130v76h219v-266q-38 -51 -86 -74.5 t-126 -23.5z" />
<glyph unicode="H" horiz-adv-x="620" d="M542 0h-90v329h-286v-329h-89v711h89v-306h286v306h90v-711z" />
<glyph unicode="I" horiz-adv-x="250" d="M215 711v-77h-45v-558h45v-76h-183v76h49v558h-49v77h183z" />
<glyph unicode="J" horiz-adv-x="484" d="M220 -10q-93 0 -142 56t-49 150h89q0 -59 26.5 -94t75.5 -35t75.5 38.5t26.5 102.5v503h90v-503q0 -104 -52.5 -161t-139.5 -57z" />
<glyph unicode="K" horiz-adv-x="545" d="M542 0h-107l-199 328l-70 -85v-243h-89v711h89v-343l59 77l191 266h107l-231 -313z" />
<glyph unicode="L" horiz-adv-x="475" d="M445 0h-368v711h90v-634h278v-77z" />
<glyph unicode="M" horiz-adv-x="755" d="M678 0h-89v277l8 277l-186 -554h-68l-185 552l8 -275v-277h-89v711h115l185 -580l186 580h115v-711z" />
<glyph unicode="N" horiz-adv-x="619" d="M541 0h-90l-284 548v-548h-90v711h90l285 -550v550h89v-711z" />
<glyph unicode="O" horiz-adv-x="601" d="M301 -10q-106 0 -171 74t-69 219v134q0 137 61 220.5t178 83.5q113 0 175 -77t64 -222v-129q0 -145 -61.5 -224t-176.5 -79zM301 70q73 0 110 51.5t39 162.5v133q0 224 -150 223q-150 0 -150 -220v-127q0 -106 37 -164.5t114 -58.5z" />
<glyph unicode="P" horiz-adv-x="555" d="M166 0h-89v711h226q103 0 158 -61t55 -156q0 -108 -56 -160.5t-150 -55.5h-144v-278zM303 355q59 0 91 35t32 103q0 63 -31.5 102t-90.5 39h-138v-279h137z" />
<glyph unicode="Q" horiz-adv-x="600" d="M484 -120l-128 117q-30 -7 -60 -7q-109 0 -172.5 76t-66.5 221v130q0 146 64 225t174 79q115 0 177.5 -79t62.5 -222v-127q0 -94 -25 -158.5t-72 -100.5l106 -95zM296 70q77 0 112.5 53t37.5 158v136q0 116 -38 169.5t-113 53.5q-72 0 -110.5 -55t-38.5 -165v-127 q0 -106 37 -164.5t113 -58.5z" />
<glyph unicode="R" horiz-adv-x="531" d="M514 0h-96l-126 288h-125v-288h-90v711h199q209 0 212 -214q0 -132 -112 -189l138 -302v-6zM275 364q56 0 89.5 35.5t33.5 97.5q0 137 -124 137h-107v-270h108z" />
<glyph unicode="S" horiz-adv-x="519" d="M269 -10q-97 0 -162 60t-65 156h89q0 -65 37 -102t101 -37q62 0 90 32t28 81q0 50 -29 80.5t-104 55.5q-99 35 -146.5 85t-47.5 126q0 85 56.5 139.5t147.5 54.5q97 0 155 -61.5t58 -154.5h-90q0 65 -32 102t-91 37q-109 0 -114 -116q0 -44 32.5 -74.5t99.5 -54.5 q101 -32 148.5 -83.5t47.5 -134.5q0 -89 -58 -140t-151 -51z" />
<glyph unicode="T" horiz-adv-x="520" d="M305 0h-89v634h-187v77h463v-77h-187v-634z" />
<glyph unicode="U" horiz-adv-x="561" d="M281 -10q-109 0 -163 57.5t-55 158.5v505h89v-502q0 -74 32.5 -108.5t96.5 -34.5q68 0 99 36t31 107v502h89v-505q0 -101 -57.5 -158.5t-161.5 -57.5z" />
<glyph unicode="V" horiz-adv-x="561" d="M319 0h-78l-220 711h97l162 -574l162 574h99z" />
<glyph unicode="W" horiz-adv-x="761" d="M594 0h-81l-118 518l-8 42l-7 -42l-123 -518h-81l-141 711h89l88 -487l10 -79l14 70l114 496h74l111 -496l14 -72l10 82l87 486h89z" />
<glyph unicode="X" horiz-adv-x="551" d="M519 0h-106l-137 277l-137 -277h-106l190 358l-186 353h105l134 -273l134 273h105l-185 -353z" />
<glyph unicode="Y" horiz-adv-x="524" d="M306 0h-89v265l-202 446h101l146 -357l145 357h101l-202 -446v-265z" />
<glyph unicode="Z" horiz-adv-x="523" d="M481 0h-437v70l324 564h-320v77h420v-69l-324 -565h337v-77z" />
<glyph unicode="[" horiz-adv-x="250" d="M229 -152h-162v965h162v-75h-76v-816h76v-74z" />
<glyph unicode="\" horiz-adv-x="369" d="M355 -61h-81l-249 772h81z" />
<glyph unicode="^" horiz-adv-x="371" d="M336 356h-78l-73 235l-72 -235h-79l123 355h57z" />
<glyph unicode="_" horiz-adv-x="405" d="M393 -74h-381v74h381v-74z" />
<glyph unicode="`" horiz-adv-x="309" d="M231 606h-77l-126 144h109z" />
<glyph unicode="a" horiz-adv-x="479" d="M208 -10q-72 0 -112 40.5t-40 113.5q0 84 56.5 130t147.5 46h64v56q0 50 -22 69t-63 19q-38 0 -63 -22t-25 -60h-87q0 62 51.5 109t127.5 47q83 0 124.5 -41t42.5 -117v-266q0 -61 16 -106v-8h-90q-8 17 -11 58q-45 -68 -117 -68zM221 69q68 0 103 61v126h-49 q-63 0 -98 -27.5t-35 -74.5q0 -90 79 -85z" />
<glyph unicode="b" d="M274 -10q-84 0 -126 73l-4 -63h-79v750h86v-280q43 68 122 68q176 0 174 -247v-52q0 -244 -173 -249zM251 66q60 0 85 42.5t25 126.5v53q0 89 -24 131t-87 42q-66 0 -99 -72v-251q33 -72 100 -72z" />
<glyph unicode="c" horiz-adv-x="462" d="M248 -10q-94 0 -147.5 59.5t-53.5 186.5q0 88 8 142.5t43 97.5q51 62 150 62q82 0 128.5 -51t50.5 -140h-82q-3 60 -28.5 88.5t-68.5 28.5q-60 0 -87 -39.5t-28 -122.5v-68q0 -91 28 -130.5t87 -39.5q42 0 68.5 26.5t28.5 76.5h82q-5 -80 -55.5 -128.5t-123.5 -48.5z" />
<glyph unicode="d" horiz-adv-x="496" d="M223 -10q-83 0 -129 64t-48 180v54q0 116 44 183t133 67q77 0 118 -61v273h87v-750h-79l-5 57q-43 -67 -121 -67zM245 66q65 0 96 65v267q-33 63 -95 63q-117 0 -113 -169v-53q0 -91 27 -132t85 -41z" />
<glyph unicode="e" horiz-adv-x="468" d="M253 -10q-94 0 -148.5 56.5t-56.5 175.5v64q0 113 49.5 182.5t146.5 69.5q95 0 140 -61.5t45 -181.5v-57h-295q0 -96 31.5 -135t92.5 -39q78 0 122 60l45 -55q-56 -79 -172 -79zM343 313q0 83 -26 117t-73 34q-105 0 -109 -151h208z" />
<glyph unicode="f" horiz-adv-x="317" d="M189 0h-86v458h-69v70h69v61q9 171 151 171q27 0 53 -8l-5 -73q-18 4 -39 4q-73 0 -74 -105v-50h90v-70h-90v-458z" />
<glyph unicode="g" d="M238 -208q-40 0 -87 19t-73 48l35 59q54 -52 118 -52q108 0 111 117v69q-41 -62 -119 -62q-79 0 -125.5 59.5t-50.5 179.5v59q0 128 46.5 189t130.5 61q80 0 122 -69l5 59h78v-533q0 -94 -48 -148.5t-143 -54.5zM246 66q65 0 96 66v264q-33 65 -95 65q-117 0 -113 -169 v-53q0 -87 25.5 -130t86.5 -43z" />
<glyph unicode="h" horiz-adv-x="483" d="M419 0h-86v347q0 63 -21 88.5t-62 25.5q-64 0 -99 -77v-384h-87v750h87v-276q50 64 126 64q140 0 142 -187v-351z" />
<glyph unicode="i" horiz-adv-x="229" d="M158 0h-87v528h87v-528zM115 617q-25 0 -37 15.5t-12 35.5q0 22 12 37.5t37 15.5q24 0 37 -15t13 -38q0 -20 -12 -35.5t-38 -15.5z" />
<glyph unicode="j" horiz-adv-x="224" d="M37 -213q-27 0 -48 8v73q14 -4 33 -4q48 0 44 73v591h87v-594q-2 -147 -116 -147zM107 617q-25 0 -36.5 15.5t-11.5 35.5q0 21 11.5 37t36.5 16t37.5 -15.5t12.5 -37.5q0 -21 -12 -36t-38 -15z" />
<glyph unicode="k" horiz-adv-x="450" d="M441 0h-100l-144 242l-46 -53v-189h-86v750h86v-449l165 227h103l-168 -220z" />
<glyph unicode="l" horiz-adv-x="229" d="M158 0h-87v750h87v-750z" />
<glyph unicode="m" horiz-adv-x="752" d="M687 0h-86v348q0 61 -21.5 87t-68.5 26q-41 0 -64 -31t-28 -76v-354h-86v352q-1 109 -90 109q-64 0 -92 -65v-396h-86v528h81l2 -49q49 59 127 59q89 0 124 -77q49 77 139 77q146 0 149 -182v-356z" />
<glyph unicode="n" horiz-adv-x="484" d="M419 0h-86v347q0 63 -21 88.5t-62 25.5q-64 0 -99 -77v-384h-87v528h82l2 -57q51 67 129 67q140 0 142 -187v-351z" />
<glyph unicode="o" horiz-adv-x="502" d="M251 -10q-88 0 -144.5 62t-60.5 179v58q0 113 55 181t149 68q89 0 145.5 -62.5t59.5 -181.5v-55q0 -112 -54.5 -180.5t-149.5 -68.5zM251 64q114 0 118 165v60q0 82 -33 128.5t-86 46.5t-85 -46.5t-32 -128.5v-50q0 -81 31.5 -128t86.5 -47z" />
<glyph unicode="p" d="M151 -203h-86v731h78l4 -58q44 68 125 68q92 0 132.5 -62.5t41.5 -179.5v-57q0 -247 -173 -249q-79 0 -122 60v-253zM246 64q116 0 114 171v53q0 87 -26.5 130t-88.5 43q-61 0 -94 -62v-274q32 -61 95 -61z" />
<glyph unicode="q" horiz-adv-x="500" d="M427 -203h-86v249q-42 -56 -116 -56q-82 0 -129.5 60t-49.5 184v54q0 120 44 185t135 65q77 0 119 -61l4 51h79v-731zM247 64q60 0 94 58v283q-36 59 -93 59q-117 0 -115 -172v-53q0 -180 114 -175z" />
<glyph unicode="r" horiz-adv-x="304" d="M151 0h-87v528h84l2 -53q35 63 98 63q21 0 34 -7l1 -84q-18 4 -39 4q-67 0 -93 -73v-378z" />
<glyph unicode="s" horiz-adv-x="456" d="M233 -10q-81 0 -133 47.5t-52 120.5h87q2 -45 28 -69.5t70 -24.5q45 0 66.5 19.5t21.5 51.5q0 29 -22.5 49.5t-79.5 45.5q-70 29 -99 50t-42 46q-14 26 -14 62q0 64 46.5 107t120.5 43q76 0 123.5 -44t47.5 -116h-86q0 36 -23.5 61t-61.5 25q-75 0 -81 -73 q0 -26 17.5 -43t74.5 -42q94 -36 130 -73t36 -91q0 -70 -47.5 -111t-127.5 -41z" />
<glyph unicode="t" horiz-adv-x="296" d="M197 -10q-52 0 -78.5 38t-26.5 102v328h-81v70h81v128h86v-128h79v-70h-79v-327q0 -31 10 -47.5t35 -16.5q18 0 35 6l-1 -73q-30 -10 -60 -10z" />
<glyph unicode="u" horiz-adv-x="483" d="M208 -10q-68 0 -106.5 48.5t-38.5 145.5v344h86v-338q0 -123 74 -123q80 0 109 70v391h86v-528h-82l-2 46q-42 -56 -126 -56z" />
<glyph unicode="v" horiz-adv-x="427" d="M246 0h-65l-159 528h88l104 -397l100 397h88z" />
<glyph unicode="w" horiz-adv-x="650" d="M495 0h-69l-103 378l-101 -378h-69l-129 528h85l82 -367l99 367h68l100 -376l81 376h85z" />
<glyph unicode="x" horiz-adv-x="439" d="M411 0h-99l-93 198l-94 -198h-100l147 267l-143 261h99l89 -193l91 193h100l-144 -261z" />
<glyph unicode="y" horiz-adv-x="417" d="M88 -213q-18 0 -45 7v74l19 -2q38 0 59 18t34 61l17 59l-155 524h94l98 -384l96 384h92l-173 -603q-21 -70 -56.5 -104t-79.5 -34z" />
<glyph unicode="z" horiz-adv-x="439" d="M399 0h-353v66l242 388h-240v74h342v-64l-245 -390h254v-74z" />
<glyph unicode="|" horiz-adv-x="243" d="M158 -132h-73v843h73v-843z" />
<glyph unicode="&#xad;" horiz-adv-x="248" d="M225 265h-202v74h202v-74z" />
<glyph unicode="&#x2000;" horiz-adv-x="413" />
<glyph unicode="&#x2001;" horiz-adv-x="826" />
<glyph unicode="&#x2002;" horiz-adv-x="413" />
<glyph unicode="&#x2003;" horiz-adv-x="826" />
<glyph unicode="&#x2004;" horiz-adv-x="275" />
<glyph unicode="&#x2005;" horiz-adv-x="206" />
<glyph unicode="&#x2006;" horiz-adv-x="137" />
<glyph unicode="&#x2007;" horiz-adv-x="137" />
<glyph unicode="&#x2008;" horiz-adv-x="103" />
<glyph unicode="&#x2009;" horiz-adv-x="165" />
<glyph unicode="&#x200a;" horiz-adv-x="45" />
<glyph unicode="&#x2010;" horiz-adv-x="248" d="M225 265h-202v74h202v-74z" />
<glyph unicode="&#x2011;" horiz-adv-x="248" d="M225 265h-202v74h202v-74z" />
<glyph unicode="&#x2012;" horiz-adv-x="248" d="M225 265h-202v74h202v-74z" />
<glyph unicode="&#x2013;" horiz-adv-x="546" d="M523 265h-500v74h500v-74z" />
<glyph unicode="&#x2014;" horiz-adv-x="1046" d="M1023 265h-1000v74h1000v-74z" />
<glyph unicode="&#x202f;" horiz-adv-x="165" />
<glyph unicode="&#x205f;" horiz-adv-x="206" />
<glyph unicode="&#x25fc;" horiz-adv-x="530" d="M0 530h530v-530h-530v530z" />
</font>
</defs>
</svg>
