<?xml version="1.0" standalone="no"?>
<!DOCTYPE svg PUBLIC "-//W3C//DTD SVG 1.1//EN" "http://www.w3.org/Graphics/SVG/1.1/DTD/svg11.dtd" >
<svg xmlns="http://www.w3.org/2000/svg" xmlns:xlink="http://www.w3.org/1999/xlink" version="1.1">
<metadata></metadata>
<defs>
<font id="pubg_new_stateregular" horiz-adv-x="391" >
<font-face units-per-em="1000" ascent="750" descent="-250" />
<missing-glyph horiz-adv-x="200" />
<glyph horiz-adv-x="0" />
<glyph horiz-adv-x="333" />
<glyph unicode=" "  horiz-adv-x="200" />
<glyph unicode="&#x09;" horiz-adv-x="200" />
<glyph unicode="&#xa0;" horiz-adv-x="200" />
<glyph unicode="!" horiz-adv-x="200" d="M152 750q8 0 8 -8l-5 -549q0 -8 -8 -8h-94q-8 0 -8 8l-5 549q0 8 8 8h104zM40 8v104q0 8 8 8h104q8 0 8 -8v-104q0 -8 -8 -8h-104q-8 0 -8 8z" />
<glyph unicode="&#x22;" horiz-adv-x="273" d="M114 750q8 0 8 -8l-18 -222q0 -8 -8 -8h-50q-8 0 -8 8l-18 222q0 8 8 8h86zM151 742q0 8 8 8h86q8 0 8 -8l-18 -222q0 -8 -8 -8h-50q-8 0 -8 8z" />
<glyph unicode="#" horiz-adv-x="514" d="M68 8l34 199h-80q-9 0 -7 8l14 83q2 8 8 8h82l23 138h-74q-9 0 -7 8l13 83q2 8 9 8h76l35 199q2 8 8 8h84q9 0 7 -8l-34 -199h58l35 199q2 8 8 8h83q9 0 7 -8l-34 -199h74q9 0 7 -8l-13 -82q-2 -9 -11 -9h-74l-26 -138h77q8 0 8 -8l-9 -83q-2 -8 -8 -8h-82l-35 -199 q-2 -8 -9 -8h-83q-9 0 -7 8l34 199h-58l-35 -199q-2 -8 -8 -8h-83q-9 0 -7 8zM216 306h58l26 138h-59z" />
<glyph unicode="$" horiz-adv-x="375" d="M220 820q8 0 8 -8v-62h37q15 0 25 -10l40 -40q10 -10 10 -25v-167q0 -8 -8 -8h-104q-8 0 -8 8v114q0 8 -8 8h-49q-8 0 -8 -8v-104q0 -1 2 -5l176 -225q7 -8 7 -20v-193q0 -15 -10 -25l-40 -40q-10 -10 -25 -10h-37v-62q0 -8 -8 -8h-64q-8 0 -8 8v62h-38q-15 0 -25 10 l-40 40q-10 10 -10 25v167q0 8 8 8h104q8 0 8 -8v-114q0 -8 8 -8h49q8 0 8 8v102q0 2 -2 6l-176 225q-7 8 -7 20v194q0 15 10 25l40 40q10 10 25 10h38v62q0 8 8 8h64z" />
<glyph unicode="%" horiz-adv-x="527" d="M390 745q2 5 10 5h70q6 0 3 -6l-335 -739q-4 -5 -10 -5h-72q-6 0 -3 5zM25 494v196q0 5 5 10l43 43q7 7 18 7h86q11 0 18 -7l43 -43q5 -5 5 -10v-196q0 -5 -5 -10l-43 -43q-7 -7 -18 -7h-85q-12 0 -19 7l-43 43q-5 5 -5 10zM110 524q0 -5 5 -5h38q5 0 5 5v136q0 5 -5 5 h-38q-5 0 -5 -5v-136zM284 60v196q0 5 5 10l43 43q7 7 18 7h86q11 0 18 -7l43 -43q5 -5 5 -10v-196q0 -5 -5 -10l-43 -43q-7 -7 -18 -7h-85q-12 0 -19 7l-43 43q-5 5 -5 10zM369 90q0 -5 5 -5h38q5 0 5 5v136q0 5 -5 5h-38q-5 0 -5 -5v-136z" />
<glyph unicode="&#x26;" horiz-adv-x="419" d="M220 120q8 0 8 8v179q0 8 -8 8h-49q-8 0 -8 -8v-179q0 -8 8 -8h49zM43 75v225q0 15 10 25l50 50l-50 50q-10 10 -10 25v225q0 15 10 25l40 40q10 10 25 10h155q15 0 25 -10l40 -40q10 -10 10 -25v-167q0 -8 -8 -8h-104q-8 0 -8 8v114q0 8 -8 8h-49q-8 0 -8 -8v-179 q0 -8 8 -8h205q8 0 8 -8v-104q0 -8 -8 -8h-28v-240q0 -15 -10 -25l-40 -40q-10 -10 -25 -10h-155q-15 0 -25 10l-40 40q-10 10 -10 25z" />
<glyph unicode="'" horiz-adv-x="142" d="M114 750q8 0 8 -8l-18 -222q0 -8 -8 -8h-50q-8 0 -8 8l-18 222q0 8 8 8h86z" />
<glyph unicode="(" horiz-adv-x="320" d="M132 750q-15 0 -25 -10l-67 -67q-10 -10 -10 -25v-543q0 -15 10 -25l66 -70q10 -10 25 -10h161q8 0 8 8v92q0 8 -8 8h-105q-10 0 -18 8l-23 23q-8 8 -8 18v438q0 10 8 18l23 21q8 8 18 8h105q8 0 8 8v92q0 8 -8 8h-160z" />
<glyph unicode=")" horiz-adv-x="320" d="M20 650q0 -8 8 -8h105q10 0 18 -8l23 -21q8 -8 8 -18v-438q0 -10 -8 -18l-23 -23q-8 -8 -18 -8h-105q-8 0 -8 -8v-92q0 -8 8 -8h161q15 0 25 10l66 70q10 10 10 25v543q0 15 -10 25l-67 67q-10 10 -25 10h-160q-8 0 -8 -8v-92z" />
<glyph unicode="*" horiz-adv-x="372" d="M64 510l54 65l-82 26q-8 3 -6 11l22 67q2 6 9 4l81 -24v83q0 8 8 8h72q8 0 8 -8v-83l82 24q7 2 8 -4l22 -70q2 -6 -6 -8l-80 -24l56 -68q5 -7 -2 -12l-58 -42q-6 -6 -12 2l-52 65l-52 -64q-6 -8 -15 -2l-56 41q-8 5 -1 13z" />
<glyph unicode="+" horiz-adv-x="348" d="M28 430h92v92q0 8 8 8h92q8 0 8 -8v-92h92q8 0 8 -8v-92q0 -8 -8 -8h-92v-92q0 -8 -8 -8h-92q-8 0 -8 8v92h-92q-8 0 -8 8v92q0 8 8 8z" />
<glyph unicode="," horiz-adv-x="166" d="M151 117q7 0 4 -8l-78 -187q-3 -4 -8 -4h-53q-8 0 -6 8l29 186q1 5 8 5h104z" />
<glyph unicode="-" horiz-adv-x="294" d="M266 429q8 0 8 -8v-92q0 -8 -8 -8h-238q-8 0 -8 8v92q0 8 8 8h238z" />
<glyph unicode="." horiz-adv-x="158" d="M20 110q0 8 8 8h102q8 0 8 -8v-102q0 -8 -8 -8h-102q-8 0 -8 8v102z" />
<glyph unicode="/" horiz-adv-x="362" d="M11 12q-4 -12 8 -12h107q9 0 11 8l215 731q3 11 -10 11h-108q-6 0 -8 -8z" />
<glyph unicode="0" d="M338 700q10 -10 10 -25v-600q0 -15 -10 -25l-40 -40q-10 -10 -25 -10h-155q-15 0 -25 10l-40 40q-10 10 -10 25v600q0 15 10 25l40 40q10 10 25 10h155q15 0 25 -10zM163 330l54 300h-46q-8 0 -8 -8v-292zM174 120h46q8 0 8 8v291z" />
<glyph unicode="1" horiz-adv-x="290" d="M205 742v-622h42q8 0 8 -8v-104q0 -8 -8 -8h-204q-8 0 -8 8v104q0 8 8 8h42v510h-42q-8 0 -8 8v104q0 8 8 8h154q8 0 8 -8z" />
<glyph unicode="2" horiz-adv-x="377" d="M161 190q-1 -2 -1 -5v-65h177q8 0 8 -8v-104q0 -8 -8 -8h-289q-8 0 -8 8v221q0 2 7 13l177 225q1 2 1 6v149q0 8 -8 8h-49q-8 0 -8 -8v-114q0 -8 -8 -8h-104q-8 0 -8 8v167q0 15 10 25l40 40q10 10 25 10h155q15 0 25 -10l40 -40q10 -10 10 -25v-241q0 -11 -6 -20z" />
<glyph unicode="3" horiz-adv-x="388" d="M345 450q0 -15 -10 -25l-50 -50l50 -50q10 -10 10 -25v-225q0 -15 -10 -25l-40 -40q-10 -10 -25 -10h-155q-15 0 -25 10l-40 40q-10 10 -10 25v167q0 8 8 8h104q8 0 8 -8v-114q0 -8 8 -8h49q8 0 8 8v179q0 8 -8 8h-104q-8 0 -8 8v104q0 8 8 8h104q8 0 8 8v179q0 8 -8 8 h-49q-8 0 -8 -8v-114q0 -8 -8 -8h-104q-8 0 -8 8v167q0 15 10 25l40 40q10 10 25 10h155q15 0 25 -10l40 -40q10 -10 10 -25v-225z" />
<glyph unicode="4" horiz-adv-x="385" d="M304 750q8 0 8 -8v-502h42q8 0 8 -8v-104q0 -8 -8 -8h-42v-112q0 -8 -8 -8h-96q-8 0 -8 8v112h-167q-8 0 -8 8v104q0 9 2 14l152 494q4 10 16 10h109zM147 247q-2 -7 5 -7h42q6 0 6 6v249z" />
<glyph unicode="5" horiz-adv-x="380" d="M345 638q0 -8 -8 -8h-169q-8 0 -8 -8v-151h110q15 0 25 -10l40 -40q10 -10 10 -25v-321q0 -15 -10 -25l-40 -40q-10 -10 -25 -10h-155q-15 0 -25 10l-40 40q-10 10 -10 25v167q0 8 8 8h104q8 0 8 -8v-114q0 -8 8 -8h49q8 0 8 8v215q0 8 -8 8h-169q-8 0 -8 8v383q0 8 8 8 h289q8 0 8 -8v-104z" />
<glyph unicode="6" horiz-adv-x="388" d="M171 315q-8 0 -8 -8v-179q0 -8 8 -8h49q8 0 8 8v179q0 8 -8 8h-49zM43 75v600q0 15 10 25l40 40q10 10 25 10h155q15 0 25 -10l40 -40q10 -10 10 -25v-167q0 -8 -8 -8h-104q-8 0 -8 8v114q0 8 -8 8h-49q-8 0 -8 -8v-187h110q15 0 25 -10l40 -40q10 -10 10 -25v-285 q0 -15 -10 -25l-40 -40q-10 -10 -25 -10h-155q-15 0 -25 10l-40 40q-10 10 -10 25z" />
<glyph unicode="7" horiz-adv-x="383" d="M155 622q0 8 8 8h67q7 0 5 -7l-142 -614q-1 -4 2 -6.5t6 -2.5h102q7 0 9 9l139 610q2 9 2 19v104q0 8 -8 8h-302q-8 0 -8 -8v-234q0 -8 8 -8h104q8 0 8 8v114z" />
<glyph unicode="8" d="M220 120q8 0 8 8v179q0 8 -8 8h-49q-8 0 -8 -8v-179q0 -8 8 -8h49zM43 75v225q0 15 10 25l50 50l-50 50q-10 10 -10 25v225q0 15 10 25l40 40q10 10 25 10h155q15 0 25 -10l40 -40q10 -10 10 -25v-225q0 -15 -10 -25l-50 -50l50 -50q10 -10 10 -25v-225q0 -15 -10 -25 l-40 -40q-10 -10 -25 -10h-155q-15 0 -25 10l-40 40q-10 10 -10 25zM163 443q0 -8 8 -8h49q8 0 8 8v179q0 8 -8 8h-49q-8 0 -8 -8v-179z" />
<glyph unicode="9" horiz-adv-x="388" d="M225 622q0 8 -8 8h-49q-8 0 -8 -8v-179q0 -8 8 -8h49q8 0 8 8v179zM40 75v167q0 8 8 8h104q8 0 8 -8v-114q0 -8 8 -8h49q8 0 8 8v187h-110q-15 0 -25 10l-40 40q-10 10 -10 25v285q0 15 10 25l40 40q10 10 25 10h155q15 0 25 -10l40 -40q10 -10 10 -25v-600 q0 -15 -10 -25l-40 -40q-10 -10 -25 -10h-155q-15 0 -25 10l-40 40q-10 10 -10 25z" />
<glyph unicode=":" horiz-adv-x="188" d="M35 110q0 8 8 8h102q8 0 8 -8v-102q0 -8 -8 -8h-102q-8 0 -8 8v102zM35 390v102q0 8 8 8h102q8 0 8 -8v-102q0 -8 -8 -8h-102q-8 0 -8 8z" />
<glyph unicode=";" horiz-adv-x="169" d="M41 492q0 8 8 8h102q8 0 8 -8v-102q0 -8 -8 -8h-102q-8 0 -8 8v102zM10 -74l29 186q1 5 8 5h104q7 0 4 -8l-78 -187q-3 -4 -8 -4h-53q-8 0 -6 8z" />
<glyph unicode="&#x3c;" horiz-adv-x="342" d="M322 51q0 -3 -3.5 -5t-8.5 1l-281 165q-9 4 -9 13v82q0 9 9 13l280 164q3 2 6.5 2.5t5 -1t1.5 -4.5v-91q0 -10 -9 -15l-195 -109l195 -109q9 -5 9 -15v-91z" />
<glyph unicode="=" horiz-adv-x="352" d="M324 478q8 0 8 -8v-82q0 -8 -8 -8h-296q-8 0 -8 8v82q0 8 8 8h296zM20 260v82q0 8 8 8h296q8 0 8 -8v-82q0 -8 -8 -8h-296q-8 0 -8 8z" />
<glyph unicode="&#x3e;" horiz-adv-x="342" d="M29 157l195 109l-195 109q-9 5 -9 15v91q0 4 4 5t9 -2l280 -164q9 -4 9 -13v-82q0 -9 -9 -13l-281 -165q-5 -3 -8.5 -1t-3.5 5v91q0 10 9 15z" />
<glyph unicode="?" horiz-adv-x="360" d="M325 699q10 -10 10 -25v-200q0 -15 -10 -25l-90 -96q-2 -2 -2 -5v-155q0 -8 -8 -8h-104q-8 0 -8 8v187q0 15 10 25l90 95q2 2 2 6v116q0 8 -8 8h-49q-8 0 -8 -8v-89q0 -8 -8 -8h-104q-8 0 -8 9v140q0 15 10 25l41 41q10 10 25 10h153q15 0 25 -10zM113 8v104q0 8 8 8h104 q8 0 8 -8v-104q0 -8 -8 -8h-104q-8 0 -8 8z" />
<glyph unicode="@" horiz-adv-x="547" d="M45 35q-10 10 -10 25v631q0 15 10 25l24 24q10 10 25 10h359q15 0 25 -10l24 -24q10 -10 10 -25v-505q0 -8 -6 -14l-35 -32q-6 -6 -14 -6h-68q-8 0 -14 6l-36 38l-36 -38q-6 -6 -14 -6h-71q-8 0 -13 5l-34 34q-5 5 -5 13v180q0 7 5 12l33 33q6 6 14 6h79v119h-40 q-8 0 -8 -8v-49q0 -8 -8 -8h-67q-8 0 -8 8v84q0 8 6 14l32 32q6 6 14 6h110q8 0 14 -6l32 -32q6 -6 6 -14v-342q0 -8 8 -8h32q8 0 8 8v445q0 5 -5 5h-300q-5 0 -5 -5v-581q0 -5 5 -5h381q8 0 8 -8v-64q0 -8 -8 -8h-411q-15 0 -25 10zM249 221q0 -8 8 -8h40v124h-40 q-8 0 -8 -8v-108z" />
<glyph unicode="A" horiz-adv-x="380" d="M251 0q-6 0 -8 8l-23 186h-60l-23 -186q0 -8 -8 -8h-100q-9 0 -7 8l105 734q2 8 8 8h110q6 0 8 -8l105 -734q2 -8 -7 -8h-100zM162 314h56l-28 246z" />
<glyph unicode="B" horiz-adv-x="402" d="M247 622q0 8 -8 8h-57v-195h57q8 0 8 8v179zM45 323v104q0 8 8 8h9v307q0 8 8 8h222q13 0 25 -10l40 -40q10 -10 10 -25v-225q0 -15 -10 -25l-50 -50l50 -50q10 -12 10 -25v-225q0 -13 -10 -25l-40 -40q-12 -10 -25 -10h-222q-8 0 -8 8v307h-9q-8 0 -8 8zM182 120h57 q8 0 8 8v179q0 8 -8 8h-57v-195z" />
<glyph unicode="C" horiz-adv-x="378" d="M236 500q-8 0 -8 8v114q0 8 -8 8h-49q-8 0 -8 -8v-494q0 -8 8 -8h49q8 0 8 8v114q0 8 8 8h104q8 0 8 -8v-167q0 -15 -10 -25l-40 -40q-10 -10 -25 -10h-155q-15 0 -25 10l-40 40q-10 10 -10 25v600q0 15 10 25l40 40q10 10 25 10h155q15 0 25 -10l40 -40q10 -10 10 -25 v-167q0 -8 -8 -8h-104z" />
<glyph unicode="D" horiz-adv-x="393" d="M230 622q0 8 -8 8h-57v-510h57q8 0 8 8v494zM45 8v734q0 8 8 8h222q15 0 25 -10l40 -40q10 -10 10 -25v-600q0 -15 -10 -25l-40 -40q-10 -10 -25 -10h-222q-8 0 -8 8z" />
<glyph unicode="E" horiz-adv-x="337" d="M294 750q8 0 8 -8v-104q0 -8 -8 -8h-112v-195h112q8 0 8 -8v-104q0 -8 -8 -8h-112v-195h112q8 0 8 -8v-104q0 -8 -8 -8h-224q-8 0 -8 8v307h-9q-8 0 -8 8v104q0 8 8 8h9v307q0 8 8 8h224z" />
<glyph unicode="F" horiz-adv-x="327" d="M182 8q0 -8 -8 -8h-104q-8 0 -8 8v307h-9q-8 0 -8 8v104q0 8 8 8h9v307q0 8 8 8h224q8 0 8 -8v-104q0 -8 -8 -8h-112v-195h112q8 0 8 -8v-104q0 -8 -8 -8h-112v-307z" />
<glyph unicode="G" d="M348 427q0 8 -8 8h-137q-8 0 -8 -8v-104q0 -8 8 -8h25v-187q0 -8 -8 -8h-49q-8 0 -8 8v494q0 8 8 8h49q8 0 8 -8v-114q0 -8 8 -8h104q8 0 8 8v167q0 15 -10 25l-40 40q-10 10 -25 10h-155q-15 0 -25 -10l-40 -40q-10 -10 -10 -25v-600q0 -15 10 -25l40 -40q10 -10 25 -10 h155q15 0 25 10l40 40q10 10 10 25v352z" />
<glyph unicode="H" horiz-adv-x="395" d="M350 8q0 -8 -8 -8h-104q-8 0 -8 8v307h-65v-307q0 -8 -8 -8h-104q-8 0 -8 8v734q0 8 8 8h104q8 0 8 -8v-307h65v307q0 8 8 8h104q8 0 8 -8v-734z" />
<glyph unicode="I" horiz-adv-x="210" d="M157 750q8 0 8 -8v-734q0 -8 -8 -8h-104q-8 0 -8 8v734q0 8 8 8h104z" />
<glyph unicode="J" horiz-adv-x="365" d="M322 750q8 0 8 -8v-667q0 -15 -10 -25l-40 -40q-10 -10 -25 -10h-155q-15 0 -25 10l-40 40q-10 10 -10 25v167q0 8 8 8h104q8 0 8 -8v-114q0 -8 8 -8h49q8 0 8 8v614q0 8 8 8h104z" />
<glyph unicode="K" horiz-adv-x="387" d="M261 0q-6 0 -8 8l-91 307v-307q0 -8 -8 -8h-101q-8 0 -8 8v734q0 8 8 8h101q8 0 8 -8v-307l87 307q2 8 8 8h100q9 0 7 -8l-107 -367l110 -367q2 -8 -7 -8h-99z" />
<glyph unicode="L" horiz-adv-x="320" d="M157 750q8 0 8 -8v-622h112q8 0 8 -8v-104q0 -8 -8 -8h-224q-8 0 -8 8v734q0 8 8 8h104z" />
<glyph unicode="M" horiz-adv-x="470" d="M425 8q0 -8 -8 -8h-104q-8 0 -8 8v342l-63 -342q-2 -8 -6 -8h-2q-4 0 -6 8l-63 342v-342q0 -8 -8 -8h-104q-8 0 -8 8v734q0 8 8 8h109q6 0 8 -8l65 -322l65 322q2 8 8 8h109q8 0 8 -8v-734z" />
<glyph unicode="N" horiz-adv-x="395" d="M342 750q8 0 8 -8v-734q0 -8 -8 -8h-104q-6 0 -8 8l-65 332v-332q0 -8 -8 -8h-104q-8 0 -8 8v734q0 8 8 8h104q6 0 8 -8l65 -332v332q0 8 8 8h104z" />
<glyph unicode="O" d="M228 622q0 8 -8 8h-49q-8 0 -8 -8v-494q0 -8 8 -8h49q8 0 8 8v494zM43 75v600q0 15 10 25l40 40q10 10 25 10h155q15 0 25 -10l40 -40q10 -10 10 -25v-600q0 -15 -10 -25l-40 -40q-10 -10 -25 -10h-155q-15 0 -25 10l-40 40q-10 10 -10 25z" />
<glyph unicode="P" horiz-adv-x="397" d="M247 622q0 8 -8 8h-57v-195h57q8 0 8 8v179zM45 323v104q0 8 8 8h9v307q0 8 8 8h222q15 0 25 -10l40 -40q10 -10 10 -25v-285q0 -15 -10 -25l-40 -40q-10 -10 -25 -10h-110v-307q0 -8 -8 -8h-104q-8 0 -8 8v307h-9q-8 0 -8 8z" />
<glyph unicode="Q" horiz-adv-x="426" d="M55 50q-10 10 -10 25v600q0 15 10 25l40 40q10 10 25 10h155q15 0 25 -10l40 -40q10 -10 10 -25v-552l58 -55q6 -6 0 -12l-46 -53q-6 -6 -12 0l-31 27l-19 -20q-10 -10 -25 -10h-155q-15 0 -25 10zM165 128q0 -8 8 -8h57l-38 39q-6 6 0 12l38 38v413q0 8 -8 8h-49 q-8 0 -8 -8v-494z" />
<glyph unicode="R" horiz-adv-x="402" d="M239 435q8 0 8 8v179q0 8 -8 8h-57v-195h57zM45 323v104q0 8 8 8h9v307q0 8 8 8h222q15 0 25 -10l40 -40q10 -10 10 -25v-225q0 -15 -10 -25l-50 -50l50 -50q10 -10 10 -25v-292q0 -8 -8 -8h-104q-8 0 -8 8v299q0 8 -8 8h-57v-307q0 -8 -8 -8h-104q-8 0 -8 8v307h-9 q-8 0 -8 8z" />
<glyph unicode="S" horiz-adv-x="375" d="M228 500q-8 0 -8 8v114q0 8 -8 8h-49q-8 0 -8 -8v-104q0 -1 2 -5l176 -225q7 -8 7 -20v-193q0 -15 -10 -25l-40 -40q-10 -10 -25 -10h-155q-15 0 -25 10l-40 40q-10 10 -10 25v167q0 8 8 8h104q8 0 8 -8v-114q0 -8 8 -8h49q8 0 8 8v102q0 2 -2 6l-176 225q-7 8 -7 20v194 q0 15 10 25l40 40q10 10 25 10h155q15 0 25 -10l40 -40q10 -10 10 -25v-167q0 -8 -8 -8h-104z" />
<glyph unicode="T" horiz-adv-x="356" d="M323 750q8 0 8 -8v-104q0 -8 -8 -8h-85v-622q0 -8 -8 -8h-104q-8 0 -8 8v622h-85q-8 0 -8 8v104q0 8 8 8h290z" />
<glyph unicode="U" horiz-adv-x="395" d="M342 750q8 0 8 -8v-667q0 -15 -10 -25l-40 -40q-10 -10 -25 -10h-155q-15 0 -25 10l-40 40q-10 10 -10 25v667q0 8 8 8h104q8 0 8 -8v-614q0 -8 8 -8h49q8 0 8 8v614q0 8 8 8h104z" />
<glyph unicode="V" horiz-adv-x="386" d="M257 8q-2 -8 -8 -8h-112q-6 0 -8 8l-103 734q-2 8 7 8h98q6 0 8 -8l54 -495l54 495q2 8 8 8h98q9 0 7 -8z" />
<glyph unicode="W" horiz-adv-x="558" d="M458 8q-2 -8 -8 -8h-107q-6 0 -8 8l-56 439l-56 -439q-2 -8 -8 -8h-107q-6 0 -8 8l-74 734q0 8 8 8h92q8 0 8 -8l40 -490l45 490q2 8 8 8h104q8 0 8 -8l45 -490l40 490q2 8 8 8h92q2 0 5 -2.5t3 -5.5z" />
<glyph unicode="X" horiz-adv-x="392" d="M27 742l99 -367l-101 -367q-2 -8 7 -8h96q6 0 8 8l60 237l60 -237q2 -8 8 -8h96q9 0 7 8l-101 367l99 367q2 8 -7 8h-99q-6 0 -8 -8l-55 -237l-55 237q-2 8 -8 8h-99q-9 0 -7 -8z" />
<glyph unicode="Y" horiz-adv-x="410" d="M30 742l117 -405v-329q0 -8 8 -8h100q8 0 8 8v329l117 405q2 8 -7 8h-98q-6 0 -8 -8l-62 -257l-62 257q-2 8 -8 8h-98q-9 0 -7 -8z" />
<glyph unicode="Z" horiz-adv-x="360" d="M317 750q8 0 8 -8v-104q0 -7 -6 -25l-166 -493h169q8 0 8 -8v-104q0 -8 -8 -8h-284q-8 0 -8 8v106q0 12 7 26l165 490h-159q-8 0 -8 8v104q0 8 8 8h274z" />
<glyph unicode="[" horiz-adv-x="281" d="M38 750q-8 0 -8 -8v-734q0 -8 8 -8h215q8 0 8 8v93q0 7 -8 7h-115v534h115q8 0 8 8v92q0 8 -8 8h-215z" />
<glyph unicode="\" horiz-adv-x="362" d="M20 750q-13 0 -10 -11l215 -731q2 -8 11 -8h107q12 0 8 12l-215 730q-2 8 -8 8h-108z" />
<glyph unicode="]" horiz-adv-x="281" d="M20 650q0 -8 8 -8h115v-534h-115q-8 0 -8 -7v-93q0 -8 8 -8h215q8 0 8 8v734q0 8 -8 8h-215q-8 0 -8 -8v-92z" />
<glyph unicode="^" horiz-adv-x="415" d="M26 448q-3 0 -5 3.5t1 8.5l136 281q4 9 13 9h82q9 0 13 -9l126 -280q2 -3 2.5 -6.5t-1 -5t-4.5 -1.5h-92q-11 0 -15 9l-70 181l-80 -181q-4 -9 -15 -9h-91z" />
<glyph unicode="_" horiz-adv-x="313" d="M285 0q8 0 8 -8v-92q0 -8 -8 -8h-257q-8 0 -8 8v92q0 8 8 8h257z" />
<glyph unicode="a" horiz-adv-x="380" d="M251 0q-6 0 -8 8l-23 186h-60l-23 -186q0 -8 -8 -8h-100q-9 0 -7 8l105 734q2 8 8 8h110q6 0 8 -8l105 -734q2 -8 -7 -8h-100zM162 314h56l-28 246z" />
<glyph unicode="b" horiz-adv-x="402" d="M247 622q0 8 -8 8h-57v-195h57q8 0 8 8v179zM45 323v104q0 8 8 8h9v307q0 8 8 8h222q13 0 25 -10l40 -40q10 -10 10 -25v-225q0 -15 -10 -25l-50 -50l50 -50q10 -12 10 -25v-225q0 -13 -10 -25l-40 -40q-12 -10 -25 -10h-222q-8 0 -8 8v307h-9q-8 0 -8 8zM182 120h57 q8 0 8 8v179q0 8 -8 8h-57v-195z" />
<glyph unicode="c" horiz-adv-x="378" d="M236 500q-8 0 -8 8v114q0 8 -8 8h-49q-8 0 -8 -8v-494q0 -8 8 -8h49q8 0 8 8v114q0 8 8 8h104q8 0 8 -8v-167q0 -15 -10 -25l-40 -40q-10 -10 -25 -10h-155q-15 0 -25 10l-40 40q-10 10 -10 25v600q0 15 10 25l40 40q10 10 25 10h155q15 0 25 -10l40 -40q10 -10 10 -25 v-167q0 -8 -8 -8h-104z" />
<glyph unicode="d" horiz-adv-x="393" d="M230 622q0 8 -8 8h-57v-510h57q8 0 8 8v494zM45 8v734q0 8 8 8h222q15 0 25 -10l40 -40q10 -10 10 -25v-600q0 -15 -10 -25l-40 -40q-10 -10 -25 -10h-222q-8 0 -8 8z" />
<glyph unicode="e" horiz-adv-x="337" d="M294 750q8 0 8 -8v-104q0 -8 -8 -8h-112v-195h112q8 0 8 -8v-104q0 -8 -8 -8h-112v-195h112q8 0 8 -8v-104q0 -8 -8 -8h-224q-8 0 -8 8v307h-9q-8 0 -8 8v104q0 8 8 8h9v307q0 8 8 8h224z" />
<glyph unicode="f" horiz-adv-x="327" d="M182 8q0 -8 -8 -8h-104q-8 0 -8 8v307h-9q-8 0 -8 8v104q0 8 8 8h9v307q0 8 8 8h224q8 0 8 -8v-104q0 -8 -8 -8h-112v-195h112q8 0 8 -8v-104q0 -8 -8 -8h-112v-307z" />
<glyph unicode="g" d="M348 427q0 8 -8 8h-137q-8 0 -8 -8v-104q0 -8 8 -8h25v-187q0 -8 -8 -8h-49q-8 0 -8 8v494q0 8 8 8h49q8 0 8 -8v-114q0 -8 8 -8h104q8 0 8 8v167q0 15 -10 25l-40 40q-10 10 -25 10h-155q-15 0 -25 -10l-40 -40q-10 -10 -10 -25v-600q0 -15 10 -25l40 -40q10 -10 25 -10 h155q15 0 25 10l40 40q10 10 10 25v352z" />
<glyph unicode="h" horiz-adv-x="395" d="M350 8q0 -8 -8 -8h-104q-8 0 -8 8v307h-65v-307q0 -8 -8 -8h-104q-8 0 -8 8v734q0 8 8 8h104q8 0 8 -8v-307h65v307q0 8 8 8h104q8 0 8 -8v-734z" />
<glyph unicode="i" horiz-adv-x="210" d="M157 750q8 0 8 -8v-734q0 -8 -8 -8h-104q-8 0 -8 8v734q0 8 8 8h104z" />
<glyph unicode="j" horiz-adv-x="365" d="M322 750q8 0 8 -8v-667q0 -15 -10 -25l-40 -40q-10 -10 -25 -10h-155q-15 0 -25 10l-40 40q-10 10 -10 25v167q0 8 8 8h104q8 0 8 -8v-114q0 -8 8 -8h49q8 0 8 8v614q0 8 8 8h104z" />
<glyph unicode="k" horiz-adv-x="387" d="M261 0q-6 0 -8 8l-91 307v-307q0 -8 -8 -8h-101q-8 0 -8 8v734q0 8 8 8h101q8 0 8 -8v-307l87 307q2 8 8 8h100q9 0 7 -8l-107 -367l110 -367q2 -8 -7 -8h-99z" />
<glyph unicode="l" horiz-adv-x="320" d="M157 750q8 0 8 -8v-622h112q8 0 8 -8v-104q0 -8 -8 -8h-224q-8 0 -8 8v734q0 8 8 8h104z" />
<glyph unicode="m" horiz-adv-x="470" d="M425 8q0 -8 -8 -8h-104q-8 0 -8 8v342l-63 -342q-2 -8 -6 -8h-2q-4 0 -6 8l-63 342v-342q0 -8 -8 -8h-104q-8 0 -8 8v734q0 8 8 8h109q6 0 8 -8l65 -322l65 322q2 8 8 8h109q8 0 8 -8v-734z" />
<glyph unicode="n" horiz-adv-x="395" d="M342 750q8 0 8 -8v-734q0 -8 -8 -8h-104q-6 0 -8 8l-65 332v-332q0 -8 -8 -8h-104q-8 0 -8 8v734q0 8 8 8h104q6 0 8 -8l65 -332v332q0 8 8 8h104z" />
<glyph unicode="o" d="M228 622q0 8 -8 8h-49q-8 0 -8 -8v-494q0 -8 8 -8h49q8 0 8 8v494zM43 75v600q0 15 10 25l40 40q10 10 25 10h155q15 0 25 -10l40 -40q10 -10 10 -25v-600q0 -15 -10 -25l-40 -40q-10 -10 -25 -10h-155q-15 0 -25 10l-40 40q-10 10 -10 25z" />
<glyph unicode="p" horiz-adv-x="397" d="M247 622q0 8 -8 8h-57v-195h57q8 0 8 8v179zM45 323v104q0 8 8 8h9v307q0 8 8 8h222q15 0 25 -10l40 -40q10 -10 10 -25v-285q0 -15 -10 -25l-40 -40q-10 -10 -25 -10h-110v-307q0 -8 -8 -8h-104q-8 0 -8 8v307h-9q-8 0 -8 8z" />
<glyph unicode="q" horiz-adv-x="426" d="M55 50q-10 10 -10 25v600q0 15 10 25l40 40q10 10 25 10h155q15 0 25 -10l40 -40q10 -10 10 -25v-552l58 -55q6 -6 0 -12l-46 -53q-6 -6 -12 0l-31 27l-19 -20q-10 -10 -25 -10h-155q-15 0 -25 10zM165 128q0 -8 8 -8h57l-38 39q-6 6 0 12l38 38v413q0 8 -8 8h-49 q-8 0 -8 -8v-494z" />
<glyph unicode="r" horiz-adv-x="402" d="M239 435q8 0 8 8v179q0 8 -8 8h-57v-195h57zM45 323v104q0 8 8 8h9v307q0 8 8 8h222q15 0 25 -10l40 -40q10 -10 10 -25v-225q0 -15 -10 -25l-50 -50l50 -50q10 -10 10 -25v-292q0 -8 -8 -8h-104q-8 0 -8 8v299q0 8 -8 8h-57v-307q0 -8 -8 -8h-104q-8 0 -8 8v307h-9 q-8 0 -8 8z" />
<glyph unicode="s" horiz-adv-x="375" d="M228 500q-8 0 -8 8v114q0 8 -8 8h-49q-8 0 -8 -8v-104q0 -1 2 -5l176 -225q7 -8 7 -20v-193q0 -15 -10 -25l-40 -40q-10 -10 -25 -10h-155q-15 0 -25 10l-40 40q-10 10 -10 25v167q0 8 8 8h104q8 0 8 -8v-114q0 -8 8 -8h49q8 0 8 8v102q0 2 -2 6l-176 225q-7 8 -7 20v194 q0 15 10 25l40 40q10 10 25 10h155q15 0 25 -10l40 -40q10 -10 10 -25v-167q0 -8 -8 -8h-104z" />
<glyph unicode="t" horiz-adv-x="356" d="M323 750q8 0 8 -8v-104q0 -8 -8 -8h-85v-622q0 -8 -8 -8h-104q-8 0 -8 8v622h-85q-8 0 -8 8v104q0 8 8 8h290z" />
<glyph unicode="u" horiz-adv-x="395" d="M342 750q8 0 8 -8v-667q0 -15 -10 -25l-40 -40q-10 -10 -25 -10h-155q-15 0 -25 10l-40 40q-10 10 -10 25v667q0 8 8 8h104q8 0 8 -8v-614q0 -8 8 -8h49q8 0 8 8v614q0 8 8 8h104z" />
<glyph unicode="v" horiz-adv-x="386" d="M257 8q-2 -8 -8 -8h-112q-6 0 -8 8l-103 734q-2 8 7 8h98q6 0 8 -8l54 -495l54 495q2 8 8 8h98q9 0 7 -8z" />
<glyph unicode="w" horiz-adv-x="558" d="M458 8q-2 -8 -8 -8h-107q-6 0 -8 8l-56 439l-56 -439q-2 -8 -8 -8h-107q-6 0 -8 8l-74 734q0 8 8 8h92q8 0 8 -8l40 -490l45 490q2 8 8 8h104q8 0 8 -8l45 -490l40 490q2 8 8 8h92q2 0 5 -2.5t3 -5.5z" />
<glyph unicode="x" horiz-adv-x="392" d="M27 742l99 -367l-101 -367q-2 -8 7 -8h96q6 0 8 8l60 237l60 -237q2 -8 8 -8h96q9 0 7 8l-101 367l99 367q2 8 -7 8h-99q-6 0 -8 -8l-55 -237l-55 237q-2 8 -8 8h-99q-9 0 -7 -8z" />
<glyph unicode="y" horiz-adv-x="410" d="M30 742l117 -405v-329q0 -8 8 -8h100q8 0 8 8v329l117 405q2 8 -7 8h-98q-6 0 -8 -8l-62 -257l-62 257q-2 8 -8 8h-98q-9 0 -7 -8z" />
<glyph unicode="z" horiz-adv-x="360" d="M317 750q8 0 8 -8v-104q0 -7 -6 -25l-166 -493h169q8 0 8 -8v-104q0 -8 -8 -8h-284q-8 0 -8 8v106q0 12 7 26l165 490h-159q-8 0 -8 8v104q0 8 8 8h274z" />
<glyph unicode="{" horiz-adv-x="378" d="M189 0q-15 0 -25 10l-66 70q-10 10 -10 25v198l-52 46q-6 6 -6 11v34q0 5 6 11l52 46v197q0 15 10 25l67 67q10 10 25 10h160q8 0 8 -8v-92q0 -8 -8 -8h-105q-10 0 -18 -8l-23 -21q-8 -8 -8 -18v-154q0 -4 -5 -9l-41 -37q-3 -3 -3 -7v-22q0 -4 3 -7l41 -39q5 -5 5 -9 v-154q0 -10 8 -18l23 -23q8 -8 18 -8h105q8 0 8 -8v-92q0 -8 -8 -8h-161z" />
<glyph unicode="}" horiz-adv-x="378" d="M28 0q-8 0 -8 8v92q0 8 8 8h105q10 0 18 8l23 23q8 8 8 18v154q0 4 5 9l41 39q3 3 3 7v22q0 4 -3 7l-41 37q-5 5 -5 9v154q0 10 -8 18l-23 21q-8 8 -18 8h-105q-8 0 -8 8v92q0 8 8 8h160q15 0 25 -10l67 -67q10 -10 10 -25v-197l52 -46q6 -6 6 -11v-34q0 -5 -6 -11 l-52 -46v-198q0 -15 -10 -25l-66 -70q-10 -10 -25 -10h-161z" />
<glyph unicode="~" horiz-adv-x="594" d="M118 217q0 -8 8 -8h87q3 0 4 2l123 199q7 7 23 7h121q15 0 25 -10l58 -60q7 -7 7 -20v-82q0 -8 -8 -8h-82q-8 0 -8 8v66q0 8 -8 8h-86q-3 0 -4 -2l-121 -196q-10 -10 -25 -10h-123q-14 0 -25 11l-54 55q-10 10 -10 25v78q0 8 8 8h82q8 0 8 -8v-63z" />
<glyph unicode="&#xa2;" horiz-adv-x="385" d="M233 428q-8 0 -8 8v53q0 8 -8 8h-49q-8 0 -8 -8v-227q0 -8 8 -8h49q8 0 8 8v54q0 8 8 8h104q8 0 8 -8v-107q0 -15 -10 -25l-40 -40q-10 -10 -25 -10h-37v-126q0 -8 -8 -8h-64q-8 0 -8 8v126h-38q-15 0 -25 10l-40 40q-10 10 -10 25v333q0 15 10 25l40 40q10 10 25 10h38 v125q0 8 8 8h64q8 0 8 -8v-125h37q15 0 25 -10l40 -40q10 -10 10 -25v-106q0 -8 -8 -8h-104z" />
<glyph unicode="&#xa3;" horiz-adv-x="420" d="M380 508q0 -8 -8 -8h-104q-8 0 -8 8v114q0 8 -8 8h-49q-8 0 -8 -8v-213h117q8 0 8 -8v-104q0 -8 -8 -8h-117v-169h177q8 0 8 -8v-104q0 -8 -8 -8h-319q-8 0 -8 8v104q0 8 8 8h22v169h-22q-8 0 -8 8v104q0 8 8 8h22v333q0 8 8 8h289q8 0 8 -8v-234z" />
<glyph unicode="&#xa4;" horiz-adv-x="405" d="M263 500q-8 0 -8 8v114q0 8 -8 8h-49q-8 0 -8 -8v-161h25q8 0 8 -8v-55q0 -8 -8 -8h-25v-30h25q8 0 8 -8v-55q0 -8 -8 -8h-25v-161q0 -8 8 -8h49q8 0 8 8v114q0 8 8 8h104q8 0 8 -8v-167q0 -15 -10 -25l-40 -40q-10 -10 -25 -10h-155q-15 0 -25 10l-40 40q-10 10 -10 25 v214h-27q-3 0 -6 3t-2 5v55q0 8 8 8h27v30h-27q-3 0 -6 3t-2 5v55q0 8 8 8h27v214q0 15 10 25l40 40q10 10 25 10h155q15 0 25 -10l40 -40q10 -10 10 -25v-167q0 -8 -8 -8h-104z" />
<glyph unicode="&#xad;" horiz-adv-x="294" d="M266 429q8 0 8 -8v-92q0 -8 -8 -8h-238q-8 0 -8 8v92q0 8 8 8h238z" />
<glyph unicode="&#xc0;" horiz-adv-x="380" d="M251 0q-6 0 -8 8l-23 186h-60l-23 -186q0 -8 -8 -8h-100q-9 0 -7 8l105 734q2 8 8 8h110q6 0 8 -8l105 -734q2 -8 -7 -8h-100zM81 882q-6 8 3 8h85q5 0 8 -4l49 -88q2 -2 0.5 -5t-4.5 -3h-66q-5 0 -8 4zM162 314h56l-28 246z" />
<glyph unicode="&#xc1;" horiz-adv-x="380" d="M298 890q9 0 3 -8l-67 -88q-3 -4 -8 -4h-66q-3 0 -4.5 3t0.5 5l49 88q3 4 8 4h85zM22 8l105 734q2 8 8 8h110q6 0 8 -8l105 -734q2 -8 -7 -8h-100q-6 0 -8 8l-23 186h-60l-23 -186q0 -8 -8 -8h-100q-9 0 -7 8zM162 314h56l-28 246z" />
<glyph unicode="&#xc2;" horiz-adv-x="380" d="M251 0q-6 0 -8 8l-23 186h-60l-23 -186q0 -8 -8 -8h-100q-9 0 -7 8l105 734q2 8 8 8h110q6 0 8 -8l105 -734q2 -8 -7 -8h-100zM87 798l50 86q3 6 10 6h88q7 0 10 -6l50 -86q1 -2 -1 -5t-5 -3h-64q-5 0 -8 4l-26 48l-26 -48q-3 -4 -8 -4h-64q-3 0 -5 3t-1 5zM162 314h56 l-28 246z" />
<glyph unicode="&#xc3;" horiz-adv-x="380" d="M321 908q7 0 7 -8v-57q0 -5 -5 -10l-35 -36q-7 -7 -18 -7h-46q-10 0 -17 7l-58 60h-15q-5 0 -5 -5v-32q0 -8 -8 -8h-59q-8 0 -8 8v57q0 5 5 10l35 36q7 7 18 7h48q10 0 17 -7l56 -60h15q5 0 5 5v32q0 8 8 8h60zM22 8l105 734q2 8 8 8h110q6 0 8 -8l105 -734q2 -8 -7 -8 h-100q-6 0 -8 8l-23 186h-60l-23 -186q0 -8 -8 -8h-100q-9 0 -7 8zM162 314h56l-28 246z" />
<glyph unicode="&#xc4;" horiz-adv-x="380" d="M73 882q0 8 8 8h84q8 0 8 -8v-84q0 -8 -8 -8h-84q-8 0 -8 8v84zM22 8l105 734q2 8 8 8h110q6 0 8 -8l105 -734q2 -8 -7 -8h-100q-6 0 -8 8l-23 186h-60l-23 -186q0 -8 -8 -8h-100q-9 0 -7 8zM162 314h56l-28 246zM209 798v84q0 8 8 8h84q8 0 8 -8v-84q0 -8 -8 -8h-84 q-8 0 -8 8z" />
<glyph unicode="&#xc5;" horiz-adv-x="380" d="M86 940q0 5 5 10l47 43q7 7 18 7h74q11 0 18 -7l43 -43q5 -5 5 -10v-90q0 -5 -5 -10l-43 -43q-7 -7 -18 -7h-74q-12 0 -19 7l-46 43q-5 5 -5 10v90zM22 8l105 734q2 8 8 8h110q6 0 8 -8l105 -734q2 -8 -7 -8h-100q-6 0 -8 8l-23 186h-60l-23 -186q0 -8 -8 -8h-100 q-9 0 -7 8zM161 870q0 -5 5 -5h50q5 0 5 5v50q0 5 -5 5h-50q-5 0 -5 -5v-50zM162 314h56l-28 246z" />
<glyph unicode="&#xc6;" horiz-adv-x="525" d="M240 314v256l-49 -256h49zM22 8l155 734q2 8 8 8h287q8 0 8 -8v-104q0 -8 -8 -8h-112v-195h112q8 0 8 -8v-104q0 -8 -8 -8h-112v-195h112q8 0 8 -8v-104q0 -8 -8 -8h-224q-8 0 -8 8v186h-64l-38 -186q-2 -8 -8 -8h-100q-3 0 -6 2.5t-2 5.5z" />
<glyph unicode="&#xc7;" horiz-adv-x="378" d="M290 -63q5 -5 5 -12v-80q0 -5 -5 -10l-43 -43q-7 -7 -19 -7h-61q-12 0 -19 7l-44 44q-4 4 -4 11v62q0 8 8 8h54q8 0 8 -8v-49q0 -5 5 -5h45q5 0 5 5v57l-73 83h-34q-15 0 -25 10l-40 40q-10 10 -10 25v600q0 15 10 25l40 40q10 10 25 10h155q15 0 25 -10l40 -40 q10 -10 10 -25v-167q0 -8 -8 -8h-104q-8 0 -8 8v114q0 8 -8 8h-49q-8 0 -8 -8v-494q0 -8 8 -8h49q8 0 8 8v114q0 8 8 8h104q8 0 8 -8v-167q0 -15 -10 -25l-40 -40q-10 -10 -25 -10h-37z" />
<glyph unicode="&#xc8;" horiz-adv-x="337" d="M294 750q8 0 8 -8v-104q0 -8 -8 -8h-112v-195h112q8 0 8 -8v-104q0 -8 -8 -8h-112v-195h112q8 0 8 -8v-104q0 -8 -8 -8h-224q-8 0 -8 8v307h-9q-8 0 -8 8v104q0 8 8 8h9v307q0 8 8 8h224zM112 882q-6 8 3 8h85q5 0 8 -4l49 -88q2 -2 0.5 -5t-4.5 -3h-66q-5 0 -8 4z" />
<glyph unicode="&#xc9;" horiz-adv-x="337" d="M294 750q8 0 8 -8v-104q0 -8 -8 -8h-112v-195h112q8 0 8 -8v-104q0 -8 -8 -8h-112v-195h112q8 0 8 -8v-104q0 -8 -8 -8h-224q-8 0 -8 8v307h-9q-8 0 -8 8v104q0 8 8 8h9v307q0 8 8 8h224zM107 798l49 88q3 4 8 4h85q9 0 3 -8l-67 -88q-3 -4 -8 -4h-66q-3 0 -4.5 3t0.5 5z " />
<glyph unicode="&#xca;" horiz-adv-x="337" d="M294 750q8 0 8 -8v-104q0 -8 -8 -8h-112v-195h112q8 0 8 -8v-104q0 -8 -8 -8h-112v-195h112q8 0 8 -8v-104q0 -8 -8 -8h-224q-8 0 -8 8v307h-9q-8 0 -8 8v104q0 8 8 8h9v307q0 8 8 8h224zM78 798l50 86q3 6 10 6h88q7 0 10 -6l50 -86q1 -2 -1 -5t-5 -3h-64q-5 0 -8 4 l-26 48l-26 -48q-3 -4 -8 -4h-64q-3 0 -5 3t-1 5z" />
<glyph unicode="&#xcb;" horiz-adv-x="337" d="M294 750q8 0 8 -8v-104q0 -8 -8 -8h-112v-195h112q8 0 8 -8v-104q0 -8 -8 -8h-112v-195h112q8 0 8 -8v-104q0 -8 -8 -8h-224q-8 0 -8 8v307h-9q-8 0 -8 8v104q0 8 8 8h9v307q0 8 8 8h224zM64 798v84q0 8 8 8h84q8 0 8 -8v-84q0 -8 -8 -8h-84q-8 0 -8 8zM200 798v84 q0 8 8 8h84q8 0 8 -8v-84q0 -8 -8 -8h-84q-8 0 -8 8z" />
<glyph unicode="&#xcc;" horiz-adv-x="220" d="M167 750q8 0 8 -8v-734q0 -8 -8 -8h-104q-8 0 -8 8v734q0 8 8 8h104zM27 882q-6 8 3 8h85q5 0 8 -4l49 -88q2 -2 0.5 -5t-4.5 -3h-66q-5 0 -8 4z" />
<glyph unicode="&#xcd;" horiz-adv-x="222" d="M157 750q8 0 8 -8v-734q0 -8 -8 -8h-104q-8 0 -8 8v734q0 8 8 8h104zM50 798l49 88q3 4 8 4h85q9 0 3 -8l-67 -88q-3 -4 -8 -4h-66q-3 0 -4.5 3t0.5 5z" />
<glyph unicode="&#xce;" horiz-adv-x="258" d="M181 750q8 0 8 -8v-734q0 -8 -8 -8h-104q-8 0 -8 8v734q0 8 8 8h104zM25 798l50 86q3 6 10 6h88q7 0 10 -6l50 -86q1 -2 -1 -5t-5 -3h-64q-5 0 -8 4l-26 48l-26 -48q-3 -4 -8 -4h-64q-3 0 -5 3t-1 5z" />
<glyph unicode="&#xcf;" horiz-adv-x="286" d="M195 750q8 0 8 -8v-734q0 -8 -8 -8h-104q-8 0 -8 8v734q0 8 8 8h104zM25 798v84q0 8 8 8h84q8 0 8 -8v-84q0 -8 -8 -8h-84q-8 0 -8 8zM161 798v84q0 8 8 8h84q8 0 8 -8v-84q0 -8 -8 -8h-84q-8 0 -8 8z" />
<glyph unicode="&#xd0;" horiz-adv-x="416" d="M245 630h-57v-195h24q8 0 8 -8v-104q0 -8 -8 -8h-24v-195h57q8 0 8 8v494q0 8 -8 8zM38 323v104q0 8 8 8h22v307q0 8 8 8h222q15 0 25 -10l40 -40q10 -10 10 -25v-600q0 -15 -10 -25l-40 -40q-10 -10 -25 -10h-222q-8 0 -8 8v307h-22q-8 0 -8 8z" />
<glyph unicode="&#xd1;" horiz-adv-x="395" d="M342 750q8 0 8 -8v-734q0 -8 -8 -8h-104q-6 0 -8 8l-65 332v-332q0 -8 -8 -8h-104q-8 0 -8 8v734q0 8 8 8h104q6 0 8 -8l65 -332v332q0 8 8 8h104zM60 820v57q0 5 5 10l35 36q7 7 18 7h48q10 0 17 -7l56 -60h15q5 0 5 5v32q0 8 8 8h60q7 0 7 -8v-57q0 -5 -5 -10l-35 -36 q-7 -7 -18 -7h-46q-10 0 -17 7l-58 60h-15q-5 0 -5 -5v-32q0 -8 -8 -8h-59q-8 0 -8 8z" />
<glyph unicode="&#xd2;" d="M228 622q0 8 -8 8h-49q-8 0 -8 -8v-494q0 -8 8 -8h49q8 0 8 8v494zM43 75v600q0 15 10 25l40 40q10 10 25 10h155q15 0 25 -10l40 -40q10 -10 10 -25v-600q0 -15 -10 -25l-40 -40q-10 -10 -25 -10h-155q-15 0 -25 10l-40 40q-10 10 -10 25zM86 882q-6 8 3 8h85q5 0 8 -4 l49 -88q2 -2 0.5 -5t-4.5 -3h-66q-5 0 -8 4z" />
<glyph unicode="&#xd3;" d="M228 622q0 8 -8 8h-49q-8 0 -8 -8v-494q0 -8 8 -8h49q8 0 8 8v494zM43 75v600q0 15 10 25l40 40q10 10 25 10h155q15 0 25 -10l40 -40q10 -10 10 -25v-600q0 -15 -10 -25l-40 -40q-10 -10 -25 -10h-155q-15 0 -25 10l-40 40q-10 10 -10 25zM159 798l49 88q3 4 8 4h85 q9 0 3 -8l-67 -88q-3 -4 -8 -4h-66q-3 0 -4.5 3t0.5 5z" />
<glyph unicode="&#xd4;" d="M228 622q0 8 -8 8h-49q-8 0 -8 -8v-494q0 -8 8 -8h49q8 0 8 8v494zM43 75v600q0 15 10 25l40 40q10 10 25 10h155q15 0 25 -10l40 -40q10 -10 10 -25v-600q0 -15 -10 -25l-40 -40q-10 -10 -25 -10h-155q-15 0 -25 10l-40 40q-10 10 -10 25zM91 798l50 86q3 6 10 6h88 q7 0 10 -6l50 -86q1 -2 -1 -5t-5 -3h-64q-5 0 -8 4l-26 48l-26 -48q-3 -4 -8 -4h-64q-3 0 -5 3t-1 5z" />
<glyph unicode="&#xd5;" d="M228 622q0 8 -8 8h-49q-8 0 -8 -8v-494q0 -8 8 -8h49q8 0 8 8v494zM43 75v600q0 15 10 25l40 40q10 10 25 10h155q15 0 25 -10l40 -40q10 -10 10 -25v-600q0 -15 -10 -25l-40 -40q-10 -10 -25 -10h-155q-15 0 -25 10l-40 40q-10 10 -10 25zM58 821v57q0 5 5 10l35 36 q7 7 18 7h48q10 0 17 -7l56 -60h15q5 0 5 5v32q0 8 8 8h60q7 0 7 -8v-57q0 -5 -5 -10l-35 -36q-7 -7 -18 -7h-46q-10 0 -17 7l-58 60h-15q-5 0 -5 -5v-32q0 -8 -8 -8h-59q-8 0 -8 8z" />
<glyph unicode="&#xd6;" d="M228 622q0 8 -8 8h-49q-8 0 -8 -8v-494q0 -8 8 -8h49q8 0 8 8v494zM43 75v600q0 15 10 25l40 40q10 10 25 10h155q15 0 25 -10l40 -40q10 -10 10 -25v-600q0 -15 -10 -25l-40 -40q-10 -10 -25 -10h-155q-15 0 -25 10l-40 40q-10 10 -10 25zM78 798v84q0 8 8 8h84 q8 0 8 -8v-84q0 -8 -8 -8h-84q-8 0 -8 8zM214 798v84q0 8 8 8h84q8 0 8 -8v-84q0 -8 -8 -8h-84q-8 0 -8 8z" />
<glyph unicode="&#xd7;" horiz-adv-x="326" d="M98 511l65 -65l65 65q2 2 6 2t5 -2l65 -65q2 -2 2 -5.5t-2 -5.5l-65 -65l65 -65q2 -2 2 -5.5t-2 -5.5l-65 -65q-1 -2 -5 -2t-6 2l-65 65l-65 -65q-2 -2 -6 -2t-5 2l-65 65q-2 2 -2 5.5t2 5.5l65 65l-65 65q-2 2 -2 5.5t2 5.5l65 65q1 2 5 2t6 -2z" />
<glyph unicode="&#xd8;" d="M294 787l-7 -37l51 -50q10 -10 10 -25v-599q0 -15 -10 -25l-41 -41q-10 -10 -25 -10h-120l-7 -36q-2 -8 -8 -8h-31q-8 0 -8 8l6 37l-51 50q-10 10 -10 25v598q0 15 10 25l41 41q10 10 25 10h119l7 37q2 8 8 8h34q9 0 7 -8zM163 330l54 300h-46q-8 0 -8 -8v-292zM174 120 h46q8 0 8 8v291z" />
<glyph unicode="&#xd9;" horiz-adv-x="395" d="M342 750q8 0 8 -8v-667q0 -15 -10 -25l-40 -40q-10 -10 -25 -10h-155q-15 0 -25 10l-40 40q-10 10 -10 25v667q0 8 8 8h104q8 0 8 -8v-614q0 -8 8 -8h49q8 0 8 8v614q0 8 8 8h104zM89 882q-6 8 3 8h85q5 0 8 -4l49 -88q2 -2 0.5 -5t-4.5 -3h-66q-5 0 -8 4z" />
<glyph unicode="&#xda;" horiz-adv-x="395" d="M342 750q8 0 8 -8v-667q0 -15 -10 -25l-40 -40q-10 -10 -25 -10h-155q-15 0 -25 10l-40 40q-10 10 -10 25v667q0 8 8 8h104q8 0 8 -8v-614q0 -8 8 -8h49q8 0 8 8v614q0 8 8 8h104zM163 798l49 88q3 4 8 4h85q9 0 3 -8l-67 -88q-3 -4 -8 -4h-66q-3 0 -4.5 3t0.5 5z" />
<glyph unicode="&#xdb;" horiz-adv-x="395" d="M342 750q8 0 8 -8v-667q0 -15 -10 -25l-40 -40q-10 -10 -25 -10h-155q-15 0 -25 10l-40 40q-10 10 -10 25v667q0 8 8 8h104q8 0 8 -8v-614q0 -8 8 -8h49q8 0 8 8v614q0 8 8 8h104zM93 798l50 86q3 6 10 6h88q7 0 10 -6l50 -86q1 -2 -1 -5t-5 -3h-64q-5 0 -8 4l-26 48 l-26 -48q-3 -4 -8 -4h-64q-3 0 -5 3t-1 5z" />
<glyph unicode="&#xdc;" horiz-adv-x="395" d="M342 750q8 0 8 -8v-667q0 -15 -10 -25l-40 -40q-10 -10 -25 -10h-155q-15 0 -25 10l-40 40q-10 10 -10 25v667q0 8 8 8h104q8 0 8 -8v-614q0 -8 8 -8h49q8 0 8 8v614q0 8 8 8h104zM80 798v84q0 8 8 8h84q8 0 8 -8v-84q0 -8 -8 -8h-84q-8 0 -8 8zM216 798v84q0 8 8 8h84 q8 0 8 -8v-84q0 -8 -8 -8h-84q-8 0 -8 8z" />
<glyph unicode="&#xdd;" horiz-adv-x="410" d="M30 742l117 -405v-329q0 -8 8 -8h100q8 0 8 8v329l117 405q2 8 -7 8h-98q-6 0 -8 -8l-62 -257l-62 257q-2 8 -8 8h-98q-9 0 -7 -8zM172 798l49 88q3 4 8 4h85q9 0 3 -8l-67 -88q-3 -4 -8 -4h-66q-3 0 -4.5 3t0.5 5z" />
<glyph unicode="&#xde;" horiz-adv-x="396" d="M157 750q8 0 8 -8v-157h73q15 0 25 -10l93 -93q10 -10 10 -25v-165q0 -15 -10 -25l-91 -92q-10 -10 -25 -10h-75v-157q0 -8 -8 -8h-104q-8 0 -8 8v734q0 8 8 8h104zM165 285h41q8 0 16 8l19 19q5 5 5 14v98q0 9 -5 14l-19 19q-8 8 -16 8h-41v-180z" />
<glyph unicode="&#xe0;" horiz-adv-x="380" d="M251 0q-6 0 -8 8l-23 186h-60l-23 -186q0 -8 -8 -8h-100q-9 0 -7 8l105 734q2 8 8 8h110q6 0 8 -8l105 -734q2 -8 -7 -8h-100zM81 882q-6 8 3 8h85q5 0 8 -4l49 -88q2 -2 0.5 -5t-4.5 -3h-66q-5 0 -8 4zM162 314h56l-28 246z" />
<glyph unicode="&#xe1;" horiz-adv-x="380" d="M298 890q9 0 3 -8l-67 -88q-3 -4 -8 -4h-66q-3 0 -4.5 3t0.5 5l49 88q3 4 8 4h85zM22 8l105 734q2 8 8 8h110q6 0 8 -8l105 -734q2 -8 -7 -8h-100q-6 0 -8 8l-23 186h-60l-23 -186q0 -8 -8 -8h-100q-9 0 -7 8zM162 314h56l-28 246z" />
<glyph unicode="&#xe2;" horiz-adv-x="380" d="M251 0q-6 0 -8 8l-23 186h-60l-23 -186q0 -8 -8 -8h-100q-9 0 -7 8l105 734q2 8 8 8h110q6 0 8 -8l105 -734q2 -8 -7 -8h-100zM87 798l50 86q3 6 10 6h88q7 0 10 -6l50 -86q1 -2 -1 -5t-5 -3h-64q-5 0 -8 4l-26 48l-26 -48q-3 -4 -8 -4h-64q-3 0 -5 3t-1 5zM162 314h56 l-28 246z" />
<glyph unicode="&#xe3;" horiz-adv-x="380" d="M321 908q7 0 7 -8v-57q0 -5 -5 -10l-35 -36q-7 -7 -18 -7h-46q-10 0 -17 7l-58 60h-15q-5 0 -5 -5v-32q0 -8 -8 -8h-59q-8 0 -8 8v57q0 5 5 10l35 36q7 7 18 7h48q10 0 17 -7l56 -60h15q5 0 5 5v32q0 8 8 8h60zM22 8l105 734q2 8 8 8h110q6 0 8 -8l105 -734q2 -8 -7 -8 h-100q-6 0 -8 8l-23 186h-60l-23 -186q0 -8 -8 -8h-100q-9 0 -7 8zM162 314h56l-28 246z" />
<glyph unicode="&#xe4;" horiz-adv-x="380" d="M73 882q0 8 8 8h84q8 0 8 -8v-84q0 -8 -8 -8h-84q-8 0 -8 8v84zM22 8l105 734q2 8 8 8h110q6 0 8 -8l105 -734q2 -8 -7 -8h-100q-6 0 -8 8l-23 186h-60l-23 -186q0 -8 -8 -8h-100q-9 0 -7 8zM162 314h56l-28 246zM209 798v84q0 8 8 8h84q8 0 8 -8v-84q0 -8 -8 -8h-84 q-8 0 -8 8z" />
<glyph unicode="&#xe5;" horiz-adv-x="380" d="M86 940q0 5 5 10l47 43q7 7 18 7h74q11 0 18 -7l43 -43q5 -5 5 -10v-90q0 -5 -5 -10l-43 -43q-7 -7 -18 -7h-74q-12 0 -19 7l-46 43q-5 5 -5 10v90zM22 8l105 734q2 8 8 8h110q6 0 8 -8l105 -734q2 -8 -7 -8h-100q-6 0 -8 8l-23 186h-60l-23 -186q0 -8 -8 -8h-100 q-9 0 -7 8zM161 870q0 -5 5 -5h50q5 0 5 5v50q0 5 -5 5h-50q-5 0 -5 -5v-50zM162 314h56l-28 246z" />
<glyph unicode="&#xe6;" horiz-adv-x="525" d="M240 314v256l-49 -256h49zM22 8l155 734q2 8 8 8h287q8 0 8 -8v-104q0 -8 -8 -8h-112v-195h112q8 0 8 -8v-104q0 -8 -8 -8h-112v-195h112q8 0 8 -8v-104q0 -8 -8 -8h-224q-8 0 -8 8v186h-64l-38 -186q-2 -8 -8 -8h-100q-3 0 -6 2.5t-2 5.5z" />
<glyph unicode="&#xe7;" horiz-adv-x="378" d="M290 -63q5 -5 5 -12v-80q0 -5 -5 -10l-43 -43q-7 -7 -19 -7h-61q-12 0 -19 7l-44 44q-4 4 -4 11v62q0 8 8 8h54q8 0 8 -8v-49q0 -5 5 -5h45q5 0 5 5v57l-73 83h-34q-15 0 -25 10l-40 40q-10 10 -10 25v600q0 15 10 25l40 40q10 10 25 10h155q15 0 25 -10l40 -40 q10 -10 10 -25v-167q0 -8 -8 -8h-104q-8 0 -8 8v114q0 8 -8 8h-49q-8 0 -8 -8v-494q0 -8 8 -8h49q8 0 8 8v114q0 8 8 8h104q8 0 8 -8v-167q0 -15 -10 -25l-40 -40q-10 -10 -25 -10h-37z" />
<glyph unicode="&#xe8;" horiz-adv-x="337" d="M294 750q8 0 8 -8v-104q0 -8 -8 -8h-112v-195h112q8 0 8 -8v-104q0 -8 -8 -8h-112v-195h112q8 0 8 -8v-104q0 -8 -8 -8h-224q-8 0 -8 8v307h-9q-8 0 -8 8v104q0 8 8 8h9v307q0 8 8 8h224zM112 882q-6 8 3 8h85q5 0 8 -4l49 -88q2 -2 0.5 -5t-4.5 -3h-66q-5 0 -8 4z" />
<glyph unicode="&#xe9;" horiz-adv-x="337" d="M294 750q8 0 8 -8v-104q0 -8 -8 -8h-112v-195h112q8 0 8 -8v-104q0 -8 -8 -8h-112v-195h112q8 0 8 -8v-104q0 -8 -8 -8h-224q-8 0 -8 8v307h-9q-8 0 -8 8v104q0 8 8 8h9v307q0 8 8 8h224zM107 798l49 88q3 4 8 4h85q9 0 3 -8l-67 -88q-3 -4 -8 -4h-66q-3 0 -4.5 3t0.5 5z " />
<glyph unicode="&#xea;" horiz-adv-x="337" d="M294 750q8 0 8 -8v-104q0 -8 -8 -8h-112v-195h112q8 0 8 -8v-104q0 -8 -8 -8h-112v-195h112q8 0 8 -8v-104q0 -8 -8 -8h-224q-8 0 -8 8v307h-9q-8 0 -8 8v104q0 8 8 8h9v307q0 8 8 8h224zM78 798l50 86q3 6 10 6h88q7 0 10 -6l50 -86q1 -2 -1 -5t-5 -3h-64q-5 0 -8 4 l-26 48l-26 -48q-3 -4 -8 -4h-64q-3 0 -5 3t-1 5z" />
<glyph unicode="&#xeb;" horiz-adv-x="337" d="M294 750q8 0 8 -8v-104q0 -8 -8 -8h-112v-195h112q8 0 8 -8v-104q0 -8 -8 -8h-112v-195h112q8 0 8 -8v-104q0 -8 -8 -8h-224q-8 0 -8 8v307h-9q-8 0 -8 8v104q0 8 8 8h9v307q0 8 8 8h224zM64 798v84q0 8 8 8h84q8 0 8 -8v-84q0 -8 -8 -8h-84q-8 0 -8 8zM200 798v84 q0 8 8 8h84q8 0 8 -8v-84q0 -8 -8 -8h-84q-8 0 -8 8z" />
<glyph unicode="&#xec;" horiz-adv-x="220" d="M167 750q8 0 8 -8v-734q0 -8 -8 -8h-104q-8 0 -8 8v734q0 8 8 8h104zM27 882q-6 8 3 8h85q5 0 8 -4l49 -88q2 -2 0.5 -5t-4.5 -3h-66q-5 0 -8 4z" />
<glyph unicode="&#xed;" horiz-adv-x="222" d="M157 750q8 0 8 -8v-734q0 -8 -8 -8h-104q-8 0 -8 8v734q0 8 8 8h104zM50 798l49 88q3 4 8 4h85q9 0 3 -8l-67 -88q-3 -4 -8 -4h-66q-3 0 -4.5 3t0.5 5z" />
<glyph unicode="&#xee;" horiz-adv-x="258" d="M181 750q8 0 8 -8v-734q0 -8 -8 -8h-104q-8 0 -8 8v734q0 8 8 8h104zM25 798l50 86q3 6 10 6h88q7 0 10 -6l50 -86q1 -2 -1 -5t-5 -3h-64q-5 0 -8 4l-26 48l-26 -48q-3 -4 -8 -4h-64q-3 0 -5 3t-1 5z" />
<glyph unicode="&#xef;" horiz-adv-x="286" d="M195 750q8 0 8 -8v-734q0 -8 -8 -8h-104q-8 0 -8 8v734q0 8 8 8h104zM25 798v84q0 8 8 8h84q8 0 8 -8v-84q0 -8 -8 -8h-84q-8 0 -8 8zM161 798v84q0 8 8 8h84q8 0 8 -8v-84q0 -8 -8 -8h-84q-8 0 -8 8z" />
<glyph unicode="&#xf0;" horiz-adv-x="416" d="M245 630h-57v-195h24q8 0 8 -8v-104q0 -8 -8 -8h-24v-195h57q8 0 8 8v494q0 8 -8 8zM38 323v104q0 8 8 8h22v307q0 8 8 8h222q15 0 25 -10l40 -40q10 -10 10 -25v-600q0 -15 -10 -25l-40 -40q-10 -10 -25 -10h-222q-8 0 -8 8v307h-22q-8 0 -8 8z" />
<glyph unicode="&#xf1;" horiz-adv-x="395" d="M342 750q8 0 8 -8v-734q0 -8 -8 -8h-104q-6 0 -8 8l-65 332v-332q0 -8 -8 -8h-104q-8 0 -8 8v734q0 8 8 8h104q6 0 8 -8l65 -332v332q0 8 8 8h104zM60 820v57q0 5 5 10l35 36q7 7 18 7h48q10 0 17 -7l56 -60h15q5 0 5 5v32q0 8 8 8h60q7 0 7 -8v-57q0 -5 -5 -10l-35 -36 q-7 -7 -18 -7h-46q-10 0 -17 7l-58 60h-15q-5 0 -5 -5v-32q0 -8 -8 -8h-59q-8 0 -8 8z" />
<glyph unicode="&#xf2;" d="M228 622q0 8 -8 8h-49q-8 0 -8 -8v-494q0 -8 8 -8h49q8 0 8 8v494zM43 75v600q0 15 10 25l40 40q10 10 25 10h155q15 0 25 -10l40 -40q10 -10 10 -25v-600q0 -15 -10 -25l-40 -40q-10 -10 -25 -10h-155q-15 0 -25 10l-40 40q-10 10 -10 25zM86 882q-6 8 3 8h85q5 0 8 -4 l49 -88q2 -2 0.5 -5t-4.5 -3h-66q-5 0 -8 4z" />
<glyph unicode="&#xf3;" d="M228 622q0 8 -8 8h-49q-8 0 -8 -8v-494q0 -8 8 -8h49q8 0 8 8v494zM43 75v600q0 15 10 25l40 40q10 10 25 10h155q15 0 25 -10l40 -40q10 -10 10 -25v-600q0 -15 -10 -25l-40 -40q-10 -10 -25 -10h-155q-15 0 -25 10l-40 40q-10 10 -10 25zM159 798l49 88q3 4 8 4h85 q9 0 3 -8l-67 -88q-3 -4 -8 -4h-66q-3 0 -4.5 3t0.5 5z" />
<glyph unicode="&#xf4;" d="M228 622q0 8 -8 8h-49q-8 0 -8 -8v-494q0 -8 8 -8h49q8 0 8 8v494zM43 75v600q0 15 10 25l40 40q10 10 25 10h155q15 0 25 -10l40 -40q10 -10 10 -25v-600q0 -15 -10 -25l-40 -40q-10 -10 -25 -10h-155q-15 0 -25 10l-40 40q-10 10 -10 25zM91 798l50 86q3 6 10 6h88 q7 0 10 -6l50 -86q1 -2 -1 -5t-5 -3h-64q-5 0 -8 4l-26 48l-26 -48q-3 -4 -8 -4h-64q-3 0 -5 3t-1 5z" />
<glyph unicode="&#xf5;" d="M228 622q0 8 -8 8h-49q-8 0 -8 -8v-494q0 -8 8 -8h49q8 0 8 8v494zM43 75v600q0 15 10 25l40 40q10 10 25 10h155q15 0 25 -10l40 -40q10 -10 10 -25v-600q0 -15 -10 -25l-40 -40q-10 -10 -25 -10h-155q-15 0 -25 10l-40 40q-10 10 -10 25zM58 821v57q0 5 5 10l35 36 q7 7 18 7h48q10 0 17 -7l56 -60h15q5 0 5 5v32q0 8 8 8h60q7 0 7 -8v-57q0 -5 -5 -10l-35 -36q-7 -7 -18 -7h-46q-10 0 -17 7l-58 60h-15q-5 0 -5 -5v-32q0 -8 -8 -8h-59q-8 0 -8 8z" />
<glyph unicode="&#xf6;" d="M228 622q0 8 -8 8h-49q-8 0 -8 -8v-494q0 -8 8 -8h49q8 0 8 8v494zM43 75v600q0 15 10 25l40 40q10 10 25 10h155q15 0 25 -10l40 -40q10 -10 10 -25v-600q0 -15 -10 -25l-40 -40q-10 -10 -25 -10h-155q-15 0 -25 10l-40 40q-10 10 -10 25zM78 798v84q0 8 8 8h84 q8 0 8 -8v-84q0 -8 -8 -8h-84q-8 0 -8 8zM214 798v84q0 8 8 8h84q8 0 8 -8v-84q0 -8 -8 -8h-84q-8 0 -8 8z" />
<glyph unicode="&#xf7;" horiz-adv-x="352" d="M324 413q8 0 8 -8v-82q0 -8 -8 -8h-296q-8 0 -8 8v82q0 8 8 8h296zM126 198v84q0 8 8 8h84q8 0 8 -8v-84q0 -8 -8 -8h-84q-8 0 -8 8zM126 446v84q0 8 8 8h84q8 0 8 -8v-84q0 -8 -8 -8h-84q-8 0 -8 8z" />
<glyph unicode="&#xf8;" d="M294 787l-7 -37l51 -50q10 -10 10 -25v-599q0 -15 -10 -25l-41 -41q-10 -10 -25 -10h-120l-7 -36q-2 -8 -8 -8h-31q-8 0 -8 8l6 37l-51 50q-10 10 -10 25v598q0 15 10 25l41 41q10 10 25 10h119l7 37q2 8 8 8h34q9 0 7 -8zM163 330l54 300h-46q-8 0 -8 -8v-292zM174 120 h46q8 0 8 8v291z" />
<glyph unicode="&#xf9;" horiz-adv-x="395" d="M342 750q8 0 8 -8v-667q0 -15 -10 -25l-40 -40q-10 -10 -25 -10h-155q-15 0 -25 10l-40 40q-10 10 -10 25v667q0 8 8 8h104q8 0 8 -8v-614q0 -8 8 -8h49q8 0 8 8v614q0 8 8 8h104zM89 882q-6 8 3 8h85q5 0 8 -4l49 -88q2 -2 0.5 -5t-4.5 -3h-66q-5 0 -8 4z" />
<glyph unicode="&#xfa;" horiz-adv-x="395" d="M342 750q8 0 8 -8v-667q0 -15 -10 -25l-40 -40q-10 -10 -25 -10h-155q-15 0 -25 10l-40 40q-10 10 -10 25v667q0 8 8 8h104q8 0 8 -8v-614q0 -8 8 -8h49q8 0 8 8v614q0 8 8 8h104zM163 798l49 88q3 4 8 4h85q9 0 3 -8l-67 -88q-3 -4 -8 -4h-66q-3 0 -4.5 3t0.5 5z" />
<glyph unicode="&#xfb;" horiz-adv-x="395" d="M342 750q8 0 8 -8v-667q0 -15 -10 -25l-40 -40q-10 -10 -25 -10h-155q-15 0 -25 10l-40 40q-10 10 -10 25v667q0 8 8 8h104q8 0 8 -8v-614q0 -8 8 -8h49q8 0 8 8v614q0 8 8 8h104zM93 798l50 86q3 6 10 6h88q7 0 10 -6l50 -86q1 -2 -1 -5t-5 -3h-64q-5 0 -8 4l-26 48 l-26 -48q-3 -4 -8 -4h-64q-3 0 -5 3t-1 5z" />
<glyph unicode="&#xfc;" horiz-adv-x="395" d="M342 750q8 0 8 -8v-667q0 -15 -10 -25l-40 -40q-10 -10 -25 -10h-155q-15 0 -25 10l-40 40q-10 10 -10 25v667q0 8 8 8h104q8 0 8 -8v-614q0 -8 8 -8h49q8 0 8 8v614q0 8 8 8h104zM80 798v84q0 8 8 8h84q8 0 8 -8v-84q0 -8 -8 -8h-84q-8 0 -8 8zM216 798v84q0 8 8 8h84 q8 0 8 -8v-84q0 -8 -8 -8h-84q-8 0 -8 8z" />
<glyph unicode="&#xfd;" horiz-adv-x="410" d="M30 742l117 -405v-329q0 -8 8 -8h100q8 0 8 8v329l117 405q2 8 -7 8h-98q-6 0 -8 -8l-62 -257l-62 257q-2 8 -8 8h-98q-9 0 -7 -8zM172 798l49 88q3 4 8 4h85q9 0 3 -8l-67 -88q-3 -4 -8 -4h-66q-3 0 -4.5 3t0.5 5z" />
<glyph unicode="&#xfe;" horiz-adv-x="396" d="M157 750q8 0 8 -8v-157h73q15 0 25 -10l93 -93q10 -10 10 -25v-165q0 -15 -10 -25l-91 -92q-10 -10 -25 -10h-75v-157q0 -8 -8 -8h-104q-8 0 -8 8v734q0 8 8 8h104zM165 285h41q8 0 16 8l19 19q5 5 5 14v98q0 9 -5 14l-19 19q-8 8 -16 8h-41v-180z" />
<glyph unicode="&#xff;" horiz-adv-x="410" d="M30 742l117 -405v-329q0 -8 8 -8h100q8 0 8 8v329l117 405q2 8 -7 8h-98q-6 0 -8 -8l-62 -257l-62 257q-2 8 -8 8h-96q-3 0 -6.5 -2.5t-2.5 -5.5zM90 798v84q0 8 8 8h84q8 0 8 -8v-84q0 -8 -8 -8h-84q-8 0 -8 8zM226 798v84q0 8 8 8h84q8 0 8 -8v-84q0 -8 -8 -8h-84 q-8 0 -8 8z" />
<glyph unicode="&#x152;" horiz-adv-x="503" d="M171 630q-8 0 -8 -8v-494q0 -8 8 -8h57v195h-9q-8 0 -8 8v104q0 8 8 8h9v195h-57zM43 75v600q0 15 10 25l40 40q10 10 25 10h342q8 0 8 -8v-104q0 -8 -8 -8h-112v-195h112q8 0 8 -8v-104q0 -8 -8 -8h-112v-195h112q8 0 8 -8v-104q0 -8 -8 -8h-342q-15 0 -25 10l-40 40 q-10 10 -10 25z" />
<glyph unicode="&#x153;" horiz-adv-x="503" d="M171 630q-8 0 -8 -8v-494q0 -8 8 -8h57v195h-9q-8 0 -8 8v104q0 8 8 8h9v195h-57zM43 75v600q0 15 10 25l40 40q10 10 25 10h342q8 0 8 -8v-104q0 -8 -8 -8h-112v-195h112q8 0 8 -8v-104q0 -8 -8 -8h-112v-195h112q8 0 8 -8v-104q0 -8 -8 -8h-342q-15 0 -25 10l-40 40 q-10 10 -10 25z" />
<glyph unicode="&#x178;" horiz-adv-x="410" d="M30 742l117 -405v-329q0 -8 8 -8h100q8 0 8 8v329l117 405q2 8 -7 8h-98q-6 0 -8 -8l-62 -257l-62 257q-2 8 -8 8h-96q-3 0 -6.5 -2.5t-2.5 -5.5zM90 798v84q0 8 8 8h84q8 0 8 -8v-84q0 -8 -8 -8h-84q-8 0 -8 8zM226 798v84q0 8 8 8h84q8 0 8 -8v-84q0 -8 -8 -8h-84 q-8 0 -8 8z" />
<glyph unicode="&#x2000;" horiz-adv-x="500" />
<glyph unicode="&#x2001;" horiz-adv-x="1000" />
<glyph unicode="&#x2002;" horiz-adv-x="500" />
<glyph unicode="&#x2003;" horiz-adv-x="1000" />
<glyph unicode="&#x2004;" horiz-adv-x="333" />
<glyph unicode="&#x2005;" horiz-adv-x="250" />
<glyph unicode="&#x2006;" horiz-adv-x="166" />
<glyph unicode="&#x2007;" horiz-adv-x="166" />
<glyph unicode="&#x2008;" horiz-adv-x="125" />
<glyph unicode="&#x2009;" horiz-adv-x="200" />
<glyph unicode="&#x200a;" horiz-adv-x="55" />
<glyph unicode="&#x2010;" horiz-adv-x="294" d="M266 429q8 0 8 -8v-92q0 -8 -8 -8h-238q-8 0 -8 8v92q0 8 8 8h238z" />
<glyph unicode="&#x2011;" horiz-adv-x="294" d="M266 429q8 0 8 -8v-92q0 -8 -8 -8h-238q-8 0 -8 8v92q0 8 8 8h238z" />
<glyph unicode="&#x2012;" horiz-adv-x="294" d="M266 429q8 0 8 -8v-92q0 -8 -8 -8h-238q-8 0 -8 8v92q0 8 8 8h238z" />
<glyph unicode="&#x2013;" horiz-adv-x="540" d="M504 429q16 0 16 -8v-92q0 -8 -16 -8h-468q-16 0 -16 8v92q0 8 16 8h468z" />
<glyph unicode="&#x2014;" horiz-adv-x="1040" d="M989 429q31 0 31 -8v-92q0 -8 -31 -8h-938q-31 0 -31 8v92q0 8 31 8h938z" />
<glyph unicode="&#x2018;" horiz-adv-x="144" d="M15 512q-7 0 -5 8l58 222q2 8 8 8h52q8 0 6 -8l-23 -225q-1 -5 -8 -5h-88z" />
<glyph unicode="&#x2019;" horiz-adv-x="140" d="M127 750q7 0 5 -8l-58 -222q-2 -8 -8 -8h-52q-8 0 -6 8l23 225q1 5 8 5h88z" />
<glyph unicode="&#x201a;" horiz-adv-x="164" d="M139 119q7 0 5 -8l-58 -222q-2 -8 -8 -8h-52q-8 0 -6 8l23 225q1 5 8 5h88z" />
<glyph unicode="&#x201c;" horiz-adv-x="309" d="M170 512q-7 0 -5 8l58 222q2 8 8 8h52q8 0 6 -8l-23 -225q-1 -5 -8 -5h-88zM20 520l58 222q2 8 8 8h52q8 0 6 -8l-23 -225q-1 -5 -8 -5h-88q-7 0 -5 8z" />
<glyph unicode="&#x201d;" horiz-adv-x="309" d="M139 750q7 0 5 -8l-58 -222q-2 -8 -8 -8h-52q-8 0 -6 8l23 225q1 5 8 5h88zM165 520l23 225q1 5 8 5h88q7 0 5 -8l-58 -222q-2 -8 -8 -8h-52q-8 0 -6 8z" />
<glyph unicode="&#x201e;" horiz-adv-x="309" d="M139 119q7 0 5 -8l-58 -222q-2 -8 -8 -8h-52q-8 0 -6 8l23 225q1 5 8 5h88zM165 -111l23 225q1 5 8 5h88q7 0 5 -8l-58 -222q-2 -8 -8 -8h-52q-8 0 -6 8z" />
<glyph unicode="&#x2022;" horiz-adv-x="190" d="M30 434q0 8 8 8h114q8 0 8 -8v-114q0 -8 -8 -8h-114q-8 0 -8 8v114z" />
<glyph unicode="&#x2026;" horiz-adv-x="441" d="M20 100q0 8 8 8h83q8 0 8 -8v-92q0 -8 -8 -8h-83q-8 0 -8 8v92zM171 8v92q0 8 8 8h83q8 0 8 -8v-92q0 -8 -8 -8h-83q-8 0 -8 8zM322 8v92q0 8 8 8h83q8 0 8 -8v-92q0 -8 -8 -8h-83q-8 0 -8 8z" />
<glyph unicode="&#x202f;" horiz-adv-x="200" />
<glyph unicode="&#x205f;" horiz-adv-x="250" />
<glyph unicode="&#x20ac;" horiz-adv-x="405" d="M263 500q-8 0 -8 8v114q0 8 -8 8h-49q-8 0 -8 -8v-161h25q8 0 8 -8v-55q0 -8 -8 -8h-25v-30h25q8 0 8 -8v-55q0 -8 -8 -8h-25v-161q0 -8 8 -8h49q8 0 8 8v114q0 8 8 8h104q8 0 8 -8v-167q0 -15 -10 -25l-40 -40q-10 -10 -25 -10h-155q-15 0 -25 10l-40 40q-10 10 -10 25 v214h-27q-3 0 -6 3t-2 5v55q0 8 8 8h27v30h-27q-3 0 -6 3t-2 5v55q0 8 8 8h27v214q0 15 10 25l40 40q10 10 25 10h155q15 0 25 -10l40 -40q10 -10 10 -25v-167q0 -8 -8 -8h-104z" />
<glyph unicode="&#x25fc;" horiz-adv-x="750" d="M0 750h750v-750h-750v750z" />
</font>
</defs>
</svg>
